<?xml version="1.0" encoding="UTF-8"?> <svg xmlns="http://www.w3.org/2000/svg" width="51" height="35" viewBox="0 0 51 35" fill="none"><g clip-path="url(#clip0_321_5900)"><path d="M50.2465 11.8636C50.2465 12.1266 50.2471 12.3896 50.2465 12.6525C50.2439 13.5413 49.8012 14.1976 48.9659 14.5125C48.3464 14.746 47.7185 14.9569 47.0936 15.1761C44.7228 16.0073 42.3518 16.8377 39.9813 17.669C39.908 17.6947 39.8355 17.7242 39.7639 17.7543C39.664 17.7966 39.612 17.8732 39.6126 17.9822C39.6135 18.1575 39.6088 18.3331 39.6211 18.5078C39.6324 18.6673 39.6766 18.6992 39.8294 18.6539C40.0719 18.582 40.31 18.4944 40.5505 18.4158C41.0136 18.2638 41.0951 18.3202 41.1226 18.8073C41.1243 18.8365 41.1246 18.8657 41.1249 18.895C41.1489 20.2968 41.1626 21.699 41.2006 23.1003C41.2289 24.1416 41.2321 25.1839 41.2695 26.2246C41.2938 26.906 41.2765 27.5882 41.3163 28.2681C41.3429 28.7251 41.1927 29.1037 40.9397 29.4652C40.3755 30.2713 39.6257 30.8682 38.7994 31.3792C37.4706 32.2012 36.0237 32.7431 34.528 33.1656C32.8463 33.6407 31.1323 33.9428 29.3941 34.1161C28.4057 34.2146 27.4164 34.2897 26.4224 34.2908C26.1796 34.2911 25.9365 34.3279 25.6937 34.3244C24.1171 34.3008 22.5425 34.2485 20.9738 34.0606C18.9069 33.8131 16.8798 33.3988 14.9169 32.6982C13.5714 32.2181 12.2838 31.6197 11.1618 30.7169C10.6288 30.288 10.1511 29.8032 9.8008 29.2051C9.63338 28.9194 9.54105 28.6237 9.57115 28.2883C9.6512 27.3945 9.59189 26.4969 9.63455 25.6025C9.68071 24.6392 9.65442 23.6744 9.69883 22.712C9.73272 21.9818 9.72016 21.2517 9.74587 20.5221C9.77889 19.588 9.77947 18.653 9.81161 17.7192C9.84638 16.7059 10.0708 15.7295 10.5523 14.8287C11.1051 13.7949 11.9451 13.0855 13.0598 12.7238C14.8473 12.1438 16.6405 11.5817 18.4306 11.0102C20.6755 10.2934 22.9203 9.57731 25.1631 8.85475C25.495 8.74781 25.8389 8.78959 26.174 8.73028C26.8098 8.61779 27.4324 8.46849 28.0072 8.16316C28.2412 8.03898 28.4516 7.88442 28.6134 7.66908C28.9179 7.26412 28.884 6.84601 28.5153 6.49481C28.4016 6.38641 28.2748 6.29495 28.134 6.22717C27.5534 5.94697 26.9375 5.82308 26.295 5.8298C26.0723 5.83214 25.9151 5.94901 25.8731 6.12111C25.8333 6.28385 25.9216 6.50416 26.0881 6.59619C26.2208 6.66953 26.3432 6.73264 26.3581 6.90707C26.3753 7.10839 26.3552 7.29743 26.2193 7.45696C26.1755 7.50838 26.1281 7.56448 26.07 7.59457C25.4593 7.9113 25.0491 7.99048 24.4513 7.61269C24.3941 7.57646 24.345 7.52679 24.2871 7.49085C24.1039 7.37719 23.931 7.39268 23.7784 7.53146C23.6326 7.66411 23.5926 7.859 23.675 8.03694C23.6832 8.05447 23.6934 8.07112 23.703 8.08807C23.8559 8.35249 23.8567 8.35483 23.5529 8.45213C20.085 9.56358 16.6168 10.6742 13.1483 11.7847C12.8611 11.8768 12.5733 11.9676 12.2846 12.0556C11.373 12.3332 10.6735 12.9 10.102 13.6445C9.45018 14.4935 8.95143 15.425 8.58767 16.431C8.44099 16.8368 8.4816 16.8497 8.03369 16.6922C6.24233 16.0626 4.45126 15.4323 2.6602 14.8018C2.41243 14.7147 2.15823 14.6466 1.91893 14.5342C1.57825 14.3738 1.28812 14.1496 1.04239 13.8662C0.804558 13.5919 0.671323 13.2787 0.66957 12.9088C0.667233 12.3443 0.664311 11.7801 0.639768 11.2153C0.594772 10.188 1.04385 9.42129 1.92332 8.88952C2.43785 8.57835 3.00555 8.40245 3.56099 8.19559C6.31655 7.16916 9.07473 6.14916 11.8326 5.12828C15.1109 3.91485 18.3895 2.70201 21.6686 1.49063C22.253 1.27471 22.8291 1.03658 23.4296 0.865361C24.0209 0.696773 24.6196 0.56237 25.232 0.509777C25.7618 0.464197 26.2775 0.586913 26.7926 0.693267C27.6653 0.87325 28.4855 1.21306 29.3161 1.51985C31.8917 2.47177 34.4664 3.42662 37.0411 4.38088C39.3967 5.25392 41.7519 6.12812 44.1078 7.00057C45.441 7.49436 46.7757 7.98405 48.108 8.47988C48.6786 8.6923 49.2095 8.97133 49.6329 9.42567C50.0288 9.8505 50.2447 10.3455 50.2482 10.9286C50.25 11.2404 50.2485 11.5519 50.2485 11.8636H50.2456H50.2465Z" fill="#222E58"></path><path d="M50.1343 10.2119L32.4466 16.2194L31.7865 33.823C32.716 33.66 33.6372 33.4537 34.5488 33.1963C36.0445 32.7738 37.4914 32.2318 38.8202 31.4099C39.6465 30.8989 40.3962 30.302 40.9604 29.4958C41.2134 29.1344 41.3639 28.7557 41.337 28.2988C41.2973 27.6189 41.3148 26.9366 41.2903 26.2553C41.2532 25.2145 41.2497 24.1726 41.2213 23.131C41.1834 21.7297 41.1699 20.3275 41.1457 18.9256C41.1451 18.8964 41.1448 18.8672 41.1433 18.838C41.1159 18.3509 41.0346 18.2948 40.5712 18.4464C40.3308 18.5253 40.0926 18.6127 39.8501 18.6846C39.6973 18.7299 39.6532 18.698 39.6418 18.5385C39.6295 18.364 39.6342 18.1882 39.6333 18.0128C39.6328 17.9042 39.6848 17.8273 39.7847 17.7849C39.8563 17.7546 39.9287 17.7253 40.0021 17.6996C42.3728 16.8684 44.7439 16.038 47.1143 15.2067C47.739 14.9876 48.3672 14.7767 48.9866 14.5432C49.5286 14.339 49.9049 13.991 50.1033 13.529L50.2173 10.4907C50.196 10.3951 50.1682 10.3022 50.134 10.2119H50.1343Z" fill="url(#paint0_linear_321_5900)"></path><path d="M26.8148 0.724517C26.2997 0.618163 25.784 0.495447 25.2542 0.541027C24.6418 0.59362 24.0432 0.728023 23.4518 0.896611C22.8514 1.06783 22.2749 1.30596 21.6908 1.52188C18.4117 2.73326 15.1331 3.94581 11.8548 5.15953C9.09695 6.18041 6.33906 7.20041 3.58321 8.22684C3.02777 8.4337 2.46007 8.6096 1.94554 8.92077C1.58849 9.13669 1.30245 9.39118 1.09149 9.68628C5.29714 10.9935 5.30123 11.2535 10.8521 12.8959C11.2705 12.5348 11.7488 12.2563 12.3068 12.0865C12.5955 11.9986 12.883 11.9077 13.1705 11.8157C13.7081 11.6436 14.246 11.4712 14.7837 11.2991L23.8874 7.49814C23.919 7.47973 23.9511 7.46659 23.9838 7.45782L26.0575 6.59209C25.9254 6.4872 25.8594 6.29699 25.8947 6.15236C25.9368 5.98026 26.094 5.86339 26.3166 5.86105C26.7114 5.85696 27.0962 5.90225 27.469 6.00276L33.9381 3.30184L33.4251 3.06372C32.0629 2.55912 30.7008 2.05452 29.3381 1.5511C28.5074 1.24401 27.6872 0.9045 26.8145 0.724517H26.8148Z" fill="url(#paint1_linear_321_5900)"></path><path d="M15.2546 26.3279C14.8611 26.3083 14.3375 26.3726 13.8121 26.3802C13.224 26.3887 13.1314 26.2905 13.0662 25.7006C12.9964 25.0712 12.9511 24.4419 12.9569 23.8078C12.9742 21.9504 13.6021 20.3259 14.7857 18.903C15.0434 18.5933 15.3379 18.3283 15.6435 18.0711C16.27 17.5441 17.0141 17.3109 17.8095 17.204C19.1313 17.026 20.3845 17.3109 21.6104 17.7708C21.8471 17.8596 22.0803 17.9604 22.3079 18.0706C22.5273 18.1766 22.6877 18.3388 22.7234 18.5977C22.8052 19.1908 22.3073 19.5937 21.7396 19.3792C21.2388 19.1902 20.7514 18.9678 20.2316 18.8288C19.4606 18.6225 18.6793 18.5386 17.8889 18.6561C16.4695 18.867 15.5357 19.7071 14.9712 20.988C14.6054 21.8181 14.4491 22.6984 14.4254 23.6021C14.4152 23.9913 14.4216 24.3811 14.4286 24.7706C14.4339 25.0695 14.4564 25.0838 14.7448 25.096C15.153 25.1133 15.5614 25.1302 15.9693 25.1562C16.3965 25.1834 16.6513 25.3888 16.7334 25.7532C16.7529 25.8405 16.755 25.9258 16.7348 26.0132C16.6805 26.2484 16.5993 26.322 16.3518 26.3264C16.0304 26.3323 15.709 26.3279 15.2546 26.3279Z" fill="#15204D"></path><path d="M27.5064 26.392C27.2142 26.392 26.9223 26.3949 26.6301 26.3911C26.3637 26.3876 26.326 26.3561 26.2813 26.1033C26.0338 24.6982 26.2225 23.3516 26.8317 22.0636C27.1952 21.2955 27.6788 20.6133 28.3741 20.1148C28.9702 19.6876 29.6454 19.4475 30.3876 19.4168C30.9772 19.3925 31.5563 19.432 32.1015 19.6847C32.6102 19.9205 32.6932 20.5598 32.2607 20.9066C32.0919 21.0422 31.899 21.0921 31.6854 21.0428C31.6098 21.0252 31.535 21.0022 31.461 20.9776C30.503 20.6623 29.6434 20.9037 28.8831 21.498C27.8877 22.2761 27.3866 23.3416 27.2344 24.5808C27.1987 24.8718 27.2487 24.9174 27.5487 24.9177C27.724 24.9177 27.8994 24.9177 28.0744 24.9136C28.297 24.9086 28.496 24.9817 28.6809 25.0959C28.969 25.2738 29.0944 25.5955 29.0009 25.9009C28.9015 26.2246 28.6821 26.3809 28.3227 26.3821C28.0504 26.383 27.7781 26.3821 27.5061 26.3821V26.3914L27.5064 26.392Z" fill="#15204D"></path><path d="M19.9289 26.3412C18.3421 26.3412 16.7553 26.3412 15.1682 26.3412C15.1001 26.3412 15.0317 26.3424 14.9636 26.3409C14.5683 26.3333 14.4526 26.2384 14.3682 25.8448C14.2054 25.0857 14.1855 24.3161 14.2542 23.5486C14.3489 22.49 14.6463 21.4837 15.1693 20.554C15.9065 19.2439 16.9323 18.2563 18.3854 17.7797C19.8349 17.3047 21.2178 17.5016 22.5051 18.2952C23.9616 19.193 24.8198 20.5435 25.303 22.1537C25.6387 23.2722 25.677 24.414 25.5286 25.5658C25.5099 25.7098 25.4696 25.8512 25.4363 25.9935C25.3875 26.2027 25.2431 26.3015 25.0395 26.3208C24.9331 26.3307 24.8256 26.3287 24.7187 26.3287C23.1219 26.329 21.5254 26.329 19.9287 26.329V26.3415L19.9289 26.3412Z" fill="white"></path><path d="M31.2942 26.3901C30.136 26.3901 28.9778 26.3901 27.8193 26.3901C27.7413 26.3901 27.6635 26.3919 27.5858 26.3892C27.256 26.3772 27.1554 26.2989 27.097 25.9679C26.7917 24.2414 27.1113 22.6528 28.1979 21.2577C28.9474 20.2955 29.9431 19.7366 31.1709 19.6784C32.088 19.6349 32.9155 19.9393 33.6395 20.5032C34.7668 21.3813 35.3526 22.5701 35.5802 23.9545C35.6801 24.5631 35.6775 25.1755 35.584 25.7862C35.5694 25.8823 35.5469 25.977 35.5261 26.0722C35.4855 26.2595 35.3613 26.3533 35.1773 26.3699C35.0709 26.3796 34.9634 26.3805 34.8565 26.3808C33.669 26.3813 32.4816 26.381 31.2939 26.381V26.3904L31.2942 26.3901Z" fill="white"></path><path d="M22.0709 18.4283C22.1682 18.4283 22.2658 18.4243 22.3628 18.4292C22.652 18.4438 22.908 18.5324 23.1371 18.7237C23.9134 19.373 24.4922 20.1683 24.9135 21.0819C25.1505 21.5959 25.3299 22.1297 25.4435 22.6857C25.4804 22.8651 25.4751 23.0325 25.4085 23.1999C24.8998 24.4768 23.9768 25.2768 22.6214 25.5079C20.5706 25.8576 18.6845 24.3783 18.4929 22.3097C18.2927 20.1496 20.0525 18.3889 22.0709 18.4283Z" fill="#0A0A3B"></path><path d="M32.7957 25.7572C31.3947 25.7756 30.0857 24.642 30.0869 23.042C30.0878 21.3935 31.4566 20.325 32.7466 20.344C32.8731 20.3458 32.9999 20.3449 33.1259 20.3533C33.437 20.3741 33.6997 20.4863 33.9326 20.7086C34.6174 21.3628 35.0826 22.1468 35.3865 23.0373C35.4957 23.3581 35.4767 23.662 35.3607 23.977C34.9663 25.0499 33.9521 25.759 32.7957 25.7572Z" fill="#0A0A3B"></path><path d="M21.9768 19.62C21.9768 19.6685 21.9774 19.7173 21.9768 19.7658C21.973 20.0424 21.952 20.0696 21.6794 20.1465C20.8727 20.3741 20.3993 20.9158 20.198 21.7149C20.1519 21.8981 20.1554 22.0807 20.201 22.263C20.2448 22.4389 20.1837 22.5675 20.0254 22.6513C19.905 22.715 19.7869 22.7837 19.6625 22.8377C19.4518 22.9292 19.3419 22.8801 19.2593 22.6554C19.1535 22.3682 19.1225 22.069 19.1532 21.7651C19.2686 20.6221 20.1598 19.5346 21.254 19.1986C21.3936 19.1557 21.535 19.1212 21.6829 19.1206C21.9067 19.1197 21.9578 19.165 21.9724 19.3865C21.9774 19.4639 21.9733 19.5419 21.9733 19.6197C21.9745 19.6197 21.976 19.6197 21.9771 19.6197L21.9768 19.62Z" fill="white"></path><path d="M30.7419 22.8857C30.7761 22.1442 31.0928 21.5645 31.7321 21.1747C31.9848 21.0207 32.1038 21.0561 32.2507 21.3155C32.3176 21.4336 32.381 21.5548 32.4319 21.6802C32.5023 21.854 32.4789 21.9104 32.3214 22.0206C32.3057 22.0317 32.2881 22.0404 32.2715 22.0504C31.8902 22.2835 31.7233 22.6283 31.8017 23.0622C31.8434 23.2939 31.7695 23.435 31.5901 23.5519C31.5171 23.5995 31.4481 23.6536 31.3745 23.7006C31.0998 23.875 30.9815 23.8368 30.8678 23.5408C30.7866 23.3298 30.7594 23.1089 30.7419 22.8857Z" fill="white"></path><path d="M4.35338 27.4563C4.21722 27.4595 4.17778 27.5486 4.12606 27.6126C3.87508 27.9226 3.54579 28.1263 3.19956 28.3089C3.0596 28.3828 2.92345 28.3866 2.78232 28.3092C2.54215 28.1774 2.32039 28.0187 2.11644 27.8376C1.96685 27.7046 1.9759 27.6596 2.14274 27.555C3.41811 26.7571 4.31043 25.6231 5.0029 24.3104C5.1148 24.0982 5.11129 23.9329 4.97835 23.721C4.45214 22.8816 4.68588 21.8596 5.5221 21.3208C5.69945 21.2065 5.77308 21.0876 5.77279 20.8767C5.77221 19.5022 6.03225 18.1676 6.42669 16.8577C6.68206 16.0095 6.96168 15.1677 7.35115 14.3689C7.88555 13.2735 8.55201 12.2766 9.51884 11.5079C10.0375 11.0953 10.632 10.8356 11.2591 10.6392C12.8664 10.1361 14.4728 9.63121 16.0798 9.1272C18.6434 8.32312 21.2069 7.51933 23.7705 6.71438C24.2906 6.55105 24.8095 6.38392 25.3293 6.21942C25.7617 6.08268 25.8503 6.10956 26.1363 6.45492C26.231 6.56916 26.297 6.69831 26.3426 6.83826C26.4381 7.13307 26.356 7.42876 26.1211 7.63036C25.9709 7.75921 25.7953 7.84015 25.6075 7.90004C22.8157 8.79003 20.0242 9.68059 17.2327 10.5715C15.4799 11.1307 13.7277 11.6917 11.974 12.2489C11.5185 12.3938 11.1364 12.6497 10.7895 12.9732C9.88114 13.8202 9.24448 14.8499 8.79014 15.992C8.33639 17.133 7.9545 18.299 7.74267 19.5133C7.64392 20.079 7.57 20.6482 7.57876 21.2252C7.5811 21.3754 7.60097 21.5069 7.70849 21.6279C8.24406 22.2303 8.3282 23.0633 7.86305 23.7579C7.75495 23.9194 7.75173 24.0471 7.82536 24.2128C8.11053 24.8562 8.20315 25.5457 8.21162 26.2361C8.2201 26.9079 8.11959 27.5758 7.85896 28.2072C7.85516 28.2162 7.85107 28.225 7.84786 28.2341C7.60827 28.9072 7.1437 29.2479 6.41647 29.2479C5.87769 29.2479 5.34855 29.1889 4.8232 29.0811C4.6327 29.0419 4.44308 28.9946 4.25725 28.9376C4.10123 28.8897 4.08603 28.8465 4.17982 28.7086C4.44717 28.3153 4.41561 27.8916 4.35309 27.4557L4.35338 27.4563Z" fill="url(#paint2_linear_321_5900)"></path><path d="M26.3415 6.85096C26.2962 6.71071 26.2301 6.58186 26.1352 6.46761C25.8491 6.12226 25.7606 6.09538 25.3282 6.23212C24.8084 6.39661 24.2895 6.56374 23.7694 6.72707C21.2061 7.53174 18.6422 8.33553 16.0786 9.1399C14.4716 9.64391 12.8652 10.1491 11.2579 10.6519C11.0712 10.7104 10.8871 10.7746 10.7075 10.8468C11.0262 11.0151 11.2892 11.288 11.4823 11.5878C11.6223 11.8075 11.698 12.0448 11.7093 12.2992C11.7134 12.3182 11.7167 12.3369 11.7202 12.3559C11.802 12.3206 11.8858 12.289 11.9726 12.2613C13.726 11.7041 15.4785 11.1431 17.2313 10.5839C20.0228 9.693 22.8143 8.80243 25.606 7.91245C25.7936 7.85255 25.9695 7.77191 26.1197 7.64276C26.3546 7.44116 26.4367 7.14547 26.3412 6.85066L26.3415 6.85096Z" fill="url(#paint3_linear_321_5900)"></path><path d="M6.41501 24.5428C7.38321 24.5428 8.16809 23.7579 8.16809 22.7897C8.16809 21.8215 7.38321 21.0366 6.41501 21.0366C5.44681 21.0366 4.66193 21.8215 4.66193 22.7897C4.66193 23.7579 5.44681 24.5428 6.41501 24.5428Z" fill="#9493E1"></path><path d="M25.4415 8.10125C24.9448 8.10972 24.449 8.10768 23.9628 7.98262C23.6598 7.90461 23.3662 7.80468 23.1029 7.62996C22.6158 7.30681 22.5819 6.79111 23.0301 6.41507C23.3743 6.12611 23.7887 5.97709 24.2187 5.8836C25.097 5.6928 25.9762 5.70186 26.8495 5.92538C27.2308 6.02297 27.5844 6.18133 27.89 6.43377C28.2917 6.7654 28.2958 7.22032 27.8982 7.55399C27.7252 7.69921 27.5271 7.80089 27.3138 7.87685C26.7636 8.07261 26.1945 8.11644 25.6168 8.10154C25.5584 8.10008 25.5 8.10154 25.4418 8.10154L25.4415 8.10125Z" fill="#9493E1"></path><path d="M25.5444 6.04788C25.6899 6.04788 25.8375 6.03269 25.9807 6.0511C26.2565 6.08674 26.4531 6.30325 26.461 6.55511C26.4689 6.80785 26.2857 7.06935 26.0032 7.06876C25.3411 7.0673 24.6956 7.2391 24.0353 7.21953C23.8808 7.21485 23.7259 7.19148 23.5728 7.16664C23.3905 7.13684 23.3431 7.05941 23.3928 6.88089C23.4474 6.68425 23.5716 6.53787 23.7443 6.43385C23.9114 6.33334 24.0894 6.25709 24.2784 6.20595C24.6933 6.09376 25.1161 6.04204 25.545 6.04788H25.5444Z" fill="#D3D1F6"></path><path d="M6.72415 23.6564C6.72503 24.1107 6.64555 24.1811 6.18975 24.1046C5.33571 23.9614 4.96814 23.1313 5.12826 22.4085C5.15514 22.2878 5.22555 22.2203 5.35207 22.2232C5.52708 22.2276 5.7021 22.2305 5.87682 22.2422C5.99399 22.2501 6.04833 22.3164 6.02964 22.4394C6.00772 22.5829 5.97149 22.7249 6.00655 22.873C6.05856 23.0931 6.16082 23.1921 6.38025 23.2187C6.60737 23.2464 6.72201 23.3726 6.72415 23.5974C6.72415 23.6169 6.72415 23.6362 6.72415 23.6558V23.6564Z" fill="#D3D1F6"></path><path d="M27.2422 6.50346C27.5248 6.49996 27.7448 6.70828 27.7556 6.98907C27.7667 7.28242 27.5473 7.51499 27.256 7.5185C26.965 7.522 26.7368 7.29381 26.7412 7.0028C26.7452 6.7226 26.9615 6.50697 27.2425 6.50346H27.2422Z" fill="#D3D1F6"></path><path d="M31.8689 3.86182C33.1741 4.33544 34.1961 4.7407 35.496 5.22718C36.6265 5.65025 37.7531 6.08327 38.8812 6.51219C38.9189 6.5265 38.9563 6.54111 38.9926 6.55894C39.0767 6.60072 39.153 6.65331 39.1436 6.76142C39.1343 6.86719 39.0533 6.91131 38.9657 6.94491C38.9283 6.95922 38.8897 6.9712 38.8512 6.98231C38.4161 7.10736 37.9816 7.23387 37.5457 7.35571C37.43 7.38814 37.3102 7.40626 37.2269 7.4235C37.0364 7.41824 36.8953 7.36331 36.7545 7.30984C35.4762 6.82278 34.1979 6.33542 32.9199 5.84748C32.1214 5.54273 30.7759 5.09832 29.9782 4.79124" fill="url(#paint4_linear_321_5900)"></path><path d="M26.2784 16.0996C25.9949 16.0789 25.7209 16.0137 25.4497 15.9331C23.2943 15.2915 21.1363 14.6583 18.9844 14.0044C18.1628 13.7549 17.3213 13.5992 16.4865 13.4101C16.3337 13.3756 16.1812 13.3423 16.0532 13.2459C15.8607 13.1013 15.8522 12.9572 16.0158 12.7825C16.1631 12.625 16.3647 12.5724 16.5552 12.5041C16.8208 12.4091 17.0919 12.3288 17.3619 12.2467C17.6666 12.154 17.9693 12.1526 18.282 12.2329C20.6872 12.8518 23.0428 13.6395 25.4246 14.3372C25.9517 14.4918 26.473 14.5125 27.0047 14.3474C28.4183 13.9089 29.814 13.4163 31.2226 12.9622C31.9084 12.7413 32.5962 12.5274 33.2816 12.3057C33.4762 12.2426 33.6586 12.2429 33.8482 12.3291C34.2292 12.5023 34.6154 12.6642 34.9991 12.8313C35.026 12.843 35.0523 12.8559 35.0771 12.8708C35.1513 12.9155 35.2454 12.9517 35.2457 13.0542C35.2457 13.1811 35.1294 13.1995 35.0417 13.2301C34.0492 13.5773 33.0575 13.9267 32.0621 14.265C30.4948 14.7974 28.9255 15.323 27.3559 15.8484C27.0053 15.9658 26.6524 16.0789 26.2781 16.0994L26.2784 16.0996Z" fill="url(#paint5_linear_321_5900)"></path><path d="M37.6065 12.1693C37.4829 12.1605 37.3718 12.1231 37.264 12.0781C36.8415 11.9025 36.4199 11.7246 35.9986 11.546C35.9451 11.5232 35.8911 11.4975 35.8452 11.4628C35.7502 11.3909 35.7508 11.3167 35.8513 11.2562C35.9171 11.2167 35.993 11.1922 36.0667 11.1682C36.9642 10.8749 37.8639 10.588 38.7591 10.2873C39.0028 10.2055 39.2283 10.1962 39.4679 10.2929C39.9009 10.4679 40.3392 10.6312 40.7749 10.7998C40.8201 10.8173 40.8669 10.8337 40.9087 10.858C41.0533 10.9418 41.0559 11.0385 40.9075 11.1089C40.7939 11.163 40.6711 11.1983 40.5508 11.2378C39.6903 11.5197 38.8298 11.8005 37.9688 12.0813C37.8487 12.1205 37.7303 12.1678 37.6065 12.1693Z" fill="url(#paint6_linear_321_5900)"></path><path d="M29.1215 30.9708C28.749 30.9667 28.3855 30.9144 28.0358 30.7811C27.8535 30.7116 27.6776 30.6295 27.5166 30.5194C27.4222 30.4548 27.2951 30.4037 27.3027 30.2657C27.3115 30.1129 27.4479 30.072 27.5659 30.0276C28.6926 29.6016 29.8198 29.1771 30.9471 28.752C31.2287 28.6456 31.5086 28.5337 31.7929 28.4346C32.0901 28.3309 32.2292 28.4533 32.1634 28.7596C32.0495 29.2907 31.7655 29.7226 31.3751 30.0928C30.7574 30.6786 29.9019 30.9673 29.1212 30.9708H29.1215Z" fill="white"></path><path d="M6.76562 21.1536C7.2039 21.212 7.2074 21.1901 7.34999 21.2997C7.43881 21.3678 7.53114 21.4729 7.58373 21.4458C7.63632 21.4186 7.5998 21.2845 7.58373 21.0952C7.57497 20.9926 7.59746 20.7638 7.64217 20.3063C7.67197 20.0004 7.68775 19.8475 7.7006 19.7511C7.77511 19.196 7.89286 18.7539 7.99278 18.3779C8.00359 18.3376 8.04859 18.1757 8.13887 17.852C8.26656 17.3938 8.28789 17.3214 8.31418 17.2384C8.36239 17.0853 8.43777 16.8632 8.54793 16.5956L8.72324 16.1865L8.89854 15.719L8.9862 15.5145L9.10307 15.2808L9.27838 14.9301L9.51212 14.5503L9.71665 14.1997C9.77859 14.1155 9.86858 13.9943 9.97961 13.8491C10.0322 13.7801 10.1245 13.6597 10.1841 13.5861C10.3378 13.3965 10.389 13.3871 10.7101 13.0602C10.7808 12.9883 10.8027 12.9641 10.8562 12.9141C10.9903 12.7888 11.1068 12.7014 11.1776 12.6511C11.4709 12.4425 11.7955 12.314 11.908 12.2713L12.6385 12.0376L24.9685 8.09312C24.7721 8.11445 24.4981 8.12292 24.1796 8.0639C23.9146 8.01482 23.6975 7.93359 23.5368 7.85938C15.9699 10.3452 13.0303 11.2157 12.0541 11.424C11.9583 11.4444 11.662 11.5052 11.2944 11.6577C10.6919 11.9072 9.93432 12.3873 9.07385 13.5861C7.6112 15.6235 7.22552 17.8233 6.99937 19.196C6.87841 19.9294 6.82289 20.5462 6.79484 20.9783L6.76562 21.1536Z" fill="url(#paint7_linear_321_5900)"></path></g><defs><linearGradient id="paint0_linear_321_5900" x1="28.6935" y1="24.8934" x2="54.5191" y2="18.8862" gradientUnits="userSpaceOnUse"><stop offset="0.25" stop-color="#212D57"></stop><stop offset="0.47" stop-color="#09163F"></stop></linearGradient><linearGradient id="paint1_linear_321_5900" x1="15.9746" y1="4.95704" x2="29.9884" y2="18.9408" gradientUnits="userSpaceOnUse"><stop offset="0.16" stop-color="#404C74"></stop><stop offset="0.49" stop-color="#212D57"></stop></linearGradient><linearGradient id="paint2_linear_321_5900" x1="7.64304" y1="13.7974" x2="19.7636" y2="20.06" gradientUnits="userSpaceOnUse"><stop offset="0.08" stop-color="#9393E0"></stop><stop offset="0.22" stop-color="#9393E0"></stop><stop offset="0.46" stop-color="#7070C1"></stop></linearGradient><linearGradient id="paint3_linear_321_5900" x1="7.05929" y1="6.70779" x2="30.8691" y2="11.908" gradientUnits="userSpaceOnUse"><stop offset="0.08" stop-color="#9393E0"></stop><stop offset="0.22" stop-color="#9393E0"></stop><stop offset="0.84" stop-color="#7070C1"></stop></linearGradient><linearGradient id="paint4_linear_321_5900" x1="31.4753" y1="4.50696" x2="40.3126" y2="7.94011" gradientUnits="userSpaceOnUse"><stop stop-color="#212D57"></stop><stop offset="0.21" stop-color="#414D75"></stop><stop offset="0.59" stop-color="#4E5C83"></stop></linearGradient><linearGradient id="paint5_linear_321_5900" x1="17.1445" y1="9.76809" x2="33.9931" y2="16.3121" gradientUnits="userSpaceOnUse"><stop stop-color="#212D57"></stop><stop offset="0.21" stop-color="#414D75"></stop><stop offset="0.59" stop-color="#4E5C83"></stop></linearGradient><linearGradient id="paint6_linear_321_5900" x1="36.1675" y1="10.3317" x2="40.6086" y2="12.0568" gradientUnits="userSpaceOnUse"><stop stop-color="#212D57"></stop><stop offset="0.21" stop-color="#414D75"></stop><stop offset="0.59" stop-color="#4E5C83"></stop></linearGradient><linearGradient id="paint7_linear_321_5900" x1="9.49635" y1="10.9588" x2="13.3908" y2="13.199" gradientUnits="userSpaceOnUse"><stop offset="0.21" stop-color="#9393E0"></stop><stop offset="0.43" stop-color="#9393E0"></stop><stop offset="0.86" stop-color="#7070C1"></stop></linearGradient><clipPath id="clip0_321_5900"><rect width="50" height="33.8243" fill="white" transform="translate(0.25 0.5)"></rect></clipPath></defs></svg> 