<?xml version="1.0" encoding="UTF-8"?> <svg xmlns="http://www.w3.org/2000/svg" width="254" height="25" viewBox="0 0 254 25" fill="none"><g clip-path="url(#clip0_321_4754)"><rect x="0.875" y="0.75" width="253.125" height="23.75" rx="6.25" fill="#DDFFF3"></rect><g opacity="0.5"><line x1="3.6875" y1="21.375" x2="3.6875" y2="27.625" stroke="#4BD59F" stroke-width="0.625"></line><line x1="6.8125" y1="21.375" x2="6.8125" y2="27.625" stroke="#4BD59F" stroke-width="0.625"></line><line x1="9.9375" y1="21.375" x2="9.9375" y2="27.625" stroke="#4BD59F" stroke-width="0.625"></line><line x1="13.0625" y1="21.375" x2="13.0625" y2="27.625" stroke="#4BD59F" stroke-width="0.625"></line><line x1="16.1875" y1="18.25" x2="16.1875" y2="30.75" stroke="#4BD59F" stroke-width="0.625"></line><line x1="19.3125" y1="21.375" x2="19.3125" y2="27.625" stroke="#4BD59F" stroke-width="0.625"></line><line x1="22.4375" y1="21.375" x2="22.4375" y2="27.625" stroke="#4BD59F" stroke-width="0.625"></line><line x1="25.5625" y1="21.375" x2="25.5625" y2="27.625" stroke="#4BD59F" stroke-width="0.625"></line><line x1="28.6875" y1="21.375" x2="28.6875" y2="27.625" stroke="#4BD59F" stroke-width="0.625"></line><line x1="31.8125" y1="18.25" x2="31.8125" y2="30.75" stroke="#4BD59F" stroke-width="0.625"></line><line x1="34.9375" y1="21.375" x2="34.9375" y2="27.625" stroke="#4BD59F" stroke-width="0.625"></line><line x1="38.0625" y1="21.375" x2="38.0625" y2="27.625" stroke="#4BD59F" stroke-width="0.625"></line><line x1="41.1875" y1="21.375" x2="41.1875" y2="27.625" stroke="#4BD59F" stroke-width="0.625"></line><line x1="44.3125" y1="21.375" x2="44.3125" y2="27.625" stroke="#4BD59F" stroke-width="0.625"></line><line x1="47.4375" y1="18.25" x2="47.4375" y2="30.75" stroke="#4BD59F" stroke-width="0.625"></line><line x1="50.5625" y1="21.375" x2="50.5625" y2="27.625" stroke="#4BD59F" stroke-width="0.625"></line><line x1="53.6875" y1="21.375" x2="53.6875" y2="27.625" stroke="#4BD59F" stroke-width="0.625"></line><line x1="56.8125" y1="21.375" x2="56.8125" y2="27.625" stroke="#4BD59F" stroke-width="0.625"></line><line x1="59.9375" y1="21.375" x2="59.9375" y2="27.625" stroke="#4BD59F" stroke-width="0.625"></line><line x1="63.0625" y1="18.25" x2="63.0625" y2="30.75" stroke="#4BD59F" stroke-width="0.625"></line><line x1="66.1875" y1="21.375" x2="66.1875" y2="27.625" stroke="#4BD59F" stroke-width="0.625"></line><line x1="69.3125" y1="21.375" x2="69.3125" y2="27.625" stroke="#4BD59F" stroke-width="0.625"></line><line x1="72.4375" y1="21.375" x2="72.4375" y2="27.625" stroke="#4BD59F" stroke-width="0.625"></line><line x1="75.5625" y1="21.375" x2="75.5625" y2="27.625" stroke="#4BD59F" stroke-width="0.625"></line><line x1="78.6875" y1="18.25" x2="78.6875" y2="30.75" stroke="#4BD59F" stroke-width="0.625"></line><line x1="81.8125" y1="21.375" x2="81.8125" y2="27.625" stroke="#4BD59F" stroke-width="0.625"></line><line x1="84.9375" y1="21.375" x2="84.9375" y2="27.625" stroke="#4BD59F" stroke-width="0.625"></line><line x1="88.0625" y1="21.375" x2="88.0625" y2="27.625" stroke="#4BD59F" stroke-width="0.625"></line><line x1="91.1875" y1="21.375" x2="91.1875" y2="27.625" stroke="#4BD59F" stroke-width="0.625"></line><line x1="94.3125" y1="18.25" x2="94.3125" y2="30.75" stroke="#4BD59F" stroke-width="0.625"></line><line x1="97.4375" y1="21.375" x2="97.4375" y2="27.625" stroke="#4BD59F" stroke-width="0.625"></line><line x1="100.562" y1="21.375" x2="100.562" y2="27.625" stroke="#4BD59F" stroke-width="0.625"></line><line x1="103.688" y1="21.375" x2="103.688" y2="27.625" stroke="#4BD59F" stroke-width="0.625"></line><line x1="106.812" y1="21.375" x2="106.812" y2="27.625" stroke="#4BD59F" stroke-width="0.625"></line><line x1="109.938" y1="18.25" x2="109.938" y2="30.75" stroke="#4BD59F" stroke-width="0.625"></line><line x1="113.062" y1="21.375" x2="113.062" y2="27.625" stroke="#4BD59F" stroke-width="0.625"></line><line x1="116.188" y1="21.375" x2="116.188" y2="27.625" stroke="#4BD59F" stroke-width="0.625"></line><line x1="119.312" y1="21.375" x2="119.312" y2="27.625" stroke="#4BD59F" stroke-width="0.625"></line><line x1="122.438" y1="21.375" x2="122.438" y2="27.625" stroke="#4BD59F" stroke-width="0.625"></line><line x1="125.562" y1="18.25" x2="125.562" y2="30.75" stroke="#4BD59F" stroke-width="0.625"></line><line x1="128.688" y1="21.375" x2="128.688" y2="27.625" stroke="#4BD59F" stroke-width="0.625"></line><line x1="131.812" y1="21.375" x2="131.812" y2="27.625" stroke="#4BD59F" stroke-width="0.625"></line><line x1="134.938" y1="21.375" x2="134.938" y2="27.625" stroke="#4BD59F" stroke-width="0.625"></line><line x1="138.062" y1="21.375" x2="138.062" y2="27.625" stroke="#4BD59F" stroke-width="0.625"></line><line x1="141.188" y1="18.25" x2="141.188" y2="30.75" stroke="#4BD59F" stroke-width="0.625"></line><line x1="144.312" y1="21.375" x2="144.312" y2="27.625" stroke="#4BD59F" stroke-width="0.625"></line><line x1="147.438" y1="21.375" x2="147.438" y2="27.625" stroke="#4BD59F" stroke-width="0.625"></line><line x1="150.562" y1="21.375" x2="150.562" y2="27.625" stroke="#4BD59F" stroke-width="0.625"></line><line x1="153.688" y1="21.375" x2="153.688" y2="27.625" stroke="#4BD59F" stroke-width="0.625"></line><line x1="156.812" y1="18.25" x2="156.812" y2="30.75" stroke="#4BD59F" stroke-width="0.625"></line><line x1="159.938" y1="21.375" x2="159.938" y2="27.625" stroke="#4BD59F" stroke-width="0.625"></line><line x1="163.062" y1="21.375" x2="163.062" y2="27.625" stroke="#4BD59F" stroke-width="0.625"></line><line x1="166.188" y1="21.375" x2="166.188" y2="27.625" stroke="#4BD59F" stroke-width="0.625"></line><line x1="169.312" y1="21.375" x2="169.312" y2="27.625" stroke="#4BD59F" stroke-width="0.625"></line><line x1="172.438" y1="18.25" x2="172.438" y2="30.75" stroke="#4BD59F" stroke-width="0.625"></line><line x1="175.562" y1="21.375" x2="175.562" y2="27.625" stroke="#4BD59F" stroke-width="0.625"></line><line x1="178.688" y1="21.375" x2="178.688" y2="27.625" stroke="#4BD59F" stroke-width="0.625"></line><line x1="181.812" y1="21.375" x2="181.812" y2="27.625" stroke="#4BD59F" stroke-width="0.625"></line><line x1="184.938" y1="21.375" x2="184.938" y2="27.625" stroke="#4BD59F" stroke-width="0.625"></line><line x1="188.062" y1="18.25" x2="188.062" y2="30.75" stroke="#4BD59F" stroke-width="0.625"></line><line x1="191.188" y1="21.375" x2="191.188" y2="27.625" stroke="#4BD59F" stroke-width="0.625"></line><line x1="194.312" y1="21.375" x2="194.312" y2="27.625" stroke="#4BD59F" stroke-width="0.625"></line><line x1="197.438" y1="21.375" x2="197.438" y2="27.625" stroke="#4BD59F" stroke-width="0.625"></line><line x1="200.562" y1="21.375" x2="200.562" y2="27.625" stroke="#4BD59F" stroke-width="0.625"></line><line x1="203.688" y1="18.25" x2="203.688" y2="30.75" stroke="#4BD59F" stroke-width="0.625"></line><line x1="206.812" y1="21.375" x2="206.812" y2="27.625" stroke="#4BD59F" stroke-width="0.625"></line><line x1="209.938" y1="21.375" x2="209.938" y2="27.625" stroke="#4BD59F" stroke-width="0.625"></line><line x1="213.062" y1="21.375" x2="213.062" y2="27.625" stroke="#4BD59F" stroke-width="0.625"></line><line x1="216.188" y1="21.375" x2="216.188" y2="27.625" stroke="#4BD59F" stroke-width="0.625"></line><line x1="219.312" y1="18.25" x2="219.312" y2="30.75" stroke="#4BD59F" stroke-width="0.625"></line><line x1="222.438" y1="21.375" x2="222.438" y2="27.625" stroke="#4BD59F" stroke-width="0.625"></line><line x1="225.562" y1="21.375" x2="225.562" y2="27.625" stroke="#4BD59F" stroke-width="0.625"></line><line x1="228.688" y1="21.375" x2="228.688" y2="27.625" stroke="#4BD59F" stroke-width="0.625"></line><line x1="231.812" y1="21.375" x2="231.812" y2="27.625" stroke="#4BD59F" stroke-width="0.625"></line><line x1="234.938" y1="18.25" x2="234.938" y2="30.75" stroke="#4BD59F" stroke-width="0.625"></line><line x1="238.062" y1="21.375" x2="238.062" y2="27.625" stroke="#4BD59F" stroke-width="0.625"></line><line x1="241.188" y1="21.375" x2="241.188" y2="27.625" stroke="#4BD59F" stroke-width="0.625"></line><line x1="244.312" y1="21.375" x2="244.312" y2="27.625" stroke="#4BD59F" stroke-width="0.625"></line><line x1="247.438" y1="21.375" x2="247.438" y2="27.625" stroke="#4BD59F" stroke-width="0.625"></line><line x1="250.562" y1="18.25" x2="250.562" y2="30.75" stroke="#4BD59F" stroke-width="0.625"></line><line x1="253.688" y1="21.375" x2="253.688" y2="27.625" stroke="#4BD59F" stroke-width="0.625"></line></g><path fill-rule="evenodd" clip-rule="evenodd" d="M11.7461 11.5211C11.7124 11.5188 11.6702 11.5183 11.5177 11.5183H10.5516L10.4709 12.3254C10.3168 13.8663 10.2632 14.4856 10.4009 15.0716C10.5385 15.6575 10.8623 16.188 11.6865 17.4991L13.9663 21.1259C14.1615 21.4363 14.068 21.8463 13.7575 22.0415C13.447 22.2366 13.0371 22.1431 12.8419 21.8327L10.5621 18.206C10.5404 18.1715 10.5189 18.1373 10.4977 18.1036C9.75854 16.9281 9.30239 16.2028 9.10797 15.3753C8.91354 14.5479 8.99894 13.6952 9.13733 12.3136C9.1413 12.2739 9.14531 12.2338 9.14937 12.1933L9.21678 11.5191C8.77303 11.5214 8.44478 11.53 8.17977 11.5621C7.84578 11.6027 7.69001 11.6733 7.57966 11.7618C7.46932 11.8503 7.36666 11.9871 7.25464 12.3043C7.13659 12.6386 7.03493 13.0908 6.88363 13.7717L6.61452 14.9827C6.53496 15.3407 6.18023 15.5664 5.82221 15.4868C5.46419 15.4073 5.23846 15.0526 5.31802 14.6946L5.59577 13.4447C5.73611 12.8131 5.85425 12.2814 6.0023 11.862C6.1594 11.4171 6.37339 11.0267 6.74861 10.7258C7.12384 10.4248 7.55136 10.3006 8.01976 10.2437C8.46116 10.1902 9.00583 10.1902 9.65286 10.1902L11.5177 10.1902C11.525 10.1902 11.5324 10.1902 11.5396 10.1902C11.66 10.1902 11.7536 10.1902 11.8411 10.1964C12.8275 10.2671 13.6731 10.9274 13.9809 11.8671C14.0082 11.9505 14.0309 12.0413 14.0601 12.1582L14.0654 12.1794C14.1151 12.3781 14.1298 12.4345 14.1436 12.474C14.3297 13.0106 14.8918 13.3192 15.4445 13.1881C15.4852 13.1786 15.5407 13.1608 15.735 13.0959L16.3813 12.8805C16.7292 12.7645 17.1053 12.9526 17.2213 13.3005C17.3373 13.6484 17.1492 14.0245 16.8012 14.1405L16.1551 14.3559C16.1453 14.3592 16.1358 14.3624 16.1264 14.3655C15.9741 14.4163 15.8571 14.4552 15.751 14.4805C14.5351 14.7688 13.2984 14.0898 12.8888 12.9093C12.853 12.8062 12.8231 12.6866 12.7843 12.5309C12.7818 12.5212 12.7794 12.5114 12.7769 12.5015C12.7399 12.3536 12.7293 12.3127 12.7188 12.2806C12.5789 11.8534 12.1945 11.5533 11.7461 11.5211Z" fill="#43D49B"></path><path d="M13.0495 5.98429C13.0495 7.2068 12.0584 8.19784 10.8359 8.19784C9.61341 8.19784 8.62238 7.2068 8.62238 5.98429C8.62238 4.76179 9.61341 3.77075 10.8359 3.77075C12.0584 3.77075 13.0495 4.76179 13.0495 5.98429Z" fill="#81E4BE"></path><path d="M8.9908 16.9421C9.29596 17.1456 9.37841 17.5579 9.17498 17.8631L6.51873 21.8474C6.31529 22.1526 5.90299 22.2351 5.59784 22.0316C5.29269 21.8282 5.21023 21.4159 5.41366 21.1108L8.06991 17.1264C8.27335 16.8212 8.68565 16.7387 8.9908 16.9421Z" fill="#81E4BE"></path></g><defs><clipPath id="clip0_321_4754"><rect x="0.875" y="0.75" width="253.125" height="23.75" rx="6.25" fill="white"></rect></clipPath></defs></svg> 