<?xml version="1.0" encoding="UTF-8"?> <svg xmlns="http://www.w3.org/2000/svg" width="197" height="197" viewBox="0 0 197 197" fill="none"><path d="M149.883 53.2093C150.227 53.8255 150.573 54.4409 150.916 55.0578C152.074 57.144 151.894 59.263 150.344 61.0981C149.194 62.4585 147.995 63.7775 146.814 65.1117C142.332 70.1729 137.849 75.2325 133.368 80.2933C133.229 80.4499 133.098 80.6142 132.969 80.7787C132.79 81.0092 132.768 81.2569 132.912 81.5115C133.144 81.9212 133.363 82.3388 133.62 82.7321C133.856 83.0909 134.001 83.1076 134.301 82.8008C134.777 82.3139 135.221 81.7958 135.684 81.2958C136.573 80.3316 136.838 80.3567 137.54 81.4619C137.583 81.5281 137.622 81.5962 137.661 81.6643C139.553 84.9177 141.422 88.1852 143.346 91.4189C144.777 93.8217 146.149 96.2596 147.6 98.6492C148.55 100.214 149.403 101.835 150.387 103.376C151.048 104.412 151.191 105.497 151.07 106.676C150.8 109.306 149.82 111.689 148.548 113.972C146.502 117.643 143.813 120.813 140.852 123.767C137.523 127.089 133.892 130.048 130.035 132.736C127.841 134.265 125.615 135.74 123.281 137.048C122.711 137.368 122.188 137.773 121.613 138.084C117.878 140.099 114.11 142.044 110.178 143.664C104.998 145.799 99.6922 147.49 94.1627 148.426C90.3727 149.068 86.5636 149.357 82.745 148.715C80.9311 148.41 79.1738 147.901 77.5674 146.96C76.7998 146.51 76.1956 145.939 75.827 145.113C74.8444 142.914 73.5295 140.888 72.4583 138.737C71.3051 136.419 69.9797 134.193 68.8235 131.879C67.9468 130.124 66.961 128.429 66.0659 126.686C64.92 124.454 63.6968 122.262 62.5493 120.032C61.3039 117.612 60.5522 115.029 60.5037 112.286C60.4486 109.138 61.4931 106.372 63.6383 104.061C67.0786 100.354 70.5553 96.6823 74.0129 92.9921C78.3485 88.3646 82.6848 83.7385 87.0079 79.1001C87.6477 78.4136 88.5105 78.0599 89.2202 77.4808C90.5666 76.3822 91.834 75.2147 92.7844 73.7445C93.1717 73.1461 93.4635 72.5077 93.5618 71.7905C93.7467 70.4418 93.1195 69.5066 91.7931 69.1679C91.3841 69.0632 90.9664 69.0154 90.5467 69.0415C88.8157 69.1474 87.2063 69.6659 85.7055 70.5255C85.1855 70.8233 84.9692 71.3036 85.0958 71.7621C85.2156 72.1957 85.7114 72.596 86.2233 72.593C86.631 72.5906 87.0013 72.5777 87.2647 72.9669C87.5689 73.4159 87.7691 73.8854 87.6589 74.4376C87.6232 74.6157 87.5855 74.8093 87.4883 74.9562C86.4684 76.5003 85.6083 77.2245 83.7089 77.1244C83.5269 77.1147 83.3465 77.0628 83.1635 77.0545C82.5842 77.0288 82.1981 77.2922 82.0215 77.8177C81.8527 78.32 82.0139 78.8293 82.4405 79.138C82.4827 79.1683 82.5286 79.1939 82.5734 79.221C83.2788 79.6399 83.2839 79.6442 82.6974 80.2713C76.0052 87.4299 69.3111 94.5869 62.6164 101.744C62.0621 102.337 61.5049 102.928 60.9419 103.513C59.1636 105.361 58.2625 107.608 57.8948 110.103C57.4753 112.948 57.5235 115.786 57.9864 118.621C58.1733 119.764 58.2856 119.741 57.0269 119.96C51.9934 120.837 46.9598 121.713 41.9258 122.588C41.2296 122.709 40.5432 122.883 39.8336 122.934C38.8231 123.005 37.8479 122.861 36.8994 122.52C35.9812 122.189 35.258 121.63 34.7694 120.766C34.0245 119.446 33.2787 118.128 32.4813 116.837C31.0301 114.489 31.0811 112.103 32.451 109.702C33.2523 108.297 34.3558 107.139 35.3899 105.925C40.5198 99.9009 45.6643 93.8886 50.807 87.8746C56.9201 80.726 63.0347 73.5785 69.1525 66.4336C70.2427 65.1602 71.2846 63.8455 72.471 62.6558C73.6397 61.4841 74.8703 60.383 76.2403 59.4555C77.4252 58.653 78.7975 58.2633 80.1471 57.836C82.4334 57.1116 84.8054 56.8308 87.1589 56.4588C94.4571 55.3069 101.757 54.1631 109.056 53.0178C115.734 51.9701 122.413 50.9254 129.091 49.8759C132.87 49.2821 136.647 48.6767 140.427 48.0888C142.046 47.8372 143.659 47.7938 145.248 48.3024C146.735 48.778 147.891 49.6542 148.663 51.0161C149.075 51.7443 149.48 52.4761 149.888 53.2066L149.881 53.2104L149.883 53.2093Z" fill="#222E58"></path><path d="M147.456 49.4863L113.766 86.792L135.272 128.908C137.242 127.305 139.136 125.612 140.941 123.812C143.902 120.857 146.591 117.687 148.637 114.016C149.909 111.734 150.889 109.35 151.159 106.72C151.28 105.541 151.137 104.456 150.476 103.421C149.492 101.88 148.639 100.258 147.689 98.6938C146.239 96.3039 144.866 93.8671 143.435 91.4635C141.511 88.2299 139.643 84.9619 137.75 81.7089C137.71 81.6412 137.671 81.5731 137.629 81.5065C136.927 80.4013 136.663 80.3765 135.772 81.3404C135.311 81.8411 134.866 82.3585 134.39 82.8454C134.09 83.1522 133.945 83.1355 133.709 82.7767C133.452 82.3841 133.233 81.9658 133.001 81.5561C132.857 81.3022 132.879 81.0539 133.058 80.8234C133.186 80.6581 133.318 80.4945 133.457 80.338C137.938 75.2767 142.422 70.2172 146.902 65.1563C148.083 63.8225 149.283 62.5032 150.432 61.1427C151.438 59.9523 151.867 58.6427 151.728 57.2997L148.016 50.0305C147.841 49.8346 147.654 49.6534 147.455 49.4867L147.456 49.4863Z" fill="url(#paint0_linear_321_4103)"></path><path d="M80.2399 57.8795C78.8903 58.3068 77.5179 58.6965 76.333 59.499C74.963 60.4265 73.7325 61.5276 72.5638 62.6993C71.3773 63.889 70.3348 65.2041 69.2453 66.477C63.1274 73.622 57.0125 80.7688 50.8997 87.9181C45.757 93.9321 40.6132 99.944 35.4826 105.968C34.4485 107.182 33.3451 108.34 32.5437 109.745C31.9876 110.72 31.6489 111.692 31.5397 112.66C43.1331 110.2 43.4833 110.804 58.6763 107.363C59.1863 105.967 59.9454 104.687 61.0343 103.556C61.5973 102.971 62.1538 102.38 62.7088 101.787C63.7465 100.678 64.7846 99.5674 65.8223 98.4581L82.2336 77.596C82.2836 77.5114 82.3419 77.4384 82.4073 77.3748L86.1455 72.6231C85.6978 72.5507 85.2935 72.1917 85.1872 71.8064C85.0606 71.3479 85.2769 70.8676 85.7969 70.5697C86.719 70.0418 87.6824 69.6425 88.69 69.3884L100.352 54.5639L98.8347 54.6797C94.9734 55.2862 91.1121 55.8926 87.251 56.5026C84.8971 56.874 82.5255 57.1555 80.2392 57.8799L80.2399 57.8795Z" fill="url(#paint1_linear_321_4103)"></path><path d="M86.6131 133.056C85.6627 133.527 84.5168 134.365 83.2924 135.073C81.9216 135.865 81.5754 135.757 80.6497 134.46C79.6613 133.077 78.7306 131.662 77.9139 130.168C75.5218 125.794 74.8693 121.162 75.7866 116.274C75.9865 115.21 76.3314 114.202 76.7127 113.198C77.4942 111.14 78.9373 109.617 80.6658 108.322C83.5384 106.169 86.8559 105.19 90.3387 104.658C91.0111 104.555 91.691 104.485 92.37 104.445C93.0245 104.405 93.6137 104.574 94.0366 105.134C95.0056 106.416 94.3635 108.014 92.7488 108.257C91.3246 108.472 89.8883 108.591 88.4849 108.948C86.4031 109.477 84.4576 110.307 82.7545 111.62C79.6958 113.978 78.602 117.173 78.9534 120.916C79.1811 123.341 79.9668 125.609 81.0948 127.758C81.5805 128.683 82.1061 129.588 82.6327 130.492C83.0365 131.185 83.1082 131.189 83.8018 130.839C84.7834 130.344 85.7653 129.847 86.7577 129.372C87.7969 128.875 88.6646 129.021 89.3347 129.767C89.4951 129.946 89.6116 130.144 89.6787 130.375C89.8591 130.997 89.7647 131.276 89.1889 131.612C88.4415 132.048 87.6806 132.459 86.6131 133.056Z" fill="#15204D"></path><path d="M115.483 117.117C114.797 117.501 114.115 117.891 113.423 118.266C112.792 118.607 112.663 118.583 112.227 118.049C109.805 115.082 108.484 111.679 108.229 107.861C108.077 105.583 108.319 103.35 109.3 101.268C110.141 99.4847 111.413 98.0352 113.117 96.9887C114.47 96.1575 115.883 95.4894 117.495 95.3656C118.999 95.2501 120.031 96.6391 119.469 98.0197C119.25 98.5592 118.862 98.9295 118.296 99.0943C118.095 99.1526 117.889 99.1967 117.683 99.2363C115.019 99.7557 113.316 101.45 112.308 103.841C110.988 106.972 111.206 110.127 112.472 113.23C112.769 113.959 112.946 114 113.652 113.607C114.064 113.376 114.475 113.146 114.881 112.907C115.398 112.603 115.961 112.512 116.545 112.537C117.455 112.576 118.171 113.165 118.351 114.003C118.542 114.892 118.231 115.547 117.388 116.022C116.749 116.381 116.108 116.737 115.469 117.094L115.482 117.116L115.483 117.117Z" fill="#15204D"></path><path d="M97.6128 126.948C93.8844 129.032 90.1561 131.116 86.4271 133.2C86.2672 133.29 86.1081 133.382 85.9462 133.468C85.0074 133.97 84.6112 133.899 83.8974 133.088C82.5208 131.523 81.4661 129.746 80.6222 127.857C79.4581 125.252 78.839 122.504 78.8502 119.638C78.8662 115.6 79.983 111.939 82.7728 108.914C85.5562 105.897 89.0633 104.543 93.1273 104.711C97.7254 104.903 101.51 106.94 104.755 110.078C107.008 112.258 108.594 114.884 109.754 117.777C109.898 118.14 109.989 118.524 110.097 118.901C110.256 119.455 110.047 119.876 109.593 120.189C109.356 120.352 109.101 120.488 108.85 120.629C105.099 122.726 101.348 124.823 97.596 126.92L97.6125 126.949L97.6128 126.948Z" fill="white"></path><path d="M124.379 112.137C121.658 113.658 118.937 115.179 116.215 116.7C116.032 116.802 115.851 116.909 115.665 117.005C114.875 117.41 114.536 117.358 113.965 116.659C110.986 113.015 109.657 108.872 110.382 104.176C110.883 100.938 112.491 98.3202 115.299 96.5716C117.397 95.2651 119.74 94.8918 122.18 95.2623C125.978 95.8393 128.912 97.8558 131.259 100.801C132.291 102.096 133.087 103.534 133.667 105.088C133.759 105.332 133.83 105.584 133.906 105.834C134.056 106.326 133.887 106.709 133.476 106.99C133.239 107.152 132.988 107.295 132.737 107.436C129.948 108.997 127.157 110.556 124.367 112.116L124.379 112.138L124.379 112.137Z" fill="white"></path><path d="M92.282 105.595C92.5106 105.467 92.7346 105.329 92.969 105.213C93.6677 104.868 94.3851 104.739 95.1739 104.887C97.8482 105.388 100.25 106.492 102.436 108.079C103.666 108.973 104.787 109.988 105.782 111.141C106.104 111.513 106.311 111.913 106.373 112.392C106.85 116.052 105.73 119.139 102.848 121.461C98.4873 124.973 92.1185 123.984 88.9588 119.388C85.6594 114.59 87.4881 108.153 92.282 105.595Z" fill="#0A0A3B"></path><path d="M127.079 108.683C123.811 110.566 119.251 109.629 117.158 105.878C115.001 102.014 116.818 97.7126 119.874 96.063C120.173 95.901 120.47 95.7324 120.777 95.5869C121.535 95.2268 122.3 95.1448 123.138 95.36C125.604 95.9935 127.723 97.2195 129.604 98.9072C130.281 99.5154 130.634 100.252 130.774 101.143C131.252 104.175 129.798 107.168 127.079 108.683Z" fill="#0A0A3B"></path><path d="M93.6212 108.509C93.6847 108.623 93.75 108.737 93.8122 108.851C94.1656 109.504 94.1518 109.596 93.6119 110.134C92.0147 111.727 91.612 113.617 92.1857 115.754C92.3171 116.244 92.5646 116.668 92.9104 117.035C93.2438 117.389 93.2687 117.771 93.0064 118.175C92.807 118.483 92.6196 118.799 92.398 119.089C92.0228 119.58 91.7004 119.609 91.2118 119.191C90.5871 118.657 90.1225 117.997 89.7966 117.244C88.5707 114.414 89.2402 110.696 91.371 108.471C91.6429 108.187 91.93 107.921 92.2766 107.725C92.8013 107.429 92.9807 107.468 93.3051 107.968C93.4182 108.143 93.5108 108.331 93.6126 108.513C93.6153 108.512 93.6188 108.51 93.6215 108.508L93.6212 108.509Z" fill="white"></path><path d="M118.492 104.651C117.601 102.868 117.586 101.094 118.578 99.3411C118.97 98.6483 119.296 98.575 119.981 98.99C120.293 99.1787 120.6 99.3796 120.884 99.6065C121.277 99.9214 121.296 100.084 121.07 100.549C121.048 100.596 121.018 100.639 120.992 100.685C120.402 101.732 120.461 102.759 121.213 103.673C121.615 104.161 121.626 104.588 121.358 105.098C121.249 105.305 121.157 105.523 121.046 105.729C120.629 106.499 120.301 106.565 119.646 106.02C119.179 105.633 118.826 105.151 118.492 104.651Z" fill="white"></path><path d="M62.4786 150.017C62.1629 150.203 62.1869 150.464 62.1492 150.682C61.9656 151.738 61.4586 152.648 60.8843 153.53C60.6523 153.887 60.3374 154.075 59.9044 154.079C59.1675 154.085 58.4387 154.005 57.7222 153.848C57.1966 153.733 57.159 153.616 57.414 153.152C59.3654 149.607 59.9767 145.778 59.8843 141.793C59.8694 141.149 59.6446 140.766 59.0548 140.444C56.719 139.168 55.9296 136.466 57.1887 134.105C57.4557 133.605 57.473 133.229 57.196 132.736C55.3945 129.516 54.2574 126.047 53.4686 122.46C52.9577 120.137 52.5121 117.797 52.381 115.414C52.2019 112.145 52.4621 108.934 53.7269 105.863C54.405 104.215 55.4618 102.826 56.6779 101.542C59.7953 98.2524 62.9083 94.9597 66.0239 91.6683C70.994 86.4175 75.9645 81.1674 80.9334 75.9145C81.9415 74.8488 82.9418 73.7757 83.9476 72.7076C84.7845 71.8193 85.0277 71.766 86.1521 72.1996C86.5241 72.343 86.8484 72.5589 87.1388 72.827C87.7494 73.3923 87.9438 74.193 87.6559 74.9739C87.4718 75.4731 87.1653 75.8933 86.8023 76.2804C81.4085 82.0322 76.0162 87.7849 70.6243 93.5384C67.2385 97.1507 63.8564 100.766 60.4659 104.375C59.5855 105.313 59.0228 106.414 58.6315 107.628C57.6066 110.805 57.4593 114.054 57.8877 117.327C58.316 120.597 58.946 123.83 60.0387 126.954C60.5475 128.409 61.1193 129.84 61.8957 131.181C62.0979 131.529 62.3168 131.811 62.7278 131.954C64.7753 132.662 66.064 134.503 65.8807 136.742C65.8383 137.262 65.998 137.566 66.388 137.857C67.9007 138.99 69.0214 140.484 69.9456 142.091C70.8453 143.654 71.4839 145.351 71.6985 147.173C71.7015 147.199 71.7033 147.225 71.7077 147.25C72.0264 149.142 71.3811 150.551 69.6725 151.506C68.4066 152.213 67.086 152.77 65.7105 153.207C65.2117 153.366 64.7041 153.504 64.1929 153.614C63.7636 153.707 63.6712 153.626 63.711 153.179C63.824 151.907 63.195 150.955 62.4771 150.016L62.4786 150.017Z" fill="url(#paint2_linear_321_4103)"></path><path d="M87.1533 72.8595C86.8632 72.5903 86.5393 72.3751 86.1666 72.2321C85.0422 71.7985 84.799 71.8518 83.9621 72.7401C82.9563 73.8082 81.9559 74.8812 80.9479 75.947C75.9793 81.1988 71.0081 86.4493 66.0383 91.7008C62.9228 94.9922 59.8101 98.2856 56.6924 101.575C56.3302 101.957 55.9819 102.349 55.6543 102.754C56.6236 102.73 57.5989 103.024 58.4453 103.473C59.0619 103.804 59.5504 104.26 59.9105 104.842C59.945 104.881 59.977 104.921 60.0102 104.96C60.1561 104.77 60.3118 104.586 60.4793 104.407C63.8691 100.799 67.2519 97.1828 70.6377 93.5705C76.0297 87.8171 81.422 82.0643 86.8157 76.3126C87.178 75.9259 87.4856 75.5059 87.6693 75.0061C87.9572 74.2252 87.7629 73.4245 87.1522 72.8592L87.1533 72.8595Z" fill="url(#paint3_linear_321_4103)"></path><path d="M63.5064 140.483C65.7812 139.211 66.5973 136.341 65.3292 134.072C64.0611 131.804 61.189 130.995 58.9142 132.267C56.6394 133.538 55.8233 136.408 57.0914 138.677C58.3594 140.946 61.2315 141.754 63.5064 140.483Z" fill="#9392E0"></path><path d="M86.6756 76.9694C85.5196 77.6416 84.352 78.2879 83.0459 78.6334C82.2318 78.8485 81.411 79 80.5637 78.9363C78.9961 78.8187 78.241 77.6549 78.8016 76.1851C79.2318 75.056 80.01 74.1627 80.8981 73.3788C82.7118 71.7783 84.7893 70.6449 87.134 70.0218C88.1576 69.7497 89.1957 69.6565 90.2444 69.8467C91.6227 70.0961 92.2281 71.1567 91.7308 72.4608C91.5146 73.0283 91.1823 73.5267 90.7807 73.9848C89.7444 75.166 88.4646 76.0162 87.0879 76.7399C86.9486 76.8132 86.8133 76.8934 86.6766 76.9697L86.6756 76.9694Z" fill="#9392E0"></path><path d="M84.2278 72.0226C84.5697 71.8315 84.8965 71.6021 85.257 71.4572C85.9517 71.1785 86.6973 71.4276 87.0457 72.0074C87.3952 72.5893 87.3073 73.4426 86.6427 73.8123C85.0852 74.6784 83.7938 75.9286 82.2167 76.7499C81.8474 76.9419 81.4529 77.0905 81.0607 77.2334C80.5933 77.403 80.3807 77.2837 80.2636 76.8002C80.1344 76.2676 80.2344 75.7616 80.5039 75.291C80.7649 74.836 81.0831 74.4237 81.4603 74.0556C82.2882 73.2478 83.2138 72.5714 84.2292 72.0218L84.2278 72.0226Z" fill="#D2D0F5"></path><path d="M63.0717 137.999C63.6688 139.063 63.5743 139.332 62.4032 139.751C60.209 140.537 58.2583 139.075 57.6877 137.171C57.5928 136.853 57.6699 136.602 57.9709 136.443C58.3879 136.223 58.8029 136 59.2287 135.798C59.5144 135.663 59.7289 135.747 59.8461 136.06C59.9825 136.425 60.0833 136.805 60.3597 137.106C60.7701 137.553 61.1401 137.651 61.6905 137.425C62.2603 137.192 62.695 137.337 62.9944 137.861C63.0201 137.907 63.0453 137.952 63.071 137.998L63.0717 137.999Z" fill="#D2D0F5"></path><path d="M88.8139 70.8608C89.4732 70.4816 90.263 70.6808 90.6561 71.3245C91.0664 71.9973 90.8555 72.8304 90.1756 73.2212C89.4965 73.6116 88.6615 73.3766 88.2906 72.6889C87.9332 72.027 88.1588 71.2378 88.8146 70.8604L88.8139 70.8608Z" fill="#D2D0F5"></path><path d="M96.2239 58.5937C99.9107 57.9894 102.843 57.5968 106.534 57.0296C109.744 56.5364 112.959 56.0714 116.171 55.595C116.278 55.579 116.385 55.5641 116.494 55.5583C116.746 55.5457 116.994 55.5688 117.114 55.8344C117.23 56.0945 117.098 56.3042 116.936 56.498C116.867 56.5807 116.792 56.6594 116.716 56.7361C115.857 57.6005 115.002 58.4675 114.138 59.3255C113.908 59.5534 113.651 59.7532 113.478 59.9029C113.023 60.1408 112.62 60.1974 112.219 60.2571C108.577 60.7945 104.936 61.3313 101.294 61.8663C99.0186 62.2009 95.2752 62.9265 92.9989 63.2545" fill="url(#paint4_linear_321_4103)"></path><path d="M99.1165 94.6102C98.4234 94.9338 97.6941 95.141 96.9514 95.3081C91.0469 96.6353 85.1472 97.9858 79.2348 99.2796C76.9776 99.7739 74.7965 100.514 72.5876 101.167C72.1834 101.287 71.7815 101.41 71.3545 101.352C70.7127 101.266 70.5041 100.939 70.6597 100.315C70.7994 99.7525 71.2042 99.3645 71.5623 98.9541C72.0619 98.3828 72.5937 97.8385 73.1205 97.2915C73.7152 96.6743 74.4245 96.2733 75.2643 96.051C81.726 94.3424 88.2921 93.0947 94.8022 91.6016C96.2431 91.2716 97.4949 90.6357 98.5281 89.5505C101.275 86.6664 103.909 83.6791 106.624 80.7653C107.946 79.3472 109.282 77.9428 110.602 76.5229C110.976 76.1195 111.405 75.8808 111.964 75.8337C113.086 75.7393 114.205 75.6114 115.325 75.4992C115.404 75.4912 115.482 75.4868 115.56 75.4891C115.793 75.4964 116.062 75.4578 116.197 75.6977C116.363 75.9948 116.114 76.1907 115.948 76.3777C114.071 78.4945 112.198 80.6156 110.303 82.7158C107.318 86.0214 104.319 89.314 101.319 92.6063C100.649 93.3419 99.968 94.0704 99.1154 94.6099L99.1165 94.6102Z" fill="url(#paint5_linear_321_4103)"></path><path d="M120.585 70.5244C120.283 70.6662 119.973 70.7244 119.661 70.7606C118.438 70.9039 117.215 71.0407 115.991 71.1757C115.835 71.1925 115.675 71.2032 115.521 71.182C115.204 71.1383 115.108 70.9636 115.265 70.6899C115.368 70.5111 115.514 70.3539 115.656 70.201C117.381 68.3349 119.119 66.4811 120.828 64.6009C121.294 64.0892 121.811 63.7711 122.501 63.6831C123.748 63.5245 124.991 63.3317 126.236 63.1546C126.365 63.1362 126.496 63.1131 126.626 63.1151C127.076 63.1216 127.209 63.3448 126.952 63.7047C126.756 63.9806 126.514 64.2246 126.283 64.4752C124.63 66.2659 122.976 68.0538 121.321 69.8426C121.09 70.092 120.874 70.3583 120.585 70.5244Z" fill="url(#paint6_linear_321_4103)"></path><path d="M125.275 125.724C124.394 126.204 123.472 126.559 122.475 126.706C121.956 126.782 121.435 126.821 120.913 126.774C120.606 126.747 120.241 126.794 120.078 126.461C119.898 126.091 120.165 125.816 120.384 125.557C122.474 123.079 124.566 120.604 126.658 118.127C127.18 117.508 127.691 116.879 128.23 116.273C128.792 115.64 129.279 115.744 129.526 116.548C129.954 117.942 129.852 119.327 129.42 120.707C128.736 122.891 127.104 124.691 125.274 125.724L125.275 125.724Z" fill="white"></path><path d="M59.8911 132.08C60.9973 131.641 60.9769 131.586 61.4554 131.655C61.7532 131.698 62.1079 131.823 62.1959 131.69C62.2839 131.558 62.0224 131.291 61.7367 130.869C61.5818 130.64 61.335 130.074 60.8408 128.944C60.5101 128.188 60.3471 127.809 60.251 127.566C59.6989 126.167 59.3966 124.977 59.1389 123.964C59.1115 123.856 59.0052 123.417 58.7933 122.54C58.4933 121.299 58.4485 121.101 58.4016 120.872C58.3143 120.45 58.2006 119.831 58.1089 119.059L57.985 117.87L57.7846 116.545L57.7227 115.95L57.6911 115.249L57.6438 114.197L57.6955 113L57.7168 111.91C57.7522 111.632 57.8048 111.229 57.8755 110.743C57.9087 110.513 57.968 110.109 58.0116 109.859C58.1243 109.212 58.2322 109.123 58.5585 107.935C58.6304 107.674 58.6502 107.589 58.7104 107.401C58.8613 106.931 59.0208 106.574 59.1211 106.363C59.5371 105.489 60.1314 104.761 60.3398 104.514L61.7499 103.007L85.5535 77.5715C85.1201 77.8793 84.4873 78.2591 83.6617 78.539C82.9748 78.772 82.3583 78.8668 81.8836 78.9039C67.3608 94.6662 61.594 100.566 59.5733 102.336C59.3749 102.51 58.7584 103.042 58.0946 103.882C57.0058 105.258 55.8545 107.377 55.4029 111.317C54.6348 118.011 56.6098 123.673 57.8763 127.186C58.5526 129.063 59.23 130.582 59.7301 131.631L59.8911 132.08Z" fill="url(#paint7_linear_321_4103)"></path><defs><linearGradient id="paint0_linear_321_4103" x1="116.309" y1="112.046" x2="169.062" y2="63.9909" gradientUnits="userSpaceOnUse"><stop offset="0.25" stop-color="#212D57"></stop><stop offset="0.47" stop-color="#09163F"></stop></linearGradient><linearGradient id="paint1_linear_321_4103" x1="60.314" y1="82.0333" x2="111.516" y2="96.5342" gradientUnits="userSpaceOnUse"><stop offset="0.16" stop-color="#404C74"></stop><stop offset="0.49" stop-color="#212D57"></stop></linearGradient><linearGradient id="paint2_linear_321_4103" x1="52.3183" y1="113.691" x2="89.0007" y2="112.529" gradientUnits="userSpaceOnUse"><stop offset="0.08" stop-color="#9292DF"></stop><stop offset="0.22" stop-color="#9292DF"></stop><stop offset="0.46" stop-color="#7070C0"></stop></linearGradient><linearGradient id="paint3_linear_321_4103" x1="41.6617" y1="97.8466" x2="104.436" y2="78.8337" gradientUnits="userSpaceOnUse"><stop offset="0.08" stop-color="#9292DF"></stop><stop offset="0.22" stop-color="#9292DF"></stop><stop offset="0.84" stop-color="#7070C0"></stop></linearGradient><linearGradient id="paint4_linear_321_4103" x1="96.1441" y1="60.6223" x2="121.41" y2="57.1071" gradientUnits="userSpaceOnUse"><stop stop-color="#212D57"></stop><stop offset="0.21" stop-color="#414D75"></stop><stop offset="0.59" stop-color="#4E5C82"></stop></linearGradient><linearGradient id="paint5_linear_321_4103" x1="69.3635" y1="91.7692" x2="117.533" y2="85.064" gradientUnits="userSpaceOnUse"><stop stop-color="#212D57"></stop><stop offset="0.21" stop-color="#414D75"></stop><stop offset="0.59" stop-color="#4E5C82"></stop></linearGradient><linearGradient id="paint6_linear_321_4103" x1="114.797" y1="68.1085" x2="127.494" y2="66.3413" gradientUnits="userSpaceOnUse"><stop stop-color="#212D57"></stop><stop offset="0.21" stop-color="#414D75"></stop><stop offset="0.59" stop-color="#4E5C82"></stop></linearGradient><linearGradient id="paint7_linear_321_4103" x1="52.9546" y1="104.605" x2="65.0384" y2="104.768" gradientUnits="userSpaceOnUse"><stop offset="0.21" stop-color="#9292DF"></stop><stop offset="0.43" stop-color="#9292DF"></stop><stop offset="0.86" stop-color="#7070C0"></stop></linearGradient></defs></svg> 