<?xml version="1.0" encoding="UTF-8"?> <svg xmlns="http://www.w3.org/2000/svg" width="254" height="25" viewBox="0 0 254 25" fill="none"><g clip-path="url(#clip0_321_5080)"><rect x="0.625" y="0.75" width="253.125" height="23.75" rx="6.25" fill="#FFF5EA"></rect><line x1="3.4375" y1="21.375" x2="3.4375" y2="27.625" stroke="#F7941D" stroke-opacity="0.5" stroke-width="0.625"></line><line x1="6.5625" y1="21.375" x2="6.5625" y2="27.625" stroke="#F7941D" stroke-opacity="0.5" stroke-width="0.625"></line><line x1="9.6875" y1="21.375" x2="9.6875" y2="27.625" stroke="#F7941D" stroke-opacity="0.5" stroke-width="0.625"></line><line x1="12.8125" y1="21.375" x2="12.8125" y2="27.625" stroke="#F7941D" stroke-opacity="0.5" stroke-width="0.625"></line><line x1="15.9375" y1="18.25" x2="15.9375" y2="30.75" stroke="#F7941D" stroke-opacity="0.5" stroke-width="0.625"></line><line x1="19.0625" y1="21.375" x2="19.0625" y2="27.625" stroke="#F7941D" stroke-opacity="0.5" stroke-width="0.625"></line><line x1="22.1875" y1="21.375" x2="22.1875" y2="27.625" stroke="#F7941D" stroke-opacity="0.5" stroke-width="0.625"></line><line x1="25.3125" y1="21.375" x2="25.3125" y2="27.625" stroke="#F7941D" stroke-opacity="0.5" stroke-width="0.625"></line><line x1="28.4375" y1="21.375" x2="28.4375" y2="27.625" stroke="#F7941D" stroke-opacity="0.5" stroke-width="0.625"></line><line x1="31.5625" y1="18.25" x2="31.5625" y2="30.75" stroke="#F7941D" stroke-opacity="0.5" stroke-width="0.625"></line><line x1="34.6875" y1="21.375" x2="34.6875" y2="27.625" stroke="#F7941D" stroke-opacity="0.5" stroke-width="0.625"></line><line x1="37.8125" y1="21.375" x2="37.8125" y2="27.625" stroke="#F7941D" stroke-opacity="0.5" stroke-width="0.625"></line><line x1="40.9375" y1="21.375" x2="40.9375" y2="27.625" stroke="#F7941D" stroke-opacity="0.5" stroke-width="0.625"></line><line x1="44.0625" y1="21.375" x2="44.0625" y2="27.625" stroke="#F7941D" stroke-opacity="0.5" stroke-width="0.625"></line><line x1="47.1875" y1="18.25" x2="47.1875" y2="30.75" stroke="#F7941D" stroke-opacity="0.5" stroke-width="0.625"></line><line x1="50.3125" y1="21.375" x2="50.3125" y2="27.625" stroke="#F7941D" stroke-opacity="0.5" stroke-width="0.625"></line><line x1="53.4375" y1="21.375" x2="53.4375" y2="27.625" stroke="#F7941D" stroke-opacity="0.5" stroke-width="0.625"></line><line x1="56.5625" y1="21.375" x2="56.5625" y2="27.625" stroke="#F7941D" stroke-opacity="0.5" stroke-width="0.625"></line><line x1="59.6875" y1="21.375" x2="59.6875" y2="27.625" stroke="#F7941D" stroke-opacity="0.5" stroke-width="0.625"></line><line x1="62.8125" y1="18.25" x2="62.8125" y2="30.75" stroke="#F7941D" stroke-opacity="0.5" stroke-width="0.625"></line><line x1="65.9375" y1="21.375" x2="65.9375" y2="27.625" stroke="#F7941D" stroke-opacity="0.5" stroke-width="0.625"></line><line x1="69.0625" y1="21.375" x2="69.0625" y2="27.625" stroke="#F7941D" stroke-opacity="0.5" stroke-width="0.625"></line><line x1="72.1875" y1="21.375" x2="72.1875" y2="27.625" stroke="#F7941D" stroke-opacity="0.5" stroke-width="0.625"></line><line x1="75.3125" y1="21.375" x2="75.3125" y2="27.625" stroke="#F7941D" stroke-opacity="0.5" stroke-width="0.625"></line><line x1="78.4375" y1="18.25" x2="78.4375" y2="30.75" stroke="#F7941D" stroke-opacity="0.5" stroke-width="0.625"></line><line x1="81.5625" y1="21.375" x2="81.5625" y2="27.625" stroke="#F7941D" stroke-opacity="0.5" stroke-width="0.625"></line><line x1="84.6875" y1="21.375" x2="84.6875" y2="27.625" stroke="#F7941D" stroke-opacity="0.5" stroke-width="0.625"></line><line x1="87.8125" y1="21.375" x2="87.8125" y2="27.625" stroke="#F7941D" stroke-opacity="0.5" stroke-width="0.625"></line><line x1="90.9375" y1="21.375" x2="90.9375" y2="27.625" stroke="#F7941D" stroke-opacity="0.5" stroke-width="0.625"></line><line x1="94.0625" y1="18.25" x2="94.0625" y2="30.75" stroke="#F7941D" stroke-opacity="0.5" stroke-width="0.625"></line><line x1="97.1875" y1="21.375" x2="97.1875" y2="27.625" stroke="#F7941D" stroke-opacity="0.5" stroke-width="0.625"></line><line x1="100.312" y1="21.375" x2="100.312" y2="27.625" stroke="#F7941D" stroke-opacity="0.5" stroke-width="0.625"></line><line x1="103.438" y1="21.375" x2="103.438" y2="27.625" stroke="#F7941D" stroke-opacity="0.5" stroke-width="0.625"></line><line x1="106.562" y1="21.375" x2="106.562" y2="27.625" stroke="#F7941D" stroke-opacity="0.5" stroke-width="0.625"></line><line x1="109.688" y1="18.25" x2="109.688" y2="30.75" stroke="#F7941D" stroke-opacity="0.5" stroke-width="0.625"></line><line x1="112.812" y1="21.375" x2="112.812" y2="27.625" stroke="#F7941D" stroke-opacity="0.5" stroke-width="0.625"></line><line x1="115.938" y1="21.375" x2="115.938" y2="27.625" stroke="#F7941D" stroke-opacity="0.5" stroke-width="0.625"></line><line x1="119.062" y1="21.375" x2="119.062" y2="27.625" stroke="#F7941D" stroke-opacity="0.5" stroke-width="0.625"></line><line x1="122.188" y1="21.375" x2="122.188" y2="27.625" stroke="#F7941D" stroke-opacity="0.5" stroke-width="0.625"></line><line x1="125.312" y1="18.25" x2="125.312" y2="30.75" stroke="#F7941D" stroke-opacity="0.5" stroke-width="0.625"></line><line x1="128.438" y1="21.375" x2="128.438" y2="27.625" stroke="#F7941D" stroke-opacity="0.5" stroke-width="0.625"></line><line x1="131.562" y1="21.375" x2="131.562" y2="27.625" stroke="#F7941D" stroke-opacity="0.5" stroke-width="0.625"></line><line x1="134.688" y1="21.375" x2="134.688" y2="27.625" stroke="#F7941D" stroke-opacity="0.5" stroke-width="0.625"></line><line x1="137.812" y1="21.375" x2="137.812" y2="27.625" stroke="#F7941D" stroke-opacity="0.5" stroke-width="0.625"></line><line x1="140.938" y1="18.25" x2="140.938" y2="30.75" stroke="#F7941D" stroke-opacity="0.5" stroke-width="0.625"></line><line x1="144.062" y1="21.375" x2="144.062" y2="27.625" stroke="#F7941D" stroke-opacity="0.5" stroke-width="0.625"></line><line x1="147.188" y1="21.375" x2="147.188" y2="27.625" stroke="#F7941D" stroke-opacity="0.5" stroke-width="0.625"></line><line x1="150.312" y1="21.375" x2="150.312" y2="27.625" stroke="#F7941D" stroke-opacity="0.5" stroke-width="0.625"></line><line x1="153.438" y1="21.375" x2="153.438" y2="27.625" stroke="#F7941D" stroke-opacity="0.5" stroke-width="0.625"></line><line x1="156.562" y1="18.25" x2="156.562" y2="30.75" stroke="#F7941D" stroke-opacity="0.5" stroke-width="0.625"></line><line x1="159.688" y1="21.375" x2="159.688" y2="27.625" stroke="#F7941D" stroke-opacity="0.5" stroke-width="0.625"></line><line x1="162.812" y1="21.375" x2="162.812" y2="27.625" stroke="#F7941D" stroke-opacity="0.5" stroke-width="0.625"></line><line x1="165.938" y1="21.375" x2="165.938" y2="27.625" stroke="#F7941D" stroke-opacity="0.5" stroke-width="0.625"></line><line x1="169.062" y1="21.375" x2="169.062" y2="27.625" stroke="#F7941D" stroke-opacity="0.5" stroke-width="0.625"></line><line x1="172.188" y1="18.25" x2="172.188" y2="30.75" stroke="#F7941D" stroke-opacity="0.5" stroke-width="0.625"></line><line x1="175.312" y1="21.375" x2="175.312" y2="27.625" stroke="#F7941D" stroke-opacity="0.5" stroke-width="0.625"></line><line x1="178.438" y1="21.375" x2="178.438" y2="27.625" stroke="#F7941D" stroke-opacity="0.5" stroke-width="0.625"></line><line x1="181.562" y1="21.375" x2="181.562" y2="27.625" stroke="#F7941D" stroke-opacity="0.5" stroke-width="0.625"></line><line x1="184.688" y1="21.375" x2="184.688" y2="27.625" stroke="#F7941D" stroke-opacity="0.5" stroke-width="0.625"></line><line x1="187.812" y1="18.25" x2="187.812" y2="30.75" stroke="#F7941D" stroke-opacity="0.5" stroke-width="0.625"></line><line x1="190.938" y1="21.375" x2="190.938" y2="27.625" stroke="#F7941D" stroke-opacity="0.5" stroke-width="0.625"></line><line x1="194.062" y1="21.375" x2="194.062" y2="27.625" stroke="#F7941D" stroke-opacity="0.5" stroke-width="0.625"></line><line x1="197.188" y1="21.375" x2="197.188" y2="27.625" stroke="#F7941D" stroke-opacity="0.5" stroke-width="0.625"></line><line x1="200.312" y1="21.375" x2="200.312" y2="27.625" stroke="#F7941D" stroke-opacity="0.5" stroke-width="0.625"></line><line x1="203.438" y1="18.25" x2="203.438" y2="30.75" stroke="#F7941D" stroke-opacity="0.5" stroke-width="0.625"></line><line x1="206.562" y1="21.375" x2="206.562" y2="27.625" stroke="#F7941D" stroke-opacity="0.5" stroke-width="0.625"></line><line x1="209.688" y1="21.375" x2="209.688" y2="27.625" stroke="#F7941D" stroke-opacity="0.5" stroke-width="0.625"></line><line x1="212.812" y1="21.375" x2="212.812" y2="27.625" stroke="#F7941D" stroke-opacity="0.5" stroke-width="0.625"></line><line x1="215.938" y1="21.375" x2="215.938" y2="27.625" stroke="#F7941D" stroke-opacity="0.5" stroke-width="0.625"></line><line x1="219.062" y1="18.25" x2="219.062" y2="30.75" stroke="#F7941D" stroke-opacity="0.5" stroke-width="0.625"></line><line x1="222.188" y1="21.375" x2="222.188" y2="27.625" stroke="#F7941D" stroke-opacity="0.5" stroke-width="0.625"></line><line x1="225.312" y1="21.375" x2="225.312" y2="27.625" stroke="#F7941D" stroke-opacity="0.5" stroke-width="0.625"></line><line x1="228.438" y1="21.375" x2="228.438" y2="27.625" stroke="#F7941D" stroke-opacity="0.5" stroke-width="0.625"></line><line x1="231.562" y1="21.375" x2="231.562" y2="27.625" stroke="#F7941D" stroke-opacity="0.5" stroke-width="0.625"></line><line x1="234.688" y1="18.25" x2="234.688" y2="30.75" stroke="#F7941D" stroke-opacity="0.5" stroke-width="0.625"></line><line x1="237.812" y1="21.375" x2="237.812" y2="27.625" stroke="#F7941D" stroke-opacity="0.5" stroke-width="0.625"></line><line x1="240.938" y1="21.375" x2="240.938" y2="27.625" stroke="#F7941D" stroke-opacity="0.5" stroke-width="0.625"></line><line x1="244.062" y1="21.375" x2="244.062" y2="27.625" stroke="#F7941D" stroke-opacity="0.5" stroke-width="0.625"></line><line x1="247.188" y1="21.375" x2="247.188" y2="27.625" stroke="#F7941D" stroke-opacity="0.5" stroke-width="0.625"></line><line x1="250.312" y1="18.25" x2="250.312" y2="30.75" stroke="#F7941D" stroke-opacity="0.5" stroke-width="0.625"></line><line x1="253.438" y1="21.375" x2="253.438" y2="27.625" stroke="#F7941D" stroke-opacity="0.5" stroke-width="0.625"></line><path d="M137.552 5.54159C137.552 6.51959 136.759 7.31242 135.781 7.31242C134.803 7.31242 134.011 6.51959 134.011 5.54159C134.011 4.56358 134.803 3.77075 135.781 3.77075C136.759 3.77075 137.552 4.56358 137.552 5.54159Z" fill="#F7941D"></path><path fill-rule="evenodd" clip-rule="evenodd" d="M133.268 8.29965L133.81 8.83874C134.615 9.63886 134.895 9.90082 135.232 10.0396C135.569 10.1784 135.952 10.1901 137.087 10.1901H138.88C139.247 10.1901 139.544 10.4874 139.544 10.8542C139.544 11.2209 139.247 11.5182 138.88 11.5182H137.087C137.044 11.5182 137.003 11.5182 136.961 11.5182C136.002 11.5188 135.336 11.519 134.726 11.2675C134.116 11.0158 133.643 10.5458 132.963 9.86941C132.934 9.84025 132.904 9.8107 132.874 9.78076L132.363 9.27273C132.001 8.91307 131.779 8.69486 131.601 8.56178C131.518 8.5001 131.47 8.47687 131.448 8.4684C131.443 8.46664 131.44 8.46564 131.437 8.46509C131.436 8.466 131.432 8.46758 131.428 8.47016C131.407 8.48259 131.365 8.51408 131.294 8.58969C131.143 8.75282 130.964 9.00754 130.673 9.42667L129.587 10.9914C129.291 11.418 129.111 11.6798 129.01 11.8826C128.963 11.9767 128.948 12.0288 128.944 12.0531C128.943 12.0578 128.942 12.0611 128.942 12.0633C128.943 12.065 128.946 12.0676 128.949 12.0712C128.965 12.0895 129.005 12.1262 129.095 12.1815C129.288 12.3008 129.578 12.4292 130.054 12.637L131.396 13.2226C131.97 13.4728 132.453 13.6837 132.825 13.9019C133.221 14.1336 133.555 14.4085 133.78 14.8186C134.004 15.2287 134.055 15.6583 134.037 16.1164C134.02 16.5477 133.936 17.0685 133.838 17.6865L133.781 18.0422C133.723 18.4044 133.383 18.6511 133.021 18.5932C132.658 18.5354 132.412 18.195 132.469 17.8328L132.52 17.5154C132.627 16.849 132.696 16.4066 132.71 16.0635C132.723 15.7381 132.681 15.577 132.614 15.4559C132.548 15.3349 132.435 15.2125 132.154 15.0479C131.858 14.8743 131.448 14.6942 130.829 14.4243L129.523 13.8542C129.509 13.8483 129.495 13.8423 129.482 13.8364C129.06 13.6523 128.68 13.4866 128.396 13.3114C128.088 13.1209 127.786 12.8555 127.664 12.4257C127.542 11.9959 127.66 11.6113 127.823 11.2874C127.972 10.9894 128.208 10.6489 128.471 10.2707C128.479 10.2586 128.488 10.2464 128.496 10.2341L129.582 8.66938C129.591 8.65728 129.599 8.64522 129.607 8.63319C129.865 8.26194 130.097 7.92707 130.321 7.68622C130.564 7.42406 130.878 7.182 131.317 7.14204C131.755 7.10207 132.108 7.28338 132.395 7.49724C132.658 7.69371 132.947 7.98108 133.268 8.29965Z" fill="#F7941D"></path><path fill-rule="evenodd" clip-rule="evenodd" d="M138.438 14.6172C136.604 14.6172 135.117 16.1037 135.117 17.9375C135.117 19.7713 136.604 21.2578 138.438 21.2578C140.271 21.2578 141.758 19.7713 141.758 17.9375C141.758 16.1037 140.271 14.6172 138.438 14.6172ZM138.438 15.9453C137.337 15.9453 136.445 16.8373 136.445 17.9375C136.445 19.0377 137.337 19.9297 138.438 19.9297C139.538 19.9297 140.43 19.0377 140.43 17.9375C140.43 16.8373 139.538 15.9453 138.438 15.9453Z" fill="#FFCA8A"></path><path fill-rule="evenodd" clip-rule="evenodd" d="M127.812 14.6172C125.979 14.6172 124.492 16.1037 124.492 17.9375C124.492 19.7713 125.979 21.2578 127.812 21.2578C129.646 21.2578 131.133 19.7713 131.133 17.9375C131.133 16.1037 129.646 14.6172 127.812 14.6172ZM127.812 15.9453C126.712 15.9453 125.82 16.8373 125.82 17.9375C125.82 19.0377 126.712 19.9297 127.812 19.9297C128.913 19.9297 129.805 19.0377 129.805 17.9375C129.805 16.8373 128.913 15.9453 127.812 15.9453Z" fill="#FFCA8A"></path></g><defs><clipPath id="clip0_321_5080"><rect x="0.625" y="0.75" width="253.125" height="23.75" rx="6.25" fill="white"></rect></clipPath></defs></svg> 