<?xml version="1.0" encoding="UTF-8"?> <svg xmlns="http://www.w3.org/2000/svg" width="254" height="25" viewBox="0 0 254 25" fill="none"><g clip-path="url(#clip0_321_4863)"><rect y="0.75" width="253.125" height="23.75" rx="6.25" fill="url(#paint0_linear_321_4863)"></rect><line x1="2.8125" y1="21.375" x2="2.8125" y2="27.625" stroke="#6A64A8" stroke-opacity="0.3" stroke-width="0.625"></line><line x1="5.9375" y1="21.375" x2="5.9375" y2="27.625" stroke="#6A64A8" stroke-opacity="0.3" stroke-width="0.625"></line><line x1="9.0625" y1="21.375" x2="9.0625" y2="27.625" stroke="#6A64A8" stroke-opacity="0.3" stroke-width="0.625"></line><line x1="12.1875" y1="21.375" x2="12.1875" y2="27.625" stroke="#6A64A8" stroke-opacity="0.3" stroke-width="0.625"></line><line x1="15.3125" y1="18.25" x2="15.3125" y2="30.75" stroke="#6A64A8" stroke-opacity="0.3" stroke-width="0.625"></line><line x1="18.4375" y1="21.375" x2="18.4375" y2="27.625" stroke="#6A64A8" stroke-opacity="0.3" stroke-width="0.625"></line><line x1="21.5625" y1="21.375" x2="21.5625" y2="27.625" stroke="#6A64A8" stroke-opacity="0.3" stroke-width="0.625"></line><line x1="24.6875" y1="21.375" x2="24.6875" y2="27.625" stroke="#6A64A8" stroke-opacity="0.3" stroke-width="0.625"></line><line x1="27.8125" y1="21.375" x2="27.8125" y2="27.625" stroke="#6A64A8" stroke-opacity="0.3" stroke-width="0.625"></line><line x1="30.9375" y1="18.25" x2="30.9375" y2="30.75" stroke="#6A64A8" stroke-opacity="0.3" stroke-width="0.625"></line><line x1="34.0625" y1="21.375" x2="34.0625" y2="27.625" stroke="#6A64A8" stroke-opacity="0.3" stroke-width="0.625"></line><line x1="37.1875" y1="21.375" x2="37.1875" y2="27.625" stroke="#6A64A8" stroke-opacity="0.3" stroke-width="0.625"></line><line x1="40.3125" y1="21.375" x2="40.3125" y2="27.625" stroke="#6A64A8" stroke-opacity="0.3" stroke-width="0.625"></line><line x1="43.4375" y1="21.375" x2="43.4375" y2="27.625" stroke="#6A64A8" stroke-opacity="0.3" stroke-width="0.625"></line><line x1="46.5625" y1="18.25" x2="46.5625" y2="30.75" stroke="#6A64A8" stroke-opacity="0.3" stroke-width="0.625"></line><line x1="49.6875" y1="21.375" x2="49.6875" y2="27.625" stroke="#6A64A8" stroke-opacity="0.3" stroke-width="0.625"></line><line x1="52.8125" y1="21.375" x2="52.8125" y2="27.625" stroke="#6A64A8" stroke-opacity="0.3" stroke-width="0.625"></line><line x1="55.9375" y1="21.375" x2="55.9375" y2="27.625" stroke="#6A64A8" stroke-opacity="0.3" stroke-width="0.625"></line><line x1="59.0625" y1="21.375" x2="59.0625" y2="27.625" stroke="#6A64A8" stroke-opacity="0.3" stroke-width="0.625"></line><line x1="62.1875" y1="18.25" x2="62.1875" y2="30.75" stroke="#6A64A8" stroke-opacity="0.3" stroke-width="0.625"></line><line x1="65.3125" y1="21.375" x2="65.3125" y2="27.625" stroke="#6A64A8" stroke-opacity="0.3" stroke-width="0.625"></line><line x1="68.4375" y1="21.375" x2="68.4375" y2="27.625" stroke="#6A64A8" stroke-opacity="0.3" stroke-width="0.625"></line><line x1="71.5625" y1="21.375" x2="71.5625" y2="27.625" stroke="#6A64A8" stroke-opacity="0.3" stroke-width="0.625"></line><line x1="74.6875" y1="21.375" x2="74.6875" y2="27.625" stroke="#6A64A8" stroke-opacity="0.3" stroke-width="0.625"></line><line x1="77.8125" y1="18.25" x2="77.8125" y2="30.75" stroke="#6A64A8" stroke-opacity="0.3" stroke-width="0.625"></line><line x1="80.9375" y1="21.375" x2="80.9375" y2="27.625" stroke="#6A64A8" stroke-opacity="0.3" stroke-width="0.625"></line><line x1="84.0625" y1="21.375" x2="84.0625" y2="27.625" stroke="#6A64A8" stroke-opacity="0.3" stroke-width="0.625"></line><line x1="87.1875" y1="21.375" x2="87.1875" y2="27.625" stroke="#6A64A8" stroke-opacity="0.3" stroke-width="0.625"></line><line x1="90.3125" y1="21.375" x2="90.3125" y2="27.625" stroke="#6A64A8" stroke-opacity="0.3" stroke-width="0.625"></line><line x1="93.4375" y1="18.25" x2="93.4375" y2="30.75" stroke="#6A64A8" stroke-opacity="0.3" stroke-width="0.625"></line><line x1="96.5625" y1="21.375" x2="96.5625" y2="27.625" stroke="#6A64A8" stroke-opacity="0.3" stroke-width="0.625"></line><line x1="99.6875" y1="21.375" x2="99.6875" y2="27.625" stroke="#6A64A8" stroke-opacity="0.3" stroke-width="0.625"></line><line x1="102.812" y1="21.375" x2="102.812" y2="27.625" stroke="#6A64A8" stroke-opacity="0.3" stroke-width="0.625"></line><line x1="105.938" y1="21.375" x2="105.938" y2="27.625" stroke="#6A64A8" stroke-opacity="0.3" stroke-width="0.625"></line><line x1="109.062" y1="18.25" x2="109.062" y2="30.75" stroke="#6A64A8" stroke-opacity="0.3" stroke-width="0.625"></line><line x1="112.188" y1="21.375" x2="112.188" y2="27.625" stroke="#6A64A8" stroke-opacity="0.3" stroke-width="0.625"></line><line x1="115.312" y1="21.375" x2="115.312" y2="27.625" stroke="#6A64A8" stroke-opacity="0.3" stroke-width="0.625"></line><line x1="118.438" y1="21.375" x2="118.438" y2="27.625" stroke="#6A64A8" stroke-opacity="0.3" stroke-width="0.625"></line><line x1="121.562" y1="21.375" x2="121.562" y2="27.625" stroke="#6A64A8" stroke-opacity="0.3" stroke-width="0.625"></line><line x1="124.688" y1="18.25" x2="124.688" y2="30.75" stroke="#6A64A8" stroke-opacity="0.3" stroke-width="0.625"></line><line x1="127.812" y1="21.375" x2="127.812" y2="27.625" stroke="#6A64A8" stroke-opacity="0.3" stroke-width="0.625"></line><line x1="130.938" y1="21.375" x2="130.938" y2="27.625" stroke="#6A64A8" stroke-opacity="0.3" stroke-width="0.625"></line><line x1="134.062" y1="21.375" x2="134.062" y2="27.625" stroke="#6A64A8" stroke-opacity="0.3" stroke-width="0.625"></line><line x1="137.188" y1="21.375" x2="137.188" y2="27.625" stroke="#6A64A8" stroke-opacity="0.3" stroke-width="0.625"></line><line x1="140.312" y1="18.25" x2="140.312" y2="30.75" stroke="#6A64A8" stroke-opacity="0.3" stroke-width="0.625"></line><line x1="143.438" y1="21.375" x2="143.438" y2="27.625" stroke="#6A64A8" stroke-opacity="0.3" stroke-width="0.625"></line><line x1="146.562" y1="21.375" x2="146.562" y2="27.625" stroke="#6A64A8" stroke-opacity="0.3" stroke-width="0.625"></line><line x1="149.688" y1="21.375" x2="149.688" y2="27.625" stroke="#6A64A8" stroke-opacity="0.3" stroke-width="0.625"></line><line x1="152.812" y1="21.375" x2="152.812" y2="27.625" stroke="#6A64A8" stroke-opacity="0.3" stroke-width="0.625"></line><line x1="155.938" y1="18.25" x2="155.938" y2="30.75" stroke="#6A64A8" stroke-opacity="0.3" stroke-width="0.625"></line><line x1="159.062" y1="21.375" x2="159.062" y2="27.625" stroke="#6A64A8" stroke-opacity="0.3" stroke-width="0.625"></line><line x1="162.188" y1="21.375" x2="162.188" y2="27.625" stroke="#6A64A8" stroke-opacity="0.3" stroke-width="0.625"></line><line x1="165.312" y1="21.375" x2="165.312" y2="27.625" stroke="#6A64A8" stroke-opacity="0.3" stroke-width="0.625"></line><line x1="168.438" y1="21.375" x2="168.438" y2="27.625" stroke="#6A64A8" stroke-opacity="0.3" stroke-width="0.625"></line><line x1="171.562" y1="18.25" x2="171.562" y2="30.75" stroke="#6A64A8" stroke-opacity="0.3" stroke-width="0.625"></line><line x1="174.688" y1="21.375" x2="174.688" y2="27.625" stroke="#6A64A8" stroke-opacity="0.3" stroke-width="0.625"></line><line x1="177.812" y1="21.375" x2="177.812" y2="27.625" stroke="#6A64A8" stroke-opacity="0.3" stroke-width="0.625"></line><line x1="180.938" y1="21.375" x2="180.938" y2="27.625" stroke="#6A64A8" stroke-opacity="0.3" stroke-width="0.625"></line><line x1="184.062" y1="21.375" x2="184.062" y2="27.625" stroke="#6A64A8" stroke-opacity="0.3" stroke-width="0.625"></line><line x1="187.188" y1="18.25" x2="187.188" y2="30.75" stroke="#6A64A8" stroke-opacity="0.3" stroke-width="0.625"></line><line x1="190.312" y1="21.375" x2="190.312" y2="27.625" stroke="#6A64A8" stroke-opacity="0.3" stroke-width="0.625"></line><line x1="193.438" y1="21.375" x2="193.438" y2="27.625" stroke="#6A64A8" stroke-opacity="0.3" stroke-width="0.625"></line><line x1="196.562" y1="21.375" x2="196.562" y2="27.625" stroke="#6A64A8" stroke-opacity="0.3" stroke-width="0.625"></line><line x1="199.688" y1="21.375" x2="199.688" y2="27.625" stroke="#6A64A8" stroke-opacity="0.3" stroke-width="0.625"></line><line x1="202.812" y1="18.25" x2="202.812" y2="30.75" stroke="#6A64A8" stroke-opacity="0.3" stroke-width="0.625"></line><line x1="205.938" y1="21.375" x2="205.938" y2="27.625" stroke="#6A64A8" stroke-opacity="0.3" stroke-width="0.625"></line><line x1="209.062" y1="21.375" x2="209.062" y2="27.625" stroke="#6A64A8" stroke-opacity="0.3" stroke-width="0.625"></line><line x1="212.188" y1="21.375" x2="212.188" y2="27.625" stroke="#6A64A8" stroke-opacity="0.3" stroke-width="0.625"></line><line x1="215.312" y1="21.375" x2="215.312" y2="27.625" stroke="#6A64A8" stroke-opacity="0.3" stroke-width="0.625"></line><line x1="218.438" y1="18.25" x2="218.438" y2="30.75" stroke="#6A64A8" stroke-opacity="0.3" stroke-width="0.625"></line><line x1="221.562" y1="21.375" x2="221.562" y2="27.625" stroke="#6A64A8" stroke-opacity="0.3" stroke-width="0.625"></line><line x1="224.688" y1="21.375" x2="224.688" y2="27.625" stroke="#6A64A8" stroke-opacity="0.3" stroke-width="0.625"></line><line x1="227.812" y1="21.375" x2="227.812" y2="27.625" stroke="#6A64A8" stroke-opacity="0.3" stroke-width="0.625"></line><line x1="230.938" y1="21.375" x2="230.938" y2="27.625" stroke="#6A64A8" stroke-opacity="0.3" stroke-width="0.625"></line><line x1="234.062" y1="18.25" x2="234.062" y2="30.75" stroke="#6A64A8" stroke-opacity="0.3" stroke-width="0.625"></line><line x1="237.188" y1="21.375" x2="237.188" y2="27.625" stroke="#6A64A8" stroke-opacity="0.3" stroke-width="0.625"></line><line x1="240.312" y1="21.375" x2="240.312" y2="27.625" stroke="#6A64A8" stroke-opacity="0.3" stroke-width="0.625"></line><line x1="243.438" y1="21.375" x2="243.438" y2="27.625" stroke="#6A64A8" stroke-opacity="0.3" stroke-width="0.625"></line><line x1="246.562" y1="21.375" x2="246.562" y2="27.625" stroke="#6A64A8" stroke-opacity="0.3" stroke-width="0.625"></line><line x1="249.688" y1="18.25" x2="249.688" y2="30.75" stroke="#6A64A8" stroke-opacity="0.3" stroke-width="0.625"></line><line x1="252.812" y1="21.375" x2="252.812" y2="27.625" stroke="#6A64A8" stroke-opacity="0.3" stroke-width="0.625"></line><path d="M128.464 5.98429C128.464 7.2068 127.473 8.19784 126.25 8.19784C125.028 8.19784 124.036 7.2068 124.036 5.98429C124.036 4.76179 125.028 3.77075 126.25 3.77075C127.473 3.77075 128.464 4.76179 128.464 5.98429Z" fill="#564F91"></path><path fill-rule="evenodd" clip-rule="evenodd" d="M123.505 15.7683C123.725 15.4749 124.141 15.4155 124.435 15.6355C124.728 15.8556 124.788 16.2718 124.568 16.5652L123.749 17.6567C123.743 17.6654 123.736 17.6739 123.73 17.6824C123.618 17.8317 123.53 17.9491 123.428 18.0552C123.179 18.316 122.874 18.5182 122.537 18.6469C122.4 18.6993 122.258 18.7348 122.077 18.78C122.066 18.7826 122.056 18.7852 122.045 18.7878L120.458 19.1848C120.089 19.2769 119.831 19.608 119.831 19.9876C119.831 20.4447 120.201 20.8152 120.658 20.8152H121.264C122.632 20.8152 123.964 20.3713 125.059 19.5501L126.737 18.2918C127.03 18.0718 127.447 18.1312 127.667 18.4246C127.887 18.718 127.827 19.1343 127.534 19.3543L126.733 19.955L127.168 20.1183C127.641 20.2956 127.854 20.3753 128.068 20.4423C128.713 20.6438 129.38 20.7648 130.055 20.8025C130.279 20.815 130.507 20.8152 131.011 20.8152H131.842C132.299 20.8152 132.669 20.4447 132.669 19.9876C132.669 19.608 132.411 19.2769 132.042 19.1848L130.738 18.8586C130.713 18.8525 130.689 18.8465 130.665 18.8406C130.244 18.7356 129.912 18.6528 129.615 18.4815C129.526 18.4304 129.441 18.3736 129.359 18.3116C129.086 18.1044 128.881 17.8303 128.62 17.4829C128.606 17.4632 128.591 17.4433 128.576 17.4231L127.932 16.5652C127.712 16.2718 127.772 15.8556 128.065 15.6355C128.358 15.4155 128.775 15.4749 128.995 15.7683L129.638 16.6262C129.964 17.0613 130.056 17.1731 130.162 17.2537C130.199 17.2819 130.238 17.3076 130.278 17.3309C130.394 17.3976 130.532 17.4382 131.06 17.5702L132.364 17.8964C133.324 18.1362 133.997 18.9985 133.997 19.9876C133.997 21.1782 133.032 22.1433 131.842 22.1433H130.989C130.512 22.1433 130.246 22.1433 129.981 22.1286C129.197 22.0847 128.421 21.9441 127.672 21.7099C127.418 21.6306 127.169 21.5371 126.723 21.3697L125.455 20.8941C124.212 21.7073 122.756 22.1433 121.264 22.1433H120.658C119.468 22.1433 118.503 21.1782 118.503 19.9876C118.503 18.9985 119.176 18.1362 120.135 17.8964L121.723 17.4993C121.95 17.4428 122.01 17.4265 122.064 17.4061C122.217 17.3477 122.355 17.2558 122.469 17.1372C122.508 17.0959 122.547 17.0464 122.687 16.8598L123.505 15.7683Z" fill="#564F91"></path><path d="M126.25 10.6509C125.935 10.6509 125.649 10.669 125.488 10.6963L124.698 10.8293C122.916 11.1293 121.602 12.69 121.602 14.5286C121.602 15.4856 121.128 16.3821 120.336 16.9159L120.246 16.9763C120.021 17.1282 119.776 17.2493 119.518 17.3359L118.493 17.6813C118.146 17.7983 117.769 17.6115 117.652 17.2639C117.535 16.9163 117.722 16.5397 118.069 16.4225L119.095 16.0773C119.239 16.0285 119.377 15.9604 119.504 15.8747L119.594 15.8144C120.017 15.5295 120.274 15.0477 120.274 14.5286C120.274 12.0516 122.047 9.92901 124.478 9.51959L125.266 9.38689C125.535 9.34124 125.908 9.32277 126.25 9.32275C126.593 9.32274 126.965 9.3411 127.234 9.38684L128.023 9.51959C130.454 9.92901 132.227 12.0516 132.227 14.5286C132.227 15.0477 132.484 15.5295 132.906 15.8144L132.996 15.8747C133.123 15.9604 133.261 16.0285 133.406 16.0773L134.431 16.4225C134.778 16.5397 134.965 16.9163 134.848 17.2639C134.731 17.6115 134.355 17.7983 134.007 17.6813L132.982 17.3359C132.724 17.2493 132.48 17.1282 132.254 16.9763L132.164 16.9159C131.372 16.3821 130.899 15.4856 130.899 14.5286C130.899 12.69 129.584 11.1293 127.802 10.8293L127.012 10.6963C126.851 10.669 126.566 10.6509 126.25 10.6509Z" fill="#837CC1"></path></g><defs><linearGradient id="paint0_linear_321_4863" x1="-70" y1="42.625" x2="313.125" y2="-56.75" gradientUnits="userSpaceOnUse"><stop stop-color="#E4E0FF"></stop><stop offset="1" stop-color="#F7F5FF" stop-opacity="0.7"></stop></linearGradient><clipPath id="clip0_321_4863"><rect y="0.75" width="253.125" height="23.75" rx="6.25" fill="white"></rect></clipPath></defs></svg> 