<?xml version="1.0" encoding="UTF-8"?> <svg xmlns="http://www.w3.org/2000/svg" width="48" height="27" viewBox="0 0 48 27" fill="none"><path d="M2.25 24.6071C11.3991 24.9201 30.0092 21.1641 39.0544 10.5201M39.0544 10.5201C48.2197 -0.265372 47.1638 -0.4356 42.4853 14.2766M39.0544 10.5201C42.0694 6.76359 54.3375 -3.25314 33.752 5.82474" stroke="url(#paint0_linear_321_5075)" stroke-width="3.125" stroke-linecap="round" stroke-dasharray="6.25 6.25"></path><g clip-path="url(#clip0_321_5075)"><path d="M2.25 24.568C11.4167 24.8805 30.0625 21.1311 39.125 10.5055M39.125 10.5055C48.308 -0.261221 47.25 -0.431152 42.5625 14.2555M39.125 10.5055C42.1458 6.75553 54.4375 -3.2438 33.8125 5.81831" stroke="url(#paint1_linear_321_5075)" stroke-width="3.125" stroke-linecap="round"></path></g><defs><linearGradient id="paint0_linear_321_5075" x1="-7.22338" y1="24.466" x2="30.702" y2="-23.087" gradientUnits="userSpaceOnUse"><stop stop-color="#FFAB8E"></stop><stop offset="1" stop-color="#FF7A4E"></stop></linearGradient><linearGradient id="paint1_linear_321_5075" x1="-7.24157" y1="24.4272" x2="30.587" y2="-23.1781" gradientUnits="userSpaceOnUse"><stop stop-color="#FFAB8E"></stop><stop offset="1" stop-color="#FF7A4E"></stop></linearGradient><clipPath id="clip0_321_5075"><rect width="21.875" height="24.375" fill="white" transform="translate(26 0.25)"></rect></clipPath></defs></svg> 