<?xml version="1.0" encoding="UTF-8"?> <svg xmlns="http://www.w3.org/2000/svg" width="47" height="60" viewBox="0 0 47 60" fill="none"><g clip-path="url(#clip0_321_4006)"><path d="M3.86157 28.9398L23.2485 17.7985L46.3736 31.0419V33.6907L23.2485 20.4261L3.86157 31.5674V28.9398ZM3.96718 37.0856L23.2485 25.9758L46.3736 39.2614V36.6126L23.2485 23.3165L3.86157 34.458V34.8573C3.86157 36.0241 3.96718 37.054 3.96718 37.054V37.0856Z" fill="#FDC300"></path><path fill-rule="evenodd" clip-rule="evenodd" d="M3.86003 34.4595V34.859C3.86003 36.0257 3.96562 37.0557 3.96562 37.0557C3.96678 38.0164 4.14946 38.9685 4.50414 39.862L23.2575 29.0886L46.3719 42.374V46.6519L23.2575 59.9375L6.11972 49.3218L9.85774 47.2195L23.2575 55.6596L42.6446 44.5078L23.2575 33.3663L2.36059 45.3696C1.00386 42.7233 0.243504 39.8143 0.132568 36.8455C0.132568 36.4566 0.132568 23.8438 0.132568 23.8438L23.2575 10.5582L46.3719 23.8333V28.1006L23.2575 14.8255L3.86003 25.9774V34.4595ZM0.132568 0.5625V17.7265L3.86003 15.6243V4.27278H42.6446V15.5928L46.3719 17.6949V0.5625H0.132568Z" fill="#0D3174"></path></g><defs><clipPath id="clip0_321_4006"><rect width="46.6518" height="59.375" fill="white" transform="translate(0.132568 0.5625)"></rect></clipPath></defs></svg> 