<?xml version="1.0" encoding="UTF-8"?> <svg xmlns="http://www.w3.org/2000/svg" width="123" height="26" viewBox="0 0 123 26" fill="none"><g clip-path="url(#clip0_321_3896)"><path d="M52.3652 9.14871C52.3652 9.34307 52.3657 9.53743 52.3652 9.73178C52.3633 10.3887 52.0352 10.8738 51.4162 11.1066C50.9571 11.2791 50.4918 11.435 50.0286 11.597C48.2716 12.2114 46.5144 12.8251 44.7576 13.4395C44.7033 13.4585 44.6496 13.4803 44.5965 13.5026C44.5225 13.5339 44.4839 13.5905 44.4844 13.671C44.485 13.8006 44.4816 13.9304 44.4907 14.0595C44.4991 14.1774 44.5318 14.201 44.645 14.1675C44.8248 14.1144 45.0012 14.0496 45.1795 13.9915C45.5227 13.8792 45.5831 13.9209 45.6034 14.2809C45.6047 14.3025 45.605 14.3241 45.6052 14.3457C45.6229 15.3818 45.6331 16.4182 45.6613 17.4539C45.6823 18.2236 45.6846 18.9939 45.7124 19.7631C45.7303 20.2667 45.7176 20.771 45.747 21.2735C45.7667 21.6112 45.6554 21.8911 45.4679 22.1583C45.0498 22.7541 44.4941 23.1953 43.8817 23.573C42.8969 24.1805 41.8246 24.581 40.7162 24.8933C39.4698 25.2445 38.1996 25.4678 36.9114 25.5958C36.1789 25.6686 35.4457 25.7241 34.709 25.725C34.5291 25.7252 34.3489 25.7524 34.169 25.7498C33.0005 25.7323 31.8336 25.6936 30.671 25.5548C29.1392 25.3719 27.6369 25.0657 26.1822 24.5478C25.1851 24.193 24.2308 23.7507 23.3993 23.0834C23.0043 22.7664 22.6503 22.4081 22.3906 21.9661C22.2666 21.7548 22.1981 21.5363 22.2205 21.2884C22.2798 20.6278 22.2358 19.9644 22.2674 19.3033C22.3017 18.5913 22.2822 17.8782 22.3151 17.1669C22.3402 16.6272 22.3309 16.0875 22.3499 15.5483C22.3744 14.8579 22.3748 14.1668 22.3987 13.4767C22.4244 12.7277 22.5907 12.006 22.9476 11.3402C23.3573 10.5762 23.9798 10.0518 24.8059 9.78448C26.1307 9.35581 27.4596 8.94031 28.7863 8.5179C30.4499 7.98817 32.1136 7.45886 33.7757 6.9248C34.0217 6.84577 34.2766 6.87665 34.525 6.83281C34.9961 6.74967 35.4576 6.63931 35.8835 6.41364C36.057 6.32186 36.2129 6.20762 36.3328 6.04846C36.5585 5.74915 36.5333 5.44012 36.2601 5.18054C36.1758 5.10042 36.0819 5.03283 35.9775 4.98272C35.5472 4.77562 35.0908 4.68406 34.6146 4.68903C34.4496 4.69075 34.3331 4.77714 34.3019 4.90433C34.2725 5.02462 34.3379 5.18745 34.4613 5.25547C34.5596 5.30968 34.6503 5.35633 34.6614 5.48525C34.6742 5.63404 34.6592 5.77377 34.5585 5.89168C34.526 5.92969 34.491 5.97115 34.4479 5.99339C33.9953 6.22749 33.6913 6.28601 33.2483 6.00678C33.2058 5.98 33.1694 5.94329 33.1266 5.91673C32.9908 5.83272 32.8626 5.84417 32.7496 5.94675C32.6415 6.04479 32.6119 6.18883 32.6729 6.32035C32.679 6.33331 32.6866 6.34561 32.6937 6.35814C32.807 6.55358 32.8076 6.55531 32.5824 6.62722C30.0123 7.44871 27.442 8.26956 24.8715 9.0904C24.6587 9.15842 24.4454 9.22559 24.2314 9.29059C23.5558 9.49575 23.0374 9.9147 22.6139 10.465C22.1308 11.0925 21.7612 11.781 21.4916 12.5245C21.3829 12.8245 21.413 12.834 21.081 12.7176C19.7534 12.2522 18.4261 11.7864 17.0987 11.3203C16.9151 11.256 16.7267 11.2057 16.5493 11.1225C16.2969 11.004 16.0818 10.8383 15.8997 10.6289C15.7235 10.4261 15.6247 10.1946 15.6234 9.92118C15.6217 9.50395 15.6195 9.08694 15.6013 8.6695C15.568 7.91021 15.9008 7.34354 16.5526 6.9505C16.9339 6.72051 17.3546 6.59051 17.7663 6.43761C19.8084 5.67896 21.8526 4.92506 23.8964 4.17052C26.326 3.27366 28.7558 2.37723 31.186 1.48188C31.619 1.32229 32.046 1.14629 32.491 1.01974C32.9293 0.895132 33.373 0.795793 33.8268 0.756921C34.2194 0.723232 34.6016 0.813933 34.9834 0.892541C35.6302 1.02557 36.238 1.27672 36.8536 1.50348C38.7624 2.20706 40.6705 2.9128 42.5786 3.61811C44.3243 4.26338 46.0699 4.90952 47.8158 5.55436C48.8039 5.91932 49.793 6.28126 50.7804 6.64773C51.2033 6.80473 51.5968 7.01097 51.9105 7.34678C52.2039 7.66078 52.3639 8.02661 52.3665 8.45765C52.3678 8.68808 52.3668 8.91828 52.3668 9.14871H52.3646H52.3652Z" fill="#222E58"></path><path d="M52.2821 7.92767L39.1736 12.3679L38.6844 25.379C39.3732 25.2585 40.056 25.106 40.7316 24.9158C41.84 24.6035 42.9123 24.2029 43.8971 23.5954C44.5095 23.2177 45.0651 22.7765 45.4833 22.1807C45.6708 21.9135 45.7823 21.6337 45.7624 21.2959C45.7329 20.7934 45.7459 20.2891 45.7277 19.7855C45.7002 19.0163 45.6976 18.2462 45.6766 17.4763C45.6485 16.4406 45.6385 15.4042 45.6205 14.3681C45.6201 14.3465 45.6199 14.3249 45.6188 14.3033C45.5984 13.9433 45.5383 13.9018 45.1948 14.0139C45.0166 14.0722 44.8401 14.1368 44.6604 14.1899C44.5472 14.2234 44.5145 14.1999 44.506 14.082C44.4969 13.953 44.5004 13.823 44.4997 13.6934C44.4993 13.6131 44.5379 13.5563 44.6119 13.525C44.665 13.5025 44.7187 13.4809 44.773 13.4619C46.53 12.8476 48.2872 12.2338 50.044 11.6194C50.5069 11.4575 50.9725 11.3015 51.4315 11.129C51.8332 10.978 52.1121 10.7208 52.2591 10.3794L52.3436 8.13369C52.3278 8.06308 52.3072 7.9944 52.2819 7.92767H52.2821Z" fill="url(#paint0_linear_321_3896)"></path><path d="M34.9998 0.915368C34.6181 0.836761 34.2359 0.74606 33.8433 0.779749C33.3895 0.81862 32.9458 0.91796 32.5075 1.04257C32.0625 1.16911 31.6353 1.34512 31.2024 1.50471C28.7722 2.40006 26.3425 3.29627 23.9129 4.19335C21.869 4.94789 19.8251 5.70179 17.7828 6.46044C17.3711 6.61333 16.9504 6.74334 16.5691 6.97333C16.3045 7.13292 16.0925 7.32102 15.9361 7.53913C19.053 8.50531 19.056 8.69751 23.1698 9.91139C23.4799 9.64447 23.8343 9.43867 24.2479 9.3132C24.4618 9.2482 24.6749 9.18104 24.888 9.11301C25.2864 8.98581 25.6851 8.8584 26.0835 8.7312L32.8304 5.92185C32.8537 5.90824 32.8776 5.89852 32.9018 5.89204L34.4386 5.25217C34.3407 5.17464 34.2918 5.03406 34.318 4.92716C34.3492 4.79996 34.4656 4.71358 34.6307 4.71185C34.9232 4.70883 35.2084 4.7423 35.4847 4.81659L40.279 2.8203L39.8988 2.6443C38.8893 2.27135 37.8798 1.89839 36.8699 1.5263C36.2542 1.29934 35.6464 1.0484 34.9996 0.915368H34.9998Z" fill="url(#paint1_linear_321_3896)"></path><path d="M26.4325 19.8397C26.1409 19.8252 25.7528 19.8727 25.3635 19.8783C24.9276 19.8846 24.859 19.812 24.8107 19.376C24.7589 18.9108 24.7254 18.4457 24.7297 17.9771C24.7425 16.6042 25.2078 15.4035 26.085 14.3518C26.276 14.1229 26.4942 13.927 26.7207 13.737C27.185 13.3474 27.7365 13.1751 28.3259 13.096C29.3055 12.9645 30.2343 13.1751 31.1429 13.515C31.3183 13.5806 31.4911 13.6552 31.6597 13.7366C31.8224 13.815 31.9412 13.9348 31.9677 14.1262C32.0283 14.5645 31.6593 14.8623 31.2386 14.7038C30.8674 14.5641 30.5062 14.3998 30.121 14.297C29.5496 14.1445 28.9706 14.0825 28.3848 14.1693C27.3329 14.3253 26.6408 14.9461 26.2225 15.8929C25.9514 16.5064 25.8355 17.1571 25.818 17.825C25.8104 18.1127 25.8152 18.4008 25.8204 18.6886C25.8243 18.9095 25.841 18.9201 26.0547 18.9292C26.3572 18.9419 26.6599 18.9545 26.9622 18.9737C27.2788 18.9938 27.4676 19.1456 27.5284 19.4149C27.5429 19.4795 27.5445 19.5425 27.5295 19.6071C27.4892 19.7809 27.429 19.8353 27.2456 19.8386C27.0074 19.8429 26.7692 19.8397 26.4325 19.8397Z" fill="#15204D"></path><path d="M35.5124 19.8872C35.2958 19.8872 35.0795 19.8894 34.863 19.8865C34.6655 19.884 34.6376 19.8606 34.6044 19.6738C34.421 18.6353 34.5609 17.64 35.0124 16.688C35.2818 16.1203 35.6401 15.616 36.1555 15.2476C36.5972 14.9319 37.0976 14.7544 37.6476 14.7317C38.0846 14.7138 38.5138 14.7429 38.9178 14.9297C39.2948 15.104 39.3563 15.5765 39.0359 15.8329C38.9107 15.9331 38.7678 15.97 38.6095 15.9335C38.5534 15.9205 38.498 15.9035 38.4432 15.8853C37.7332 15.6523 37.0961 15.8307 36.5327 16.27C35.795 16.845 35.4236 17.6326 35.3108 18.5485C35.2844 18.7636 35.3214 18.7973 35.5438 18.7975C35.6737 18.7975 35.8036 18.7975 35.9333 18.7945C36.0983 18.7908 36.2458 18.8448 36.3828 18.9292C36.5964 19.0607 36.6892 19.2985 36.62 19.5242C36.5463 19.7635 36.3837 19.879 36.1174 19.8799C35.9156 19.8805 35.7137 19.8799 35.5122 19.8799V19.8868L35.5124 19.8872Z" fill="#15204D"></path><path d="M29.8967 19.8493C28.7206 19.8493 27.5446 19.8493 26.3684 19.8493C26.3179 19.8493 26.2673 19.8501 26.2168 19.849C25.9239 19.8434 25.8381 19.7732 25.7755 19.4824C25.6549 18.9213 25.6402 18.3525 25.6911 17.7852C25.7612 17.0028 25.9817 16.259 26.3693 15.5718C26.9156 14.6035 27.6759 13.8736 28.7527 13.5214C29.8269 13.1702 30.8518 13.3158 31.8059 13.9023C32.8853 14.5659 33.5213 15.5641 33.8794 16.7542C34.1282 17.5809 34.1566 18.4248 34.0466 19.2761C34.0327 19.3826 34.0029 19.4871 33.9782 19.5923C33.942 19.7469 33.835 19.8199 33.6841 19.8341C33.6053 19.8415 33.5256 19.84 33.4464 19.84C32.263 19.8402 31.0798 19.8402 29.8964 19.8402V19.8495L29.8967 19.8493Z" fill="white"></path><path d="M38.3195 19.8851C37.4612 19.8851 36.6028 19.8851 35.7443 19.8851C35.6864 19.8851 35.6288 19.8864 35.5712 19.8844C35.3268 19.8756 35.2523 19.8177 35.209 19.573C34.9827 18.2969 35.2196 17.1228 36.0249 16.0916C36.5803 15.3805 37.3183 14.9673 38.2282 14.9244C38.9079 14.8922 39.5211 15.1172 40.0577 15.534C40.8931 16.1829 41.3272 17.0617 41.4959 18.0849C41.57 18.5347 41.568 18.9873 41.4987 19.4387C41.4879 19.5097 41.4712 19.5797 41.4559 19.6501C41.4258 19.7885 41.3337 19.8578 41.1973 19.8702C41.1185 19.8773 41.0388 19.8779 40.9596 19.8781C40.0795 19.8786 39.1995 19.8784 38.3193 19.8784V19.8853L38.3195 19.8851Z" fill="white"></path><path d="M31.4841 14.0009C31.5562 14.0009 31.6285 13.9979 31.7004 14.0016C31.9148 14.0124 32.1045 14.0778 32.2743 14.2193C32.8496 14.6991 33.2786 15.2869 33.5908 15.9622C33.7664 16.3421 33.8994 16.7366 33.9836 17.1476C34.0109 17.2802 34.007 17.4039 33.9576 17.5277C33.5806 18.4714 32.8966 19.0627 31.8921 19.2335C30.3722 19.492 28.9744 18.3986 28.8324 16.8697C28.6841 15.2731 29.9883 13.9718 31.4841 14.0009Z" fill="#0A0A3B"></path><path d="M39.4324 19.4179C38.3941 19.4315 37.424 18.5936 37.4249 17.411C37.4255 16.1926 38.44 15.4028 39.396 15.4169C39.4898 15.4182 39.5837 15.4175 39.6771 15.4238C39.9077 15.4391 40.1023 15.522 40.2749 15.6864C40.7825 16.1699 41.1272 16.7493 41.3524 17.4075C41.4334 17.6447 41.4193 17.8693 41.3334 18.1021C41.041 18.895 40.2894 19.4192 39.4324 19.4179Z" fill="#0A0A3B"></path><path d="M31.4144 14.8812C31.4144 14.9171 31.4148 14.9531 31.4144 14.989C31.4116 15.1935 31.396 15.2136 31.1939 15.2704C30.5961 15.4386 30.2453 15.839 30.0961 16.4296C30.0619 16.565 30.0645 16.7 30.0983 16.8347C30.1307 16.9648 30.0855 17.0598 29.9681 17.1218C29.8789 17.1688 29.7914 17.2196 29.6992 17.2595C29.5431 17.3271 29.4616 17.2908 29.4004 17.1248C29.322 16.9125 29.299 16.6914 29.3218 16.4668C29.4073 15.6219 30.0677 14.8182 30.8787 14.5698C30.9822 14.5381 31.087 14.5126 31.1965 14.5122C31.3624 14.5115 31.4003 14.545 31.4111 14.7087C31.4148 14.7659 31.4118 14.8236 31.4118 14.881C31.4126 14.881 31.4137 14.881 31.4146 14.881L31.4144 14.8812Z" fill="white"></path><path d="M37.9103 17.2951C37.9356 16.747 38.1704 16.3185 38.6442 16.0304C38.8315 15.9166 38.9196 15.9427 39.0285 16.1345C39.0781 16.2218 39.1251 16.3114 39.1628 16.404C39.2149 16.5325 39.1976 16.5742 39.0809 16.6556C39.0692 16.6638 39.0562 16.6703 39.0439 16.6776C38.7613 16.85 38.6377 17.1048 38.6957 17.4255C38.7267 17.5967 38.6719 17.7011 38.5389 17.7874C38.4848 17.8226 38.4337 17.8626 38.3791 17.8974C38.1756 18.0263 38.0879 17.998 38.0036 17.7792C37.9434 17.6233 37.9233 17.46 37.9103 17.2951Z" fill="white"></path><path d="M18.3535 20.6737C18.2526 20.676 18.2234 20.7419 18.1851 20.7892C17.9991 21.0183 17.755 21.1688 17.4984 21.3038C17.3947 21.3585 17.2938 21.3613 17.1892 21.304C17.0112 21.2066 16.8469 21.0894 16.6957 20.9555C16.5849 20.8572 16.5916 20.824 16.7152 20.7467C17.6604 20.1569 18.3217 19.3188 18.8349 18.3485C18.9178 18.1917 18.9152 18.0695 18.8167 17.9129C18.4267 17.2925 18.5999 16.537 19.2197 16.1388C19.3511 16.0544 19.4057 15.9665 19.4055 15.8106C19.405 14.7947 19.5978 13.8082 19.8901 12.8401C20.0793 12.2132 20.2866 11.591 20.5752 11.0006C20.9712 10.191 21.4652 9.45416 22.1817 8.88599C22.566 8.58106 23.0067 8.38907 23.4714 8.24395C24.6626 7.87208 25.8531 7.49891 27.044 7.12639C28.9439 6.53208 30.8438 5.93799 32.7437 5.34303C33.1292 5.22231 33.5137 5.09879 33.899 4.97721C34.2194 4.87614 34.285 4.89601 34.497 5.15127C34.5672 5.2357 34.6161 5.33116 34.6499 5.4346C34.7207 5.6525 34.6599 5.87104 34.4858 6.02005C34.3745 6.11529 34.2443 6.17511 34.1051 6.21938C32.0361 6.87718 29.9673 7.53541 27.8985 8.19385C26.5995 8.60719 25.3009 9.02182 24.0013 9.43365C23.6637 9.54076 23.3804 9.72994 23.1234 9.969C22.4502 10.5951 21.9784 11.3561 21.6416 12.2002C21.3054 13.0435 21.0224 13.9054 20.8654 14.8029C20.7922 15.221 20.7374 15.6417 20.7439 16.0682C20.7456 16.1792 20.7603 16.2764 20.84 16.3658C21.2369 16.8111 21.2993 17.4268 20.9546 17.9401C20.8745 18.0595 20.8721 18.1539 20.9266 18.2763C21.138 18.7519 21.2066 19.2615 21.2129 19.7718C21.2192 20.2683 21.1447 20.762 20.9515 21.2287C20.9487 21.2354 20.9457 21.2418 20.9433 21.2485C20.7658 21.7461 20.4215 21.9979 19.8825 21.9979C19.4832 21.9979 19.0911 21.9543 18.7017 21.8746C18.5605 21.8456 18.42 21.8107 18.2823 21.7685C18.1667 21.7331 18.1554 21.7012 18.2249 21.5992C18.423 21.3086 18.3997 20.9954 18.3533 20.6732L18.3535 20.6737Z" fill="url(#paint2_linear_321_3896)"></path><path d="M34.649 5.44406C34.6155 5.3404 34.5665 5.24516 34.4962 5.16073C34.2842 4.90547 34.2186 4.8856 33.8981 4.98667C33.5129 5.10825 33.1283 5.23177 32.7429 5.35249C30.8432 5.94723 28.9431 6.54132 27.0432 7.13585C25.8522 7.50837 24.6617 7.88176 23.4705 8.25341C23.3321 8.2966 23.1957 8.34411 23.0626 8.39746C23.2988 8.52185 23.4937 8.72355 23.6368 8.94512C23.7405 9.10751 23.7966 9.28287 23.8051 9.47097C23.8081 9.485 23.8105 9.49882 23.8131 9.51286C23.8737 9.48673 23.9359 9.46341 24.0002 9.44289C25.2996 9.03107 26.5984 8.61643 27.8974 8.2031C29.9662 7.54465 32.035 6.88642 34.104 6.22862C34.243 6.18435 34.3734 6.12475 34.4847 6.0293C34.6588 5.88029 34.7196 5.66174 34.6488 5.44384L34.649 5.44406Z" fill="url(#paint3_linear_321_3896)"></path><path d="M19.8814 18.5202C20.5989 18.5202 21.1806 17.9401 21.1806 17.2244C21.1806 16.5088 20.5989 15.9287 19.8814 15.9287C19.1639 15.9287 18.5822 16.5088 18.5822 17.2244C18.5822 17.9401 19.1639 18.5202 19.8814 18.5202Z" fill="#9392E0"></path><path d="M33.9821 6.36789C33.614 6.37415 33.2465 6.37264 32.8862 6.28021C32.6616 6.22255 32.444 6.1487 32.2489 6.01955C31.8879 5.78071 31.8628 5.39955 32.195 5.12161C32.4501 4.90804 32.7571 4.7979 33.0759 4.72879C33.7268 4.58777 34.3783 4.59447 35.0256 4.75967C35.3081 4.8318 35.5702 4.94885 35.7967 5.13544C36.0944 5.38054 36.0974 5.71679 35.8027 5.96341C35.6745 6.07074 35.5277 6.14589 35.3696 6.20204C34.9619 6.34673 34.5401 6.37912 34.112 6.36811C34.0687 6.36703 34.0254 6.36811 33.9823 6.36811L33.9821 6.36789Z" fill="#9392E0"></path><path d="M34.0583 4.85006C34.1661 4.85006 34.2755 4.83883 34.3816 4.85243C34.586 4.87878 34.7317 5.0388 34.7376 5.22496C34.7434 5.41176 34.6076 5.60504 34.3983 5.6046C33.9076 5.60352 33.4292 5.73051 32.9399 5.71604C32.8253 5.71258 32.7106 5.6953 32.5971 5.67695C32.462 5.65492 32.4269 5.59769 32.4637 5.46575C32.5042 5.32041 32.5962 5.21221 32.7242 5.13533C32.8481 5.06105 32.9799 5.00468 33.12 4.96689C33.4275 4.88396 33.7408 4.84574 34.0587 4.85006H34.0583Z" fill="#D2D0F5"></path><path d="M20.1105 17.8649C20.1112 18.2007 20.0523 18.2527 19.7145 18.1961C19.0815 18.0903 18.8091 17.4768 18.9278 16.9425C18.9477 16.8533 18.9999 16.8034 19.0937 16.8056C19.2234 16.8088 19.3531 16.811 19.4826 16.8196C19.5694 16.8255 19.6097 16.8745 19.5958 16.9654C19.5796 17.0715 19.5527 17.1764 19.5787 17.2859C19.6173 17.4485 19.6931 17.5217 19.8557 17.5414C20.024 17.5618 20.1089 17.6551 20.1105 17.8212C20.1105 17.8357 20.1105 17.85 20.1105 17.8644V17.8649Z" fill="#D2D0F5"></path><path d="M35.3166 5.18692C35.526 5.18433 35.6891 5.33831 35.6971 5.54584C35.7053 5.76266 35.5427 5.93456 35.3268 5.93715C35.1111 5.93974 34.942 5.77108 34.9453 5.55599C34.9483 5.34889 35.1085 5.18951 35.3168 5.18692H35.3166Z" fill="#D2D0F5"></path><path d="M38.7455 3.23407C39.7128 3.58413 40.4702 3.88366 41.4336 4.24323C42.2714 4.55593 43.1064 4.87597 43.9424 5.19299C43.9703 5.20358 43.9981 5.21437 44.0249 5.22755C44.0873 5.25843 44.1438 5.2973 44.1369 5.3772C44.1299 5.45538 44.0699 5.48799 44.005 5.51282C43.9773 5.52341 43.9487 5.53226 43.9201 5.54047C43.5977 5.63289 43.2757 5.7264 42.9526 5.81646C42.8669 5.84043 42.7781 5.85382 42.7164 5.86656C42.5752 5.86267 42.4706 5.82207 42.3662 5.78255C41.4189 5.42255 40.4715 5.06234 39.5244 4.7017C38.9326 4.47646 37.9354 4.14799 37.3443 3.92102" fill="url(#paint4_linear_321_3896)"></path><path d="M34.6023 12.2789C34.3922 12.2636 34.1891 12.2154 33.9882 12.1558C32.3908 11.6816 30.7914 11.2136 29.1966 10.7303C28.5877 10.5459 27.9641 10.4308 27.3455 10.291C27.2322 10.2655 27.1192 10.2409 27.0243 10.1697C26.8816 10.0628 26.8753 9.9563 26.9966 9.82716C27.1057 9.71076 27.2552 9.67189 27.3963 9.62136C27.5932 9.55117 27.7941 9.49178 27.9942 9.4311C28.22 9.36264 28.4444 9.36156 28.6761 9.42095C30.4586 9.87834 32.2043 10.4606 33.9695 10.9763C34.3602 11.0905 34.7465 11.1058 35.1406 10.9838C36.1882 10.6597 37.2226 10.2956 38.2665 9.95997C38.7747 9.79671 39.2844 9.63863 39.7924 9.47472C39.9367 9.42808 40.0718 9.42829 40.2123 9.492C40.4947 9.62006 40.7809 9.7397 41.0652 9.86323C41.0852 9.87186 41.1047 9.88137 41.1231 9.89238C41.1781 9.92542 41.2478 9.9522 41.248 10.028C41.248 10.1217 41.1618 10.1353 41.0969 10.158C40.3613 10.4146 39.6264 10.6728 38.8886 10.9229C37.7271 11.3164 36.5641 11.7049 35.4009 12.0932C35.141 12.18 34.8794 12.2636 34.602 12.2787L34.6023 12.2789Z" fill="url(#paint5_linear_321_3896)"></path><path d="M42.9976 9.37413C42.906 9.36765 42.8238 9.34001 42.7439 9.30675C42.4307 9.17696 42.1183 9.04545 41.806 8.9135C41.7664 8.89665 41.7264 8.87765 41.6924 8.85195C41.622 8.79883 41.6224 8.74397 41.6969 8.69927C41.7456 8.67012 41.8019 8.65198 41.8565 8.63427C42.5217 8.41745 43.1884 8.20538 43.8519 7.98316C44.0325 7.9227 44.1996 7.91579 44.3772 7.98727C44.6981 8.11662 45.0229 8.23734 45.3458 8.36195C45.3793 8.37491 45.414 8.387 45.4449 8.40492C45.5521 8.4669 45.5541 8.53838 45.4441 8.59043C45.3598 8.63038 45.2689 8.65651 45.1797 8.68567C44.542 8.89406 43.9043 9.10159 43.2661 9.30913C43.1771 9.33806 43.0895 9.37305 42.9976 9.37413Z" fill="url(#paint6_linear_321_3896)"></path><path d="M36.7094 23.271C36.4333 23.268 36.1639 23.2293 35.9047 23.1308C35.7696 23.0794 35.6393 23.0188 35.52 22.9374C35.45 22.8896 35.3558 22.8518 35.3614 22.7499C35.3679 22.637 35.4691 22.6067 35.5565 22.5739C36.3915 22.259 37.2269 21.9453 38.0623 21.631C38.2711 21.5524 38.4785 21.4697 38.6892 21.3965C38.9094 21.3198 39.0125 21.4103 38.9638 21.6367C38.8793 22.0293 38.6688 22.3484 38.3795 22.6221C37.9218 23.055 37.2878 23.2684 36.7092 23.271H36.7094Z" fill="white"></path><path d="M20.1413 16.0153C20.4661 16.0585 20.4687 16.0423 20.5743 16.1233C20.6402 16.1736 20.7086 16.2514 20.7476 16.2313C20.7865 16.2112 20.7595 16.1121 20.7476 15.9721C20.7411 15.8963 20.7577 15.7272 20.7909 15.3891C20.813 15.163 20.8247 15.05 20.8342 14.9788C20.8894 14.5684 20.9767 14.2417 21.0507 13.9638C21.0587 13.934 21.0921 13.8143 21.159 13.575C21.2536 13.2364 21.2694 13.1829 21.2889 13.1215C21.3246 13.0084 21.3805 12.8443 21.4621 12.6464L21.5921 12.3441L21.722 11.9986L21.7869 11.8474L21.8736 11.6746L22.0035 11.4155L22.1767 11.1348L22.3283 10.8756C22.3742 10.8134 22.4409 10.7238 22.5232 10.6165C22.5622 10.5655 22.6306 10.4765 22.6748 10.4221C22.7886 10.282 22.8265 10.275 23.0645 10.0334C23.1169 9.98026 23.1332 9.96234 23.1728 9.92541C23.2722 9.83276 23.3586 9.76819 23.411 9.73105C23.6284 9.57686 23.869 9.48184 23.9523 9.45031L24.4937 9.27754L33.6315 6.36216C33.486 6.37792 33.2829 6.38418 33.0469 6.34056C32.8505 6.30428 32.6896 6.24424 32.5705 6.18939C26.9626 8.02674 24.784 8.67006 24.0606 8.82404C23.9896 8.83916 23.77 8.88408 23.4976 8.9968C23.0511 9.18123 22.4896 9.53604 21.8519 10.4221C20.7679 11.928 20.4821 13.5539 20.3145 14.5684C20.2248 15.1105 20.1837 15.5664 20.1629 15.8858L20.1413 16.0153Z" fill="url(#paint7_linear_321_3896)"></path><mask id="mask0_321_3896" style="mask-type:luminance" maskUnits="userSpaceOnUse" x="95" y="9" width="13" height="11"><path d="M107.188 9.83997H95.5506V19.1763H107.188V9.83997Z" fill="white"></path></mask><g mask="url(#mask0_321_3896)"><path d="M105.941 9.92773C106.12 9.92773 106.27 10.0625 106.288 10.2391L107.154 18.6981C107.176 18.9028 107.014 19.0801 106.807 19.0801H105.129C104.947 19.0801 104.796 18.9408 104.782 18.7605L104.502 15.232C104.474 14.8778 103.993 14.7897 103.839 15.1104L102.037 18.8821C101.979 19.0032 101.857 19.0801 101.722 19.0801H101.084C100.949 19.0801 100.827 19.003 100.769 18.8821L98.9454 15.0675C98.7925 14.7474 98.3116 14.8349 98.2826 15.188L97.99 18.7616C97.9753 18.9419 97.824 19.0801 97.6421 19.0801H95.9981C95.792 19.0801 95.6304 18.9028 95.6512 18.6981L96.5172 10.2391C96.5353 10.0623 96.6852 9.92773 96.8645 9.92773H98.3789C98.5141 9.92773 98.6371 10.0053 98.6944 10.1268L101.096 15.1957C101.222 15.4611 101.602 15.4611 101.727 15.1957L104.129 10.1268C104.186 10.0053 104.309 9.92773 104.445 9.92773H105.941Z" fill="black"></path></g><mask id="mask1_321_3896" style="mask-type:luminance" maskUnits="userSpaceOnUse" x="84" y="6" width="12" height="14"><path d="M95.1606 6.60022H84.3688V19.1768H95.1606V6.60022Z" fill="white"></path></mask><g mask="url(#mask1_321_3896)"><path d="M89.5245 11.8074C89.6525 12.0728 90.0345 12.0687 90.1568 11.8009L92.416 6.85922C92.4722 6.73505 92.5968 6.65558 92.7334 6.65558H94.6985C94.9525 6.65558 95.1216 6.91688 95.0159 7.14644L89.6192 18.8782C89.5629 19.0017 89.4388 19.0807 89.3021 19.0807H87.3888C87.1348 19.0807 86.9657 18.8203 87.0709 18.5905L88.4752 15.5205C88.5183 15.4257 88.5168 15.3169 88.4706 15.2238L84.4695 7.15595C84.3551 6.92552 84.5238 6.65601 84.7824 6.65601H86.8237C86.9583 6.65601 87.08 6.73311 87.1385 6.85296L89.5245 11.8078V11.8074Z" fill="black"></path></g><path d="M82.4014 14.0483C82.2474 14.1537 82.2504 14.4176 82.4079 14.5173C82.6664 14.681 82.8842 14.8851 83.062 15.1306C83.3357 15.4969 83.4724 15.9204 83.4724 16.4015C83.4724 16.9278 83.3119 17.3973 82.9903 17.8091C82.6694 18.2097 82.2173 18.5248 81.6348 18.7537C81.064 18.971 80.3982 19.08 79.6368 19.08C78.4829 19.08 77.5433 18.8112 76.8179 18.2732C76.1932 17.8102 75.8199 17.2157 75.698 16.4896C75.6651 16.2942 75.826 16.1264 76.0261 16.1264H77.6436C77.8153 16.1264 77.9554 16.2545 78.0301 16.408C78.1174 16.5864 78.2603 16.7443 78.4589 16.882C78.7564 17.0883 79.1492 17.1911 79.6366 17.1911C80.0881 17.1911 80.4452 17.1055 80.7067 16.9336C80.9688 16.762 81.0993 16.527 81.0993 16.2296C81.0993 15.9323 80.9744 15.6973 80.7249 15.5256C80.475 15.3539 80.1301 15.2678 79.6899 15.2678H78.8437C78.6507 15.2678 78.4948 15.1127 78.4948 14.9214V13.8978C78.4948 13.7062 78.6507 13.5507 78.8437 13.5507H79.6364C80.0052 13.5507 80.3022 13.4762 80.5283 13.3278C80.7544 13.1672 80.867 12.9499 80.867 12.675C80.867 12.4232 80.7542 12.2172 80.5283 12.057C80.3022 11.8969 80.0052 11.8164 79.6364 11.8164C79.22 11.8164 78.8811 11.9082 78.6195 12.0915C78.4617 12.2019 78.3467 12.3291 78.2752 12.4735C78.1956 12.6346 78.0522 12.7785 77.871 12.7785H76.2324C76.0287 12.7785 75.8663 12.6046 75.9059 12.4062C76.046 11.7082 76.4154 11.1398 77.0137 10.7008C77.7157 10.1857 78.5775 9.92786 79.6009 9.92786C80.3022 9.92786 80.927 10.0367 81.4739 10.2542C82.0326 10.4604 82.4668 10.7582 82.7762 11.1471C83.0854 11.5367 83.2398 11.9773 83.2398 12.4696C83.2398 12.8931 83.127 13.2594 82.9011 13.5682C82.766 13.7531 82.5995 13.9131 82.4009 14.0485L82.4014 14.0483Z" fill="black"></path><path d="M70.0417 13.5444C70.1662 13.8185 70.5581 13.8159 70.6791 13.5403L72.2246 10.1153C72.28 9.98874 72.4054 9.9071 72.544 9.9071H74.1743C74.4272 9.9071 74.5959 10.166 74.4928 10.3949L70.8095 18.8783C70.7532 19.0029 70.6287 19.0835 70.491 19.0835H68.7901C68.5376 19.0835 68.3685 18.8245 68.4715 18.5952L68.6244 18.271C68.6573 18.1972 69.0759 17.2498 69.242 16.8745C69.2846 16.7781 69.2805 16.6689 69.2314 16.5756L65.9905 10.4021C65.8813 10.1721 66.0498 9.9071 66.306 9.9071H67.9804C68.1171 9.9071 68.2416 9.98658 68.2979 10.1108L70.0414 13.5444H70.0417Z" fill="black"></path><mask id="mask2_321_3896" style="mask-type:luminance" maskUnits="userSpaceOnUse" x="55" y="6" width="10" height="14"><path d="M64.7358 6.6001H55.7645V19.1767H64.7358V6.6001Z" fill="white"></path></mask><g mask="url(#mask2_321_3896)"><path d="M62.9958 12.1717C62.844 12.2786 62.858 12.538 63.0237 12.6226C63.4747 12.8541 63.8444 13.1666 64.1324 13.5603C64.5254 14.081 64.722 14.6964 64.722 15.4061C64.722 16.5068 64.3227 17.3941 63.525 18.0688C62.7392 18.743 61.5961 19.0803 60.0957 19.0803H56.1757C55.9832 19.0803 55.8273 18.9253 55.8273 18.7339V7.00219C55.8273 6.81064 55.9832 6.65515 56.1757 6.65515H59.8103C61.1797 6.65515 62.2513 6.95706 63.0252 7.56022C63.7993 8.15237 64.1863 8.9568 64.1863 9.97438C64.1863 10.5071 64.0315 10.992 63.7216 11.4301C63.5204 11.726 63.2788 11.973 62.9958 12.1717ZM58.6767 8.78511C58.4838 8.78511 58.3279 8.9406 58.3279 9.13215V11.3675C58.3279 11.5591 58.4838 11.7139 58.6767 11.7139H59.7925C60.3878 11.7139 60.846 11.5781 61.1673 11.3057C61.501 11.0336 61.6675 10.6786 61.6675 10.2411C61.6675 9.80356 61.501 9.46602 61.1673 9.19348C60.8458 8.92138 60.3878 8.78533 59.7925 8.78533H58.6767V8.78511ZM60.1496 16.9504C60.7925 16.9504 61.2869 16.7964 61.6322 16.4889C61.9893 16.1809 62.1682 15.8026 62.1682 15.3527C62.1682 14.9029 61.9893 14.5124 61.6322 14.2166C61.2869 13.9091 60.7927 13.7551 60.1496 13.7551H58.6767C58.4838 13.7551 58.3279 13.9106 58.3279 14.1021V16.604C58.3279 16.7955 58.4838 16.9504 58.6767 16.9504H60.1496Z" fill="black"></path></g><path d="M57.2908 21.9806C57.3478 21.9806 57.3909 21.9968 57.4208 22.0292C57.4502 22.0605 57.4654 22.0955 57.4654 22.1346C57.4654 22.1711 57.4502 22.2054 57.4208 22.2378C57.3909 22.2691 57.3476 22.2844 57.2908 22.2844H56.7423L56.7465 23.6987C56.7465 23.7514 56.7268 23.7909 56.6876 23.8162C56.6494 23.8421 56.6109 23.8546 56.5717 23.8546C56.5295 23.8546 56.4905 23.8419 56.4539 23.8162C56.4184 23.7909 56.4011 23.7514 56.4011 23.6987V22.2844H55.8545C55.7976 22.2844 55.7564 22.2693 55.7307 22.2378C55.7038 22.2054 55.69 22.1708 55.69 22.1346C55.69 22.0955 55.7036 22.0607 55.7307 22.0292C55.7567 21.9968 55.7978 21.9806 55.8545 21.9806H57.2908Z" fill="#6650A2"></path><path d="M59.1416 23.4011C59.1416 23.4918 59.1234 23.5671 59.0868 23.628C59.0502 23.6879 59.0015 23.7334 58.9404 23.7658C58.8795 23.7982 58.8109 23.8215 58.7351 23.8347C58.6604 23.8483 58.5853 23.855 58.5097 23.855H57.8861C57.8495 23.855 57.817 23.8429 57.7886 23.8185C57.7611 23.7941 57.7479 23.7654 57.7479 23.7315V22.4813C57.7479 22.4463 57.7611 22.4174 57.7886 22.3943C57.817 22.3699 57.8495 22.3578 57.8861 22.3578H58.4631C58.5201 22.3578 58.5809 22.3634 58.6459 22.374C58.7119 22.3852 58.775 22.4053 58.8349 22.4347C58.8958 22.463 58.9447 22.5046 58.9813 22.5582C59.019 22.6124 59.0383 22.6839 59.0383 22.7729C59.0383 22.8052 59.0322 22.8428 59.0201 22.8843C59.008 22.9249 58.9876 22.9614 58.9592 22.9938C58.9309 23.0262 58.8906 23.0465 58.8393 23.0545C58.9287 23.0748 59.0008 23.1173 59.0567 23.1821C59.1136 23.246 59.142 23.3188 59.142 23.4008L59.1416 23.4011ZM58.0812 22.9573H58.5281C58.5851 22.9573 58.6277 22.9422 58.6561 22.9106C58.6844 22.8798 58.6987 22.8437 58.6987 22.8033C58.6987 22.7629 58.6836 22.7273 58.6541 22.696C58.6243 22.6651 58.5801 22.6493 58.522 22.6493H58.0812V22.9573ZM58.0812 23.1903V23.557H58.5931C58.6671 23.557 58.723 23.5388 58.7596 23.5023C58.7973 23.4648 58.8165 23.4222 58.8165 23.3747C58.8165 23.3272 58.7973 23.2836 58.7596 23.2471C58.723 23.2095 58.6671 23.1903 58.5931 23.1903H58.0812Z" fill="#6650A2"></path><path d="M60.273 22.327C60.43 22.327 60.5675 22.3604 60.6855 22.4263C60.8044 22.4926 60.8968 22.5844 60.9618 22.7019C61.0267 22.8193 61.0592 22.9567 61.0592 23.1133C61.0562 23.2662 61.0215 23.4005 60.9557 23.5164C60.8908 23.6328 60.7994 23.7231 60.6814 23.7879C60.5646 23.8527 60.4284 23.8851 60.273 23.8851C60.1175 23.8851 59.9845 23.8527 59.8668 23.7879C59.749 23.7231 59.6565 23.6328 59.5904 23.5164C59.524 23.4005 59.49 23.2662 59.4889 23.1133C59.4889 22.9567 59.5214 22.8196 59.5863 22.7019C59.6524 22.5844 59.7448 22.4926 59.8626 22.4263C59.9815 22.3604 60.1186 22.327 60.273 22.327ZM60.273 23.5892C60.407 23.5892 60.5138 23.5456 60.5939 23.4575C60.6736 23.3698 60.7138 23.2549 60.7138 23.113C60.7138 22.9712 60.6738 22.8511 60.5939 22.7606C60.5135 22.6688 60.407 22.6228 60.273 22.6228C60.1389 22.6228 60.0352 22.6688 59.954 22.7606C59.8737 22.8513 59.8341 22.9688 59.8341 23.113C59.8341 23.2573 59.8737 23.3698 59.954 23.4575C60.0352 23.5456 60.1413 23.5892 60.273 23.5892Z" fill="#6650A2"></path><path d="M62.2796 21.9462C62.2846 21.9048 62.3019 21.8754 62.3305 21.8592C62.3588 21.8419 62.3898 21.8348 62.424 21.8389C62.4591 21.843 62.4881 21.8566 62.5113 21.8795C62.5342 21.9028 62.5423 21.9322 62.5358 21.9687C62.518 22.0594 62.4738 22.1317 62.4037 22.1855C62.3346 22.2397 62.2458 22.2665 62.1375 22.2665C62.0293 22.2665 61.9394 22.2397 61.8695 22.1855C61.7989 22.1317 61.7558 22.0594 61.7395 21.9687C61.7339 21.9322 61.7421 21.9028 61.764 21.8795C61.787 21.8566 61.8153 21.843 61.8493 21.8389C61.8844 21.8348 61.9165 21.8419 61.9448 21.8592C61.9732 21.8754 61.9901 21.9048 61.9957 21.9462C61.9983 21.9598 62.0104 21.9782 62.0323 22.0009C62.0537 22.0227 62.0893 22.0333 62.138 22.0333C62.1867 22.0333 62.2218 22.0227 62.2436 22.0009C62.2651 21.978 62.2772 21.9598 62.2802 21.9462H62.2796ZM62.6899 22.3576C62.7306 22.3576 62.7681 22.3697 62.8036 22.3941C62.8387 22.4185 62.8564 22.4539 62.8564 22.4995V23.711C62.8564 23.7596 62.8387 23.7961 62.8036 23.8205C62.7681 23.8438 62.7304 23.8548 62.6899 23.8548C62.6494 23.8548 62.6126 23.8436 62.5762 23.8205C62.5396 23.7961 62.5215 23.7598 62.5215 23.711V22.8722L61.7333 23.8084C61.7034 23.8397 61.6601 23.8551 61.6033 23.8551C61.5637 23.8551 61.526 23.8438 61.4897 23.8207C61.4542 23.7963 61.4368 23.76 61.4368 23.7112V22.5017C61.4368 22.4546 61.4542 22.4185 61.4897 22.3943C61.5263 22.3699 61.5637 22.3578 61.6033 22.3578C61.6449 22.3578 61.6837 22.3699 61.7192 22.3943C61.7543 22.4187 61.772 22.4542 61.772 22.4997V23.3426L62.5602 22.4086C62.5871 22.3751 62.6304 22.3578 62.6901 22.3578L62.6899 22.3576Z" fill="#6650A2"></path><path d="M65.4385 22.3578C65.4801 22.3578 65.5197 22.371 65.5563 22.3962C65.594 22.4221 65.6132 22.4602 65.6132 22.5096V23.6969C65.6132 23.7496 65.594 23.7896 65.5563 23.8166C65.5197 23.8425 65.4801 23.855 65.4385 23.855C65.3969 23.855 65.3558 23.8423 65.3207 23.8166C65.2867 23.7898 65.2698 23.7496 65.2698 23.6969V22.6556H64.5323V23.6969C64.5323 23.7511 64.5145 23.7911 64.4794 23.8166C64.4439 23.8425 64.4069 23.855 64.3677 23.855C64.324 23.855 64.2843 23.8418 64.2477 23.8144C64.2111 23.7861 64.193 23.747 64.193 23.6969V22.5096C64.193 22.4599 64.2096 22.4219 64.2438 22.3962C64.2774 22.371 64.316 22.3578 64.3597 22.3578H65.4385Z" fill="#6650A2"></path><path d="M67.2831 22.3578C67.3329 22.3578 67.3767 22.38 67.4131 22.4247C67.4496 22.4684 67.4568 22.5195 67.4354 22.5787L66.7507 24.0232C66.6937 24.1366 66.6155 24.2187 66.517 24.2705C66.4181 24.3232 66.3018 24.3495 66.1675 24.3495C66.1106 24.3495 66.0679 24.3338 66.0396 24.3029C66.0112 24.2731 65.9969 24.2385 65.9969 24.1997C65.9969 24.1608 66.0112 24.1273 66.0396 24.0964C66.0679 24.0666 66.1106 24.052 66.1675 24.052C66.2204 24.052 66.2732 24.0399 66.326 24.0155C66.3789 23.9911 66.422 23.9476 66.456 23.8859L66.5473 23.7116L65.9075 22.5912C65.8901 22.5521 65.8882 22.5152 65.9014 22.4798C65.9135 22.4433 65.9339 22.4144 65.9623 22.3928C65.9917 22.3699 66.0253 22.3584 66.0619 22.3584C66.0928 22.3584 66.1227 22.3686 66.1513 22.3889C66.1799 22.4092 66.2011 22.4345 66.2163 22.4638L66.7303 23.3492L67.1266 22.4619C67.1398 22.431 67.1601 22.4062 67.1874 22.3869C67.2143 22.3682 67.2463 22.3587 67.2829 22.3587L67.2831 22.3578Z" fill="#6650A2"></path><path d="M69.0412 22.3578C69.0981 22.3578 69.1408 22.3736 69.1691 22.4044C69.1986 22.4342 69.2138 22.4688 69.2138 22.5077C69.2138 22.5465 69.1995 22.58 69.1711 22.6109C69.1427 22.6407 69.099 22.6554 69.0412 22.6554H68.6512V23.711C68.6512 23.7595 68.6334 23.796 68.5984 23.8205C68.5628 23.8438 68.5243 23.8548 68.4825 23.8548C68.4407 23.8548 68.4052 23.8436 68.3688 23.8205C68.3322 23.796 68.314 23.7598 68.314 23.711V22.6554H67.9199C67.863 22.6554 67.821 22.6407 67.7939 22.6109C67.7679 22.58 67.7554 22.5455 67.7554 22.5077C67.7565 22.4686 67.7705 22.4342 67.798 22.4044C67.8264 22.3736 67.8671 22.3578 67.9199 22.3578H69.0414H69.0412Z" fill="#6650A2"></path><path d="M70.3913 22.844C70.5213 22.844 70.6295 22.8684 70.7164 22.917C70.8028 22.9656 70.8673 23.0284 70.9093 23.1055C70.9509 23.1815 70.9723 23.2625 70.9723 23.3487C70.9723 23.4348 70.9504 23.5169 70.9073 23.5938C70.8636 23.6698 70.7997 23.7326 70.7144 23.7823C70.6302 23.8309 70.5245 23.8553 70.3974 23.8553H69.7515C69.7118 23.8553 69.6742 23.8441 69.6378 23.821C69.6012 23.7966 69.583 23.7603 69.583 23.7115V22.5019C69.583 22.4548 69.6012 22.4188 69.6378 22.3946C69.6744 22.3704 69.7118 22.3581 69.7515 22.3581C69.7911 22.3581 69.8296 22.3702 69.8652 22.3946C69.9018 22.419 69.9199 22.4544 69.9199 22.5V22.8444H70.3913V22.844ZM70.3996 23.5875C70.4604 23.5875 70.5094 23.5728 70.5459 23.543C70.5825 23.5122 70.6068 23.4752 70.6191 23.4316C70.6313 23.3871 70.6304 23.3424 70.6172 23.2979C70.6051 23.2534 70.5795 23.2163 70.5421 23.1865C70.5055 23.1556 70.4552 23.1398 70.3918 23.1398H69.9204V23.5875H70.3998H70.3996Z" fill="#6650A2"></path><path d="M73.6578 23.4011C73.6578 23.4918 73.6396 23.5671 73.603 23.628C73.5664 23.6879 73.5177 23.7334 73.4566 23.7658C73.3958 23.7982 73.3271 23.8215 73.2513 23.8347C73.1766 23.8483 73.1015 23.855 73.0259 23.855H72.4023C72.3657 23.855 72.3332 23.8429 72.3049 23.8185C72.2774 23.7941 72.2642 23.7654 72.2642 23.7315V22.4813C72.2642 22.4463 72.2774 22.4174 72.3049 22.3943C72.3332 22.3699 72.3657 22.3578 72.4023 22.3578H72.9794C73.0363 22.3578 73.0972 22.3634 73.1621 22.374C73.2282 22.3852 73.2912 22.4053 73.3512 22.4347C73.412 22.463 73.461 22.5046 73.4976 22.5582C73.5352 22.6124 73.5545 22.6839 73.5545 22.7729C73.5545 22.8052 73.5484 22.8428 73.5363 22.8843C73.5242 22.9249 73.5038 22.9614 73.4755 22.9938C73.4471 23.0262 73.4068 23.0465 73.3555 23.0545C73.4449 23.0748 73.517 23.1173 73.5729 23.1821C73.6299 23.246 73.6582 23.3188 73.6582 23.4008L73.6578 23.4011ZM72.5974 22.9573H73.0443C73.1013 22.9573 73.1439 22.9422 73.1723 22.9106C73.2007 22.8798 73.215 22.8437 73.215 22.8033C73.215 22.7629 73.1998 22.7273 73.1704 22.696C73.1405 22.6651 73.0963 22.6493 73.0383 22.6493H72.5974V22.9573ZM72.5974 23.1903V23.557H73.1093C73.1834 23.557 73.2392 23.5388 73.2758 23.5023C73.3135 23.4648 73.3328 23.4222 73.3328 23.3747C73.3328 23.3272 73.3135 23.2836 73.2758 23.2471C73.2392 23.2095 73.1834 23.1903 73.1093 23.1903H72.5974Z" fill="#6650A2"></path><path d="M76.7478 22.3578C76.7894 22.3578 76.829 22.3714 76.8656 22.3984C76.9033 22.4243 76.9225 22.4632 76.9225 22.5159V23.7012C76.9225 23.7513 76.9033 23.7898 76.8656 23.8168C76.829 23.8427 76.7894 23.8552 76.7478 23.8552H75.1023C75.0586 23.8552 75.02 23.8425 74.9865 23.8168C74.954 23.79 74.9377 23.7513 74.9377 23.7012V22.5159C74.9377 22.4662 74.9551 22.4278 74.9906 22.4003C75.0272 22.372 75.0668 22.3578 75.1105 22.3578C75.1497 22.3578 75.1868 22.371 75.2223 22.3962C75.2589 22.4221 75.2771 22.4621 75.2771 22.5159V23.5572H75.7565V22.5159C75.7565 22.4632 75.7731 22.4241 75.8074 22.3984C75.8424 22.3716 75.8814 22.3578 75.9252 22.3578C75.9689 22.3578 76.0064 22.3714 76.043 22.3984C76.0806 22.4243 76.0999 22.4632 76.0999 22.5159V23.5572H76.5815V22.5159C76.5815 22.4632 76.5982 22.4241 76.6324 22.3984C76.6659 22.3716 76.7045 22.3578 76.7482 22.3578H76.7478Z" fill="#6650A2"></path><path d="M78.4898 23.5407C78.5385 23.5893 78.563 23.6379 78.563 23.6867C78.563 23.7355 78.5472 23.7737 78.5162 23.8063C78.4863 23.8387 78.4482 23.8549 78.4025 23.8549C78.3579 23.856 78.3131 23.8361 78.2685 23.7942L77.728 23.2492L77.5918 23.3425V23.705C77.5918 23.7536 77.5736 23.7912 77.537 23.8165C77.5004 23.8424 77.4619 23.8549 77.4212 23.8549C77.3774 23.8549 77.3389 23.8422 77.3053 23.8165C77.2728 23.7912 77.2566 23.7536 77.2566 23.705V22.5076C77.2566 22.4564 77.2728 22.4184 77.3053 22.3942C77.3389 22.3698 77.3785 22.3577 77.4231 22.3577C77.4677 22.3577 77.5084 22.3698 77.5409 22.3942C77.5745 22.4186 77.5918 22.4564 77.5918 22.5076V22.9714L77.7746 22.8013L78.2886 22.4041C78.3373 22.3676 78.383 22.3525 78.4268 22.3575C78.4699 22.3616 78.5045 22.3797 78.5303 22.4121C78.5556 22.4445 78.5653 22.483 78.5586 22.5277C78.553 22.5713 78.5246 22.6138 78.4733 22.6553L77.9939 23.0403L78.4896 23.5407H78.4898Z" fill="#6650A2"></path><path d="M79.5738 22.327C79.7308 22.327 79.8683 22.3604 79.9863 22.4263C80.1052 22.4926 80.1977 22.5844 80.2626 22.7019C80.3276 22.8193 80.3601 22.9567 80.3601 23.1133C80.357 23.2662 80.3224 23.4005 80.2566 23.5164C80.1916 23.6328 80.1002 23.7231 79.9822 23.7879C79.8655 23.8527 79.7293 23.8851 79.5738 23.8851C79.4183 23.8851 79.2854 23.8527 79.1676 23.7879C79.0498 23.7231 78.9573 23.6328 78.8913 23.5164C78.8248 23.4005 78.7908 23.2662 78.7897 23.1133C78.7897 22.9567 78.8222 22.8196 78.8872 22.7019C78.9532 22.5844 79.0457 22.4926 79.1635 22.4263C79.2824 22.3604 79.4194 22.327 79.5738 22.327ZM79.5738 23.5892C79.7079 23.5892 79.8146 23.5456 79.8947 23.4575C79.9744 23.3698 80.0147 23.2549 80.0147 23.113C80.0147 22.9712 79.9746 22.8511 79.8947 22.7606C79.8144 22.6688 79.7079 22.6228 79.5738 22.6228C79.4398 22.6228 79.3361 22.6688 79.2549 22.7606C79.1745 22.8513 79.1349 22.9688 79.1349 23.113C79.1349 23.2573 79.1745 23.3698 79.2549 23.4575C79.3361 23.5456 79.4422 23.5892 79.5738 23.5892Z" fill="#6650A2"></path><path d="M82.0763 22.3578C82.1088 22.3578 82.1404 22.3679 82.1718 22.3882C82.2028 22.4085 82.2186 22.4399 82.2186 22.4815V23.7114C82.2186 23.76 82.2004 23.7965 82.1638 23.8209C82.1283 23.8442 82.0906 23.8552 82.0501 23.8552C82.0096 23.8552 81.9728 23.844 81.9364 23.8209C81.8999 23.7965 81.8817 23.7602 81.8817 23.7114V22.6558H81.5099L81.3717 23.3101C81.3498 23.425 81.32 23.5229 81.2823 23.6038C81.2457 23.6848 81.1929 23.7472 81.1238 23.7902C81.0558 23.8338 80.9664 23.855 80.8557 23.855C80.7957 23.855 80.7511 23.8403 80.7217 23.8105C80.6933 23.7796 80.679 23.7451 80.679 23.7073C80.6801 23.6682 80.6957 23.6339 80.7258 23.6041C80.7552 23.5732 80.7994 23.5574 80.8579 23.5574C80.8956 23.5574 80.925 23.5473 80.9451 23.527C80.9653 23.5067 80.9807 23.4833 80.9919 23.4561C81.0025 23.4278 81.0101 23.403 81.0142 23.3812L81.2033 22.4815C81.2236 22.3995 81.2764 22.358 81.3618 22.358H82.0768L82.0763 22.3578Z" fill="#6650A2"></path><path d="M83.8642 22.3578C83.914 22.3578 83.9578 22.38 83.9941 22.4247C84.0307 22.4684 84.0379 22.5195 84.0164 22.5787L83.3318 24.0232C83.2748 24.1366 83.1966 24.2187 83.0981 24.2705C82.9991 24.3232 82.8829 24.3495 82.7486 24.3495C82.6917 24.3495 82.649 24.3338 82.6206 24.3029C82.5923 24.2731 82.578 24.2385 82.578 24.1997C82.578 24.1608 82.5923 24.1273 82.6206 24.0964C82.649 24.0666 82.6917 24.052 82.7486 24.052C82.8015 24.052 82.8543 24.0399 82.9071 24.0155C82.96 23.9911 83.003 23.9476 83.037 23.8859L83.1284 23.7116L82.4886 22.5912C82.4712 22.5521 82.4693 22.5152 82.4825 22.4798C82.4946 22.4433 82.515 22.4144 82.5433 22.3928C82.5728 22.3699 82.6063 22.3584 82.6429 22.3584C82.6739 22.3584 82.7038 22.3686 82.7324 22.3889C82.7607 22.4092 82.7822 22.4345 82.7973 22.4638L83.3114 23.3492L83.7077 22.4619C83.7209 22.431 83.7412 22.4062 83.7685 22.3869C83.7954 22.3682 83.8274 22.3587 83.864 22.3587L83.8642 22.3578Z" fill="#6650A2"></path><path d="M86.7542 22.3578C86.7988 22.3578 86.8399 22.3736 86.878 22.4044C86.9157 22.4342 86.935 22.4733 86.935 22.5219V23.7112C86.935 23.7598 86.9168 23.7963 86.8802 23.8207C86.8436 23.844 86.8055 23.855 86.7665 23.855C86.7243 23.855 86.6857 23.8438 86.6507 23.8207C86.6151 23.7963 86.5978 23.76 86.5978 23.7112V23.0426L86.283 23.4842C86.2546 23.5237 86.218 23.5501 86.1732 23.5632C86.1295 23.5753 86.0859 23.5753 86.0411 23.5632C85.9974 23.5501 85.9619 23.5237 85.9335 23.4842L85.6186 23.0426V23.7112C85.6186 23.7598 85.6009 23.7963 85.5658 23.8207C85.5303 23.844 85.4918 23.855 85.45 23.855C85.4082 23.855 85.3727 23.8438 85.3363 23.8207C85.3008 23.7963 85.2834 23.76 85.2834 23.7112V22.5219C85.2834 22.4733 85.3023 22.4342 85.3404 22.4044C85.3781 22.3736 85.4186 22.3578 85.4623 22.3578C85.4876 22.3578 85.5117 22.3634 85.5333 22.374C85.5563 22.3852 85.576 22.4034 85.5922 22.4286L86.1082 23.1864L86.6242 22.4286C86.6405 22.4034 86.6593 22.385 86.6812 22.374C86.7041 22.3634 86.7284 22.3578 86.7544 22.3578H86.7542Z" fill="#6650A2"></path><path d="M88.0075 23.5934C88.0644 23.5934 88.1203 23.5863 88.1762 23.5712C88.2316 23.555 88.2829 23.5282 88.3306 23.4902C88.3752 23.4487 88.4189 23.4295 88.4627 23.4334C88.5057 23.4364 88.5419 23.4515 88.5703 23.48C88.5986 23.5085 88.6129 23.544 88.6129 23.5854C88.6129 23.6269 88.5915 23.6679 88.5499 23.707C88.4819 23.7748 88.4005 23.8219 88.3061 23.8489C88.211 23.8742 88.1151 23.8865 88.0177 23.8854C87.8633 23.8854 87.7277 23.8545 87.6114 23.7921C87.4947 23.7288 87.4031 23.6411 87.3371 23.5286C87.2706 23.4168 87.2375 23.287 87.2375 23.1397C87.2375 22.979 87.2684 22.8378 87.331 22.7162C87.3945 22.5946 87.4839 22.4994 87.5991 22.4305C87.7139 22.3616 87.8501 22.3273 88.0075 22.3273C88.1649 22.3273 88.2981 22.3597 88.4077 22.4245C88.5183 22.4884 88.6032 22.5773 88.6617 22.6918C88.7195 22.8067 88.7489 22.9406 88.7489 23.093C88.7489 23.1416 88.7387 23.1837 88.7184 23.2187C88.6991 23.2526 88.6474 23.2695 88.562 23.2695H87.5807C87.6075 23.3658 87.6589 23.4438 87.7351 23.5044C87.8124 23.5643 87.9027 23.5936 88.0073 23.5936L88.0075 23.5934ZM88.0116 22.6188C87.8979 22.6188 87.8024 22.6549 87.7251 22.7261C87.6478 22.7981 87.5982 22.8918 87.5768 23.0077H88.4362C88.4265 22.8918 88.388 22.7981 88.3204 22.7261C88.2539 22.6547 88.1508 22.6188 88.0116 22.6188Z" fill="#6650A2"></path><path d="M90.4769 22.3578C90.5161 22.3578 90.5524 22.371 90.5867 22.3962C90.6217 22.4221 90.6395 22.4621 90.6395 22.5159V23.7012C90.6395 23.7472 90.6237 23.7844 90.5927 23.8127C90.5628 23.841 90.5221 23.8552 90.4708 23.8552C90.4195 23.8552 90.3814 23.841 90.3489 23.8127C90.3175 23.7844 90.3021 23.7472 90.3021 23.7012V23.3263C90.2356 23.3764 90.1629 23.4145 90.0847 23.4397C90.0059 23.4641 89.9364 23.4762 89.8755 23.4762C89.7238 23.4762 89.6018 23.4479 89.5098 23.3911C89.4174 23.3335 89.3504 23.2564 89.3087 23.1601C89.2679 23.0644 89.2478 22.9575 89.2478 22.84V22.5159C89.2478 22.4662 89.2651 22.4278 89.3006 22.4003C89.3357 22.372 89.3747 22.3578 89.4184 22.3578C89.4576 22.3578 89.4947 22.371 89.5302 22.3962C89.5652 22.4221 89.583 22.4621 89.583 22.5159V22.8441C89.583 22.9009 89.5917 22.9556 89.6094 23.0082C89.6267 23.0599 89.6592 23.1009 89.7069 23.1318C89.7556 23.1631 89.8231 23.1784 89.91 23.1784C89.9598 23.1784 90.01 23.1678 90.0603 23.146C90.1116 23.1246 90.1588 23.0944 90.2025 23.0549C90.2471 23.0158 90.2803 22.9717 90.3021 22.9232V22.5159C90.3021 22.4662 90.3203 22.4278 90.3569 22.4003C90.3935 22.372 90.4331 22.3578 90.4769 22.3578Z" fill="#6650A2"></path><path d="M92.4865 22.3578C92.5435 22.3578 92.5862 22.3736 92.6145 22.4044C92.644 22.4342 92.6591 22.4688 92.6591 22.5077C92.6591 22.5465 92.6448 22.58 92.6165 22.6109C92.5881 22.6407 92.5444 22.6554 92.4865 22.6554H92.0966V23.711C92.0966 23.7595 92.0788 23.796 92.0437 23.8205C92.0082 23.8438 91.9697 23.8548 91.9279 23.8548C91.8861 23.8548 91.8506 23.8436 91.8142 23.8205C91.7776 23.796 91.7594 23.7598 91.7594 23.711V22.6554H91.3653C91.3084 22.6554 91.2664 22.6407 91.2393 22.6109C91.2133 22.58 91.2007 22.5455 91.2007 22.5077C91.2018 22.4686 91.2159 22.4342 91.2434 22.4044C91.2718 22.3736 91.3125 22.3578 91.3653 22.3578H92.4868H92.4865Z" fill="#6650A2"></path><path d="M93.8369 22.8441C93.9668 22.8441 94.0751 22.8685 94.1619 22.9171C94.2483 22.9657 94.3128 23.0285 94.3549 23.1056C94.3964 23.1817 94.4179 23.2626 94.4179 23.3488C94.4179 23.435 94.396 23.517 94.3529 23.5939C94.3092 23.6699 94.2453 23.7328 94.16 23.7824C94.0757 23.831 93.9701 23.8554 93.843 23.8554H93.197C93.1574 23.8554 93.1197 23.8442 93.0833 23.8211C93.0468 23.7967 93.0286 23.7604 93.0286 23.7116V22.502C93.0286 22.455 93.0468 22.4189 93.0833 22.3947C93.1199 22.3705 93.1574 22.3582 93.197 22.3582C93.2367 22.3582 93.2752 22.3703 93.3107 22.3947C93.3473 22.4191 93.3655 22.4545 93.3655 22.5001V22.8446H93.8369V22.8441ZM94.5662 22.5016C94.5662 22.4545 94.5835 22.4185 94.619 22.3943C94.6556 22.3699 94.6931 22.3578 94.7327 22.3578C94.7743 22.3578 94.813 22.3699 94.8486 22.3943C94.8836 22.4187 94.9014 22.4541 94.9014 22.4997V23.7112C94.9014 23.7598 94.8836 23.7963 94.8486 23.8207C94.813 23.844 94.7745 23.855 94.7327 23.855C94.6909 23.855 94.6554 23.8438 94.619 23.8207C94.5835 23.7963 94.5662 23.76 94.5662 23.7112V22.5016ZM93.8449 23.5877C93.9058 23.5877 93.9547 23.573 93.9913 23.5432C94.0279 23.5123 94.0521 23.4754 94.0645 23.4317C94.0766 23.3872 94.0757 23.3425 94.0625 23.2981C94.0504 23.2536 94.0249 23.2164 93.9874 23.1866C93.9508 23.1557 93.9006 23.14 93.8371 23.14H93.3657V23.5877H93.8451H93.8449Z" fill="#6650A2"></path><path d="M95.7277 23.3333V22.1117C95.7277 22.0605 95.745 22.0225 95.7805 21.9983C95.8156 21.973 95.8546 21.9598 95.8983 21.9598C95.9421 21.9598 95.9847 21.973 96.0202 21.9983C96.0553 22.0227 96.0731 22.0605 96.0731 22.1117V23.3333C96.0731 23.3834 96.0549 23.4214 96.0183 23.4467C95.9817 23.4711 95.9416 23.4832 95.8983 23.4832C95.855 23.4832 95.8156 23.4711 95.7805 23.4467C95.745 23.4214 95.7277 23.3834 95.7277 23.3333ZM95.7216 23.7447V23.7082C95.7216 23.6585 95.7398 23.6212 95.7764 23.5968C95.813 23.5715 95.8537 23.5583 95.8983 23.5583C95.9429 23.5583 95.9817 23.5715 96.0183 23.5968C96.056 23.6227 96.0752 23.6596 96.0752 23.7082V23.7447C96.0752 23.7922 96.056 23.8287 96.0183 23.8542C95.9802 23.8795 95.9401 23.8926 95.8983 23.8926C95.8507 23.8926 95.8095 23.8805 95.7745 23.8561C95.7389 23.8309 95.7216 23.7933 95.7216 23.7447Z" fill="#6650A2"></path></g><defs><linearGradient id="paint0_linear_321_3896" x1="36.3922" y1="18.779" x2="55.5264" y2="14.3162" gradientUnits="userSpaceOnUse"><stop offset="0.25" stop-color="#212D57"></stop><stop offset="0.47" stop-color="#09163F"></stop></linearGradient><linearGradient id="paint1_linear_321_3896" x1="26.9661" y1="4.04369" x2="37.324" y2="14.4072" gradientUnits="userSpaceOnUse"><stop offset="0.16" stop-color="#404C74"></stop><stop offset="0.49" stop-color="#212D57"></stop></linearGradient><linearGradient id="paint2_linear_321_3896" x1="20.7915" y1="10.5782" x2="29.7639" y2="15.2267" gradientUnits="userSpaceOnUse"><stop offset="0.08" stop-color="#9292DF"></stop><stop offset="0.22" stop-color="#9292DF"></stop><stop offset="0.46" stop-color="#7070C0"></stop></linearGradient><linearGradient id="paint3_linear_321_3896" x1="20.3589" y1="5.33824" x2="38.0002" y2="9.20161" gradientUnits="userSpaceOnUse"><stop offset="0.08" stop-color="#9292DF"></stop><stop offset="0.22" stop-color="#9292DF"></stop><stop offset="0.84" stop-color="#7070C0"></stop></linearGradient><linearGradient id="paint4_linear_321_3896" x1="38.4538" y1="3.7109" x2="44.9985" y2="6.26029" gradientUnits="userSpaceOnUse"><stop stop-color="#212D57"></stop><stop offset="0.21" stop-color="#414D75"></stop><stop offset="0.59" stop-color="#4E5C82"></stop></linearGradient><linearGradient id="paint5_linear_321_3896" x1="27.8331" y1="7.59916" x2="40.3109" y2="12.4586" gradientUnits="userSpaceOnUse"><stop stop-color="#212D57"></stop><stop offset="0.21" stop-color="#414D75"></stop><stop offset="0.59" stop-color="#4E5C82"></stop></linearGradient><linearGradient id="paint6_linear_321_3896" x1="41.9312" y1="8.01599" x2="45.2202" y2="9.29697" gradientUnits="userSpaceOnUse"><stop stop-color="#212D57"></stop><stop offset="0.21" stop-color="#414D75"></stop><stop offset="0.59" stop-color="#4E5C82"></stop></linearGradient><linearGradient id="paint7_linear_321_3896" x1="22.165" y1="8.48024" x2="25.0474" y2="10.1427" gradientUnits="userSpaceOnUse"><stop offset="0.21" stop-color="#9292DF"></stop><stop offset="0.43" stop-color="#9292DF"></stop><stop offset="0.86" stop-color="#7070C0"></stop></linearGradient><clipPath id="clip0_321_3896"><rect width="122.5" height="25" fill="white" transform="translate(0 0.75)"></rect></clipPath></defs></svg> 