<?xml version="1.0" encoding="UTF-8"?> <svg xmlns="http://www.w3.org/2000/svg" width="17" height="13" viewBox="0 0 17 13" fill="none"><path fill-rule="evenodd" clip-rule="evenodd" d="M1.99272 5.38117C6.04161 3.61712 8.74153 2.45414 10.0924 1.8923C13.9495 0.28802 14.751 0.00931965 15.2733 9.65594e-05C15.3882 -0.00191082 15.6451 0.0265725 15.8115 0.161609C16.0584 0.361913 16.0598 0.7967 16.0324 1.08446C15.8233 3.28064 14.9189 8.61012 14.4588 11.0699C14.2641 12.1107 13.8807 12.4597 13.5097 12.4938C12.7031 12.568 12.0907 11.9608 11.3095 11.4487C10.0871 10.6474 9.39648 10.1486 8.2099 9.36669C6.83865 8.46304 7.72759 7.96641 8.50906 7.15472C8.71359 6.94232 12.2672 3.70995 12.336 3.41671C12.3447 3.38003 12.3526 3.24332 12.2714 3.17116C12.1902 3.099 12.0704 3.12363 11.9839 3.14327C11.8613 3.1711 9.90847 4.46185 6.12548 7.01545C5.57118 7.39609 5.06911 7.58153 4.6193 7.57182C4.12337 7.56113 3.16948 7.29144 2.46034 7.06092C1.59054 6.7782 0.899246 6.62868 0.959468 6.14853C0.990826 5.89837 1.33523 5.64262 1.99272 5.38117Z" fill="white"></path></svg> 