<?xml version="1.0" encoding="UTF-8"?> <svg xmlns="http://www.w3.org/2000/svg" width="22" height="22" viewBox="0 0 22 22" fill="none"><path d="M10.4616 0.996759C10.6321 0.13268 11.8679 0.132682 12.0384 0.996761L13.4626 8.21702C13.5257 8.53681 13.7757 8.78681 14.0955 8.84989L21.3157 10.2741C22.1798 10.4446 22.1798 11.6804 21.3157 11.8509L14.0955 13.2751C13.7757 13.3382 13.5257 13.5882 13.4626 13.908L12.0384 21.1282C11.8679 21.9923 10.6321 21.9923 10.4616 21.1282L9.03739 13.908C8.97431 13.5882 8.72431 13.3382 8.40452 13.2751L1.18426 11.8509C0.32018 11.6804 0.320182 10.4446 1.18426 10.2741L8.40452 8.84989C8.72431 8.78681 8.97431 8.53681 9.03739 8.21702L10.4616 0.996759Z" fill="url(#paint0_linear_321_4017)"></path><defs><linearGradient id="paint0_linear_321_4017" x1="15.7996" y1="-1.55239" x2="2.56434" y2="25.125" gradientUnits="userSpaceOnUse"><stop offset="0.201703" stop-color="#FFAC45"></stop><stop offset="1" stop-color="#FFDA55"></stop></linearGradient></defs></svg> 