<?xml version="1.0" encoding="UTF-8"?> <svg xmlns="http://www.w3.org/2000/svg" width="44" height="44" viewBox="0 0 44 44" fill="none"><path d="M20.5482 1.80602C20.8891 0.0778591 23.3609 0.0778633 23.7018 1.80602L26.5502 16.2465C26.6764 16.8861 27.1764 17.3861 27.816 17.5123L42.2565 20.3607C43.9846 20.7016 43.9846 23.1734 42.2565 23.5143L27.816 26.3627C27.1764 26.4889 26.6764 26.9889 26.5502 27.6285L23.7018 42.069C23.3609 43.7971 20.8891 43.7971 20.5482 42.069L17.6998 27.6285C17.5736 26.9889 17.0736 26.4889 16.434 26.3627L1.99352 23.5143C0.265359 23.1734 0.265363 20.7016 1.99352 20.3607L16.434 17.5123C17.0736 17.3861 17.5736 16.8861 17.6998 16.2465L20.5482 1.80602Z" fill="url(#paint0_linear_321_4016)"></path><defs><linearGradient id="paint0_linear_321_4016" x1="31.2243" y1="-3.29228" x2="4.75367" y2="50.0625" gradientUnits="userSpaceOnUse"><stop offset="0.201703" stop-color="#FFAC45"></stop><stop offset="1" stop-color="#FFDA55"></stop></linearGradient></defs></svg> 