<?xml version="1.0" encoding="UTF-8"?> <svg xmlns="http://www.w3.org/2000/svg" width="13" height="8" viewBox="0 0 13 8" fill="none"><path d="M0.22478 1.16736C0.605214 1.92564 1.21339 2.69686 1.89144 3.4215C3.21132 4.82677 4.51049 6.24758 5.88988 7.60627L5.89506 7.61145C6.08657 7.80037 6.39454 7.79778 6.58346 7.60627C6.90955 7.27501 7.23564 6.93857 7.55396 6.59696C7.77135 6.39251 7.98874 6.19064 8.20354 5.98619C9.56741 4.68185 10.9106 3.3568 12.1632 1.95411C12.5203 1.55556 12.748 1.15701 12.5539 1.01985C12.378 0.893035 11.9975 1.0509 11.5912 1.42098C10.864 2.0861 10.1264 2.75121 9.43284 3.45514C8.36141 4.53951 7.31845 5.65234 6.26514 6.75224C4.53119 4.69737 2.49962 2.87026 0.628506 0.918914C0.540515 0.825747 0.333475 0.748107 0.242896 0.748107C0.0695007 0.748107 0.108321 0.939618 0.22478 1.16736Z" fill="black"></path></svg> 