<?xml version="1.0" encoding="UTF-8"?> <svg xmlns="http://www.w3.org/2000/svg" width="254" height="25" viewBox="0 0 254 25" fill="none"><g clip-path="url(#clip0_321_4971)"><rect x="0.25" y="0.75" width="253.125" height="23.75" rx="6.25" fill="#E9ECFF"></rect><g opacity="0.5"><line x1="3.0625" y1="21.375" x2="3.0625" y2="27.625" stroke="#8694EA" stroke-width="0.625"></line><line x1="6.1875" y1="21.375" x2="6.1875" y2="27.625" stroke="#8694EA" stroke-width="0.625"></line><line x1="9.3125" y1="21.375" x2="9.3125" y2="27.625" stroke="#8694EA" stroke-width="0.625"></line><line x1="12.4375" y1="21.375" x2="12.4375" y2="27.625" stroke="#8694EA" stroke-width="0.625"></line><line x1="15.5625" y1="18.25" x2="15.5625" y2="30.75" stroke="#8694EA" stroke-width="0.625"></line><line x1="18.6875" y1="21.375" x2="18.6875" y2="27.625" stroke="#8694EA" stroke-width="0.625"></line><line x1="21.8125" y1="21.375" x2="21.8125" y2="27.625" stroke="#8694EA" stroke-width="0.625"></line><line x1="24.9375" y1="21.375" x2="24.9375" y2="27.625" stroke="#8694EA" stroke-width="0.625"></line><line x1="28.0625" y1="21.375" x2="28.0625" y2="27.625" stroke="#8694EA" stroke-width="0.625"></line><line x1="31.1875" y1="18.25" x2="31.1875" y2="30.75" stroke="#8694EA" stroke-width="0.625"></line><line x1="34.3125" y1="21.375" x2="34.3125" y2="27.625" stroke="#8694EA" stroke-width="0.625"></line><line x1="37.4375" y1="21.375" x2="37.4375" y2="27.625" stroke="#8694EA" stroke-width="0.625"></line><line x1="40.5625" y1="21.375" x2="40.5625" y2="27.625" stroke="#8694EA" stroke-width="0.625"></line><line x1="43.6875" y1="21.375" x2="43.6875" y2="27.625" stroke="#8694EA" stroke-width="0.625"></line><line x1="46.8125" y1="18.25" x2="46.8125" y2="30.75" stroke="#8694EA" stroke-width="0.625"></line><line x1="49.9375" y1="21.375" x2="49.9375" y2="27.625" stroke="#8694EA" stroke-width="0.625"></line><line x1="53.0625" y1="21.375" x2="53.0625" y2="27.625" stroke="#8694EA" stroke-width="0.625"></line><line x1="56.1875" y1="21.375" x2="56.1875" y2="27.625" stroke="#8694EA" stroke-width="0.625"></line><line x1="59.3125" y1="21.375" x2="59.3125" y2="27.625" stroke="#8694EA" stroke-width="0.625"></line><line x1="62.4375" y1="18.25" x2="62.4375" y2="30.75" stroke="#8694EA" stroke-width="0.625"></line><line x1="65.5625" y1="21.375" x2="65.5625" y2="27.625" stroke="#8694EA" stroke-width="0.625"></line><line x1="68.6875" y1="21.375" x2="68.6875" y2="27.625" stroke="#8694EA" stroke-width="0.625"></line><line x1="71.8125" y1="21.375" x2="71.8125" y2="27.625" stroke="#8694EA" stroke-width="0.625"></line><line x1="74.9375" y1="21.375" x2="74.9375" y2="27.625" stroke="#8694EA" stroke-width="0.625"></line><line x1="78.0625" y1="18.25" x2="78.0625" y2="30.75" stroke="#8694EA" stroke-width="0.625"></line><line x1="81.1875" y1="21.375" x2="81.1875" y2="27.625" stroke="#8694EA" stroke-width="0.625"></line><line x1="84.3125" y1="21.375" x2="84.3125" y2="27.625" stroke="#8694EA" stroke-width="0.625"></line><line x1="87.4375" y1="21.375" x2="87.4375" y2="27.625" stroke="#8694EA" stroke-width="0.625"></line><line x1="90.5625" y1="21.375" x2="90.5625" y2="27.625" stroke="#8694EA" stroke-width="0.625"></line><line x1="93.6875" y1="18.25" x2="93.6875" y2="30.75" stroke="#8694EA" stroke-width="0.625"></line><line x1="96.8125" y1="21.375" x2="96.8125" y2="27.625" stroke="#8694EA" stroke-width="0.625"></line><line x1="99.9375" y1="21.375" x2="99.9375" y2="27.625" stroke="#8694EA" stroke-width="0.625"></line><line x1="103.062" y1="21.375" x2="103.062" y2="27.625" stroke="#8694EA" stroke-width="0.625"></line><line x1="106.188" y1="21.375" x2="106.188" y2="27.625" stroke="#8694EA" stroke-width="0.625"></line><line x1="109.312" y1="18.25" x2="109.312" y2="30.75" stroke="#8694EA" stroke-width="0.625"></line><line x1="112.438" y1="21.375" x2="112.438" y2="27.625" stroke="#8694EA" stroke-width="0.625"></line><line x1="115.562" y1="21.375" x2="115.562" y2="27.625" stroke="#8694EA" stroke-width="0.625"></line><line x1="118.688" y1="21.375" x2="118.688" y2="27.625" stroke="#8694EA" stroke-width="0.625"></line><line x1="121.812" y1="21.375" x2="121.812" y2="27.625" stroke="#8694EA" stroke-width="0.625"></line><line x1="124.938" y1="18.25" x2="124.938" y2="30.75" stroke="#8694EA" stroke-width="0.625"></line><line x1="128.062" y1="21.375" x2="128.062" y2="27.625" stroke="#8694EA" stroke-width="0.625"></line><line x1="131.188" y1="21.375" x2="131.188" y2="27.625" stroke="#8694EA" stroke-width="0.625"></line><line x1="134.312" y1="21.375" x2="134.312" y2="27.625" stroke="#8694EA" stroke-width="0.625"></line><line x1="137.438" y1="21.375" x2="137.438" y2="27.625" stroke="#8694EA" stroke-width="0.625"></line><line x1="140.562" y1="18.25" x2="140.562" y2="30.75" stroke="#8694EA" stroke-width="0.625"></line><line x1="143.688" y1="21.375" x2="143.688" y2="27.625" stroke="#8694EA" stroke-width="0.625"></line><line x1="146.812" y1="21.375" x2="146.812" y2="27.625" stroke="#8694EA" stroke-width="0.625"></line><line x1="149.938" y1="21.375" x2="149.938" y2="27.625" stroke="#8694EA" stroke-width="0.625"></line><line x1="153.062" y1="21.375" x2="153.062" y2="27.625" stroke="#8694EA" stroke-width="0.625"></line><line x1="156.188" y1="18.25" x2="156.188" y2="30.75" stroke="#8694EA" stroke-width="0.625"></line><line x1="159.312" y1="21.375" x2="159.312" y2="27.625" stroke="#8694EA" stroke-width="0.625"></line><line x1="162.438" y1="21.375" x2="162.438" y2="27.625" stroke="#8694EA" stroke-width="0.625"></line><line x1="165.562" y1="21.375" x2="165.562" y2="27.625" stroke="#8694EA" stroke-width="0.625"></line><line x1="168.688" y1="21.375" x2="168.688" y2="27.625" stroke="#8694EA" stroke-width="0.625"></line><line x1="171.812" y1="18.25" x2="171.812" y2="30.75" stroke="#8694EA" stroke-width="0.625"></line><line x1="174.938" y1="21.375" x2="174.938" y2="27.625" stroke="#8694EA" stroke-width="0.625"></line><line x1="178.062" y1="21.375" x2="178.062" y2="27.625" stroke="#8694EA" stroke-width="0.625"></line><line x1="181.188" y1="21.375" x2="181.188" y2="27.625" stroke="#8694EA" stroke-width="0.625"></line><line x1="184.312" y1="21.375" x2="184.312" y2="27.625" stroke="#8694EA" stroke-width="0.625"></line><line x1="187.438" y1="18.25" x2="187.438" y2="30.75" stroke="#8694EA" stroke-width="0.625"></line><line x1="190.562" y1="21.375" x2="190.562" y2="27.625" stroke="#8694EA" stroke-width="0.625"></line><line x1="193.688" y1="21.375" x2="193.688" y2="27.625" stroke="#8694EA" stroke-width="0.625"></line><line x1="196.812" y1="21.375" x2="196.812" y2="27.625" stroke="#8694EA" stroke-width="0.625"></line><line x1="199.938" y1="21.375" x2="199.938" y2="27.625" stroke="#8694EA" stroke-width="0.625"></line><line x1="203.062" y1="18.25" x2="203.062" y2="30.75" stroke="#8694EA" stroke-width="0.625"></line><line x1="206.188" y1="21.375" x2="206.188" y2="27.625" stroke="#8694EA" stroke-width="0.625"></line><line x1="209.312" y1="21.375" x2="209.312" y2="27.625" stroke="#8694EA" stroke-width="0.625"></line><line x1="212.438" y1="21.375" x2="212.438" y2="27.625" stroke="#8694EA" stroke-width="0.625"></line><line x1="215.562" y1="21.375" x2="215.562" y2="27.625" stroke="#8694EA" stroke-width="0.625"></line><line x1="218.688" y1="18.25" x2="218.688" y2="30.75" stroke="#8694EA" stroke-width="0.625"></line><line x1="221.812" y1="21.375" x2="221.812" y2="27.625" stroke="#8694EA" stroke-width="0.625"></line><line x1="224.938" y1="21.375" x2="224.938" y2="27.625" stroke="#8694EA" stroke-width="0.625"></line><line x1="228.062" y1="21.375" x2="228.062" y2="27.625" stroke="#8694EA" stroke-width="0.625"></line><line x1="231.188" y1="21.375" x2="231.188" y2="27.625" stroke="#8694EA" stroke-width="0.625"></line><line x1="234.312" y1="18.25" x2="234.312" y2="30.75" stroke="#8694EA" stroke-width="0.625"></line><line x1="237.438" y1="21.375" x2="237.438" y2="27.625" stroke="#8694EA" stroke-width="0.625"></line><line x1="240.562" y1="21.375" x2="240.562" y2="27.625" stroke="#8694EA" stroke-width="0.625"></line><line x1="243.688" y1="21.375" x2="243.688" y2="27.625" stroke="#8694EA" stroke-width="0.625"></line><line x1="246.812" y1="21.375" x2="246.812" y2="27.625" stroke="#8694EA" stroke-width="0.625"></line><line x1="249.938" y1="18.25" x2="249.938" y2="30.75" stroke="#8694EA" stroke-width="0.625"></line><line x1="253.062" y1="21.375" x2="253.062" y2="27.625" stroke="#8694EA" stroke-width="0.625"></line></g><path d="M67.9975 4.10929C67.9975 5.3318 67.0065 6.32284 65.784 6.32284C64.5615 6.32284 63.5704 5.3318 63.5704 4.10929C63.5704 2.88679 64.5615 1.89575 65.784 1.89575C67.0065 1.89575 67.9975 2.88679 67.9975 4.10929Z" fill="#8694EA"></path><path fill-rule="evenodd" clip-rule="evenodd" d="M58.3041 5.37608C58.4896 5.35046 58.7095 5.32714 58.9423 5.33746C59.0132 5.34061 59.0936 5.34635 59.1843 5.35577C61.2939 5.57474 62.8592 7.15807 63.9018 8.7218L63.957 8.80457C64.4907 9.60507 65.3891 10.0859 66.3512 10.0859H67.9975C68.3642 10.0859 68.6615 10.3833 68.6615 10.75C68.6615 11.1167 68.3642 11.4141 67.9975 11.4141H66.3512C64.9451 11.4141 63.6319 10.7113 62.8519 9.54132L62.7967 9.45853C62.5554 9.09666 62.2963 8.7531 62.0199 8.43856L60.3518 10.5234C59.9734 10.9964 59.7195 11.3148 59.5485 11.5764C59.3828 11.8299 59.3355 11.9712 59.3229 12.0784C59.3022 12.2555 59.3245 12.4349 59.388 12.6015C59.4265 12.7024 59.507 12.8278 59.7298 13.0329C59.9598 13.2445 60.2839 13.491 60.7667 13.8567C60.7953 13.8784 60.8235 13.8997 60.8512 13.9208C61.4895 14.4038 61.9315 14.7384 62.2373 15.1854C62.4112 15.4395 62.5489 15.7166 62.6465 16.0087C62.8181 16.5224 62.8178 17.0767 62.8175 17.8772C62.8175 17.912 62.8174 17.9473 62.8174 17.9831V19.604C62.8174 19.9707 62.5202 20.268 62.1534 20.268C61.7866 20.268 61.4893 19.9707 61.4893 19.604V17.9831C61.4893 17.0352 61.4813 16.7126 61.3867 16.4293C61.3282 16.2541 61.2456 16.0879 61.1413 15.9354C60.9727 15.689 60.7203 15.4878 59.9647 14.9154L59.9392 14.8961C59.4885 14.5545 59.1128 14.27 58.8303 14.0101C58.5355 13.7386 58.2894 13.448 58.147 13.0747C58.0073 12.7082 57.9581 12.3134 58.0038 11.9238C58.0503 11.527 58.2176 11.1849 58.437 10.8495C58.647 10.5283 58.9415 10.1602 59.2948 9.71875L61.0511 7.52352C60.4427 7.06067 59.7728 6.7521 59.0472 6.67679C58.9816 6.66998 58.9272 6.66623 58.8835 6.66429C58.7703 6.65927 58.6435 6.66995 58.4858 6.69172C57.5425 6.82197 56.5973 7.346 54.5447 8.51229L53.2735 9.23452C52.9546 9.41576 52.5492 9.30411 52.3681 8.98527C52.1869 8.66636 52.2985 8.26099 52.6174 8.07981L53.8885 7.35755C53.9339 7.33179 53.9788 7.30624 54.0234 7.28093C55.8996 6.21458 57.0768 5.54556 58.3041 5.37608Z" fill="#8694EA"></path><path d="M57.7975 14.6669C58.0792 14.9016 58.1173 15.3203 57.8825 15.6022L56.9964 16.6655L56.911 16.768C56.3425 17.4513 55.9252 17.9528 55.3426 18.2256C54.76 18.4985 54.1076 18.498 53.2188 18.4974L53.0853 18.4973H52.0599C51.6931 18.4973 51.3958 18.2 51.3958 17.8332C51.3958 17.4665 51.6931 17.1692 52.0599 17.1692H53.0853C54.1669 17.1692 54.4983 17.1545 54.7793 17.0229C55.0603 16.8913 55.2837 16.6462 55.9761 15.8152L56.8622 14.7519C57.097 14.4701 57.5158 14.4321 57.7975 14.6669Z" fill="#A8B3FD"></path></g><defs><clipPath id="clip0_321_4971"><rect x="0.25" y="0.75" width="253.125" height="23.75" rx="6.25" fill="white"></rect></clipPath></defs></svg> 