<?xml version="1.0" encoding="UTF-8"?> <svg xmlns="http://www.w3.org/2000/svg" width="19" height="14" viewBox="0 0 19 14" fill="none"><path d="M16.3066 10.4258C16.3066 8.86718 15.0351 7.5957 13.4765 7.5957C12.4042 7.5957 11.4843 8.19924 11.0039 9.08397H7.74603C7.26559 8.19924 6.34567 7.5957 5.27339 7.5957C3.71481 7.5957 2.4433 8.86718 2.4433 10.4258C2.4433 11.9902 3.71481 13.2617 5.27339 13.2617C6.83197 13.2617 8.10348 11.9902 8.10348 10.4258C8.10348 10.3672 8.09175 10.3145 8.08588 10.2558H10.664C10.6582 10.3145 10.6464 10.3672 10.6464 10.4258C10.6464 11.9902 11.9179 13.2617 13.4765 13.2617C15.0351 13.2617 16.3066 11.9902 16.3066 10.4258Z" fill="url(#paint0_linear_321_5942)"></path><path d="M17.7363 6.16021C16.8164 5.90239 15.8847 5.6856 14.9531 5.50982L14.0507 0.96294C14.0156 0.793035 13.9101 0.646551 13.7636 0.564508C13.6113 0.482471 13.4296 0.470776 13.2715 0.529352C10.7578 1.47857 7.99216 1.47857 5.47847 0.529352C5.32029 0.46491 5.13865 0.482471 4.99217 0.564508C4.83982 0.646545 4.73436 0.793029 4.6992 0.96294L3.79683 5.50982C2.86521 5.6856 1.93356 5.90239 1.00776 6.16021C0.697235 6.25397 0.52146 6.57623 0.609333 6.88676C0.697235 7.19733 1.0195 7.3731 1.33006 7.29106C6.59177 5.78523 12.1582 5.78523 17.4199 7.29106C17.4726 7.30279 17.5253 7.31452 17.5781 7.31452C17.8359 7.31452 18.0703 7.14457 18.1406 6.88676C18.2285 6.57623 18.0527 6.25397 17.7363 6.16021Z" fill="url(#paint1_linear_321_5942)"></path><defs><linearGradient id="paint0_linear_321_5942" x1="6.61356" y1="17.1886" x2="17.7146" y2="9.75421" gradientUnits="userSpaceOnUse"><stop stop-color="#4F4789"></stop><stop offset="1" stop-color="#B5B5FF"></stop></linearGradient><linearGradient id="paint1_linear_321_5942" x1="5.87395" y1="12.0442" x2="19.4926" y2="2.44355" gradientUnits="userSpaceOnUse"><stop stop-color="#4F4789"></stop><stop offset="1" stop-color="#B5B5FF"></stop></linearGradient></defs></svg> 