<?xml version="1.0" encoding="UTF-8"?> <svg xmlns="http://www.w3.org/2000/svg" width="18" height="13" viewBox="0 0 18 13" fill="none"><path d="M14.1868 0H3.31328C2.87874 -9.49112e-08 2.44846 0.0856247 2.04703 0.251981C1.6456 0.418337 1.28088 0.662163 0.97372 0.969528C0.666558 1.27689 0.422972 1.64177 0.256881 2.04331C0.0907907 2.44485 0.00545083 2.87519 0.00573803 3.30972V9.19028C0.00545083 9.62481 0.0907907 10.0551 0.256881 10.4567C0.422972 10.8582 0.666558 11.2231 0.97372 11.5305C1.28088 11.8378 1.6456 12.0817 2.04703 12.248C2.44846 12.4144 2.87874 12.5 3.31328 12.5H14.1868C14.6214 12.5 15.0516 12.4144 15.4531 12.248C15.8545 12.0817 16.2192 11.8378 16.5264 11.5305C16.8336 11.2231 17.0771 10.8582 17.2432 10.4567C17.4093 10.0551 17.4947 9.62481 17.4944 9.19028V3.30972C17.4947 2.87519 17.4093 2.44485 17.2432 2.04331C17.0771 1.64177 16.8336 1.27689 16.5264 0.969528C16.2192 0.662163 15.8545 0.418337 15.4531 0.251981C15.0516 0.0856247 14.6214 -9.49112e-08 14.1868 0ZM6.44593 8.93013V3.56987L11.0542 6.25L6.44593 8.93013Z" fill="white"></path></svg> 