<?xml version="1.0" encoding="UTF-8"?> <svg xmlns="http://www.w3.org/2000/svg" width="71" height="70" viewBox="0 0 71 70" fill="none"><path d="M56.993 35.0542C57.0455 35.1215 57.0646 35.1459 57.0523 35.1293C57.0845 35.1712 57.1165 35.2132 57.1483 35.2553C57.6153 35.8741 58.0508 36.5165 58.4598 37.1748C59.3127 38.5478 60.0538 39.99 60.7204 41.4618C60.799 41.6355 60.8763 41.8098 60.9524 41.9846C60.9828 42.0546 61.0131 42.1249 61.0431 42.1953C61.0501 42.2129 61.1143 42.3647 61.1161 42.369C61.2636 42.7253 61.4055 43.0838 61.5419 43.4446C61.8162 44.171 62.0677 44.9063 62.2935 45.6493C62.7448 47.1349 63.0881 48.6495 63.3111 50.1861C63.3148 50.2117 63.3176 50.23 63.3199 50.2456C63.3217 50.2616 63.324 50.2807 63.3271 50.3077C63.3384 50.4029 63.3505 50.4981 63.3615 50.5933C63.3796 50.7518 63.3964 50.9104 63.4114 51.0691C63.4506 51.4796 63.4795 51.8912 63.4973 52.3031C63.5297 53.0545 63.5248 53.8079 63.4768 54.5586C63.4549 54.8987 63.4243 55.2384 63.3843 55.577C63.3827 55.5898 63.3654 55.7229 63.3617 55.7543C63.3519 55.8226 63.3421 55.8907 63.3316 55.9588C63.2986 56.1713 63.2618 56.3832 63.221 56.5944C63.0815 57.3144 62.8953 58.0257 62.6578 58.7195C62.6085 58.8639 62.5569 59.0075 62.5031 59.1502C62.4709 59.2359 62.4377 59.3213 62.404 59.4064C62.4006 59.4146 62.3599 59.5137 62.3427 59.5563C62.2041 59.8796 62.0527 60.1978 61.8898 60.5095C61.5579 61.1446 61.176 61.7515 60.7524 62.3292C60.4495 62.7423 60.6694 63.4354 61.1024 63.6641C61.6106 63.9326 62.114 63.7551 62.4373 63.3141C64.3681 60.6804 65.2929 57.4693 65.4464 54.2321C65.6019 50.9537 64.9941 47.6377 63.9859 44.5273C62.9439 41.313 61.4853 38.1456 59.5953 35.3396C58.0998 33.1195 56.2462 31.0856 53.9942 29.637C54.3744 27.8786 54.4694 26.0587 54.2467 24.2748C53.8647 21.2116 52.7117 18.274 50.8946 15.7745C49.0918 13.2948 46.7216 11.206 43.94 9.8898C41.175 8.58145 38.1019 8.03704 35.0557 8.35666C34.2703 8.43901 33.49 8.57111 32.721 8.75044C31.8337 5.69177 29.8844 2.96893 26.9678 1.56711C23.8398 0.0636365 20.2922 0.0560269 16.9215 0.520046C13.2642 1.02348 9.64937 2.04343 6.21645 3.39021C4.47432 4.07375 2.76733 4.84549 1.10775 5.71012C0.654263 5.94622 0.481769 6.61708 0.757682 7.045C1.05545 7.50687 1.60767 7.64756 2.09257 7.39506C5.24548 5.75265 8.4622 4.49446 11.9283 3.55529C13.5984 3.10279 15.2949 2.72404 17.0062 2.46452C17.1026 2.44988 17.199 2.43642 17.2953 2.42198C17.3248 2.41768 17.3451 2.41456 17.3615 2.41203C17.3775 2.41008 17.3964 2.40773 17.423 2.40442C17.5847 2.38393 17.7467 2.36402 17.9088 2.34588C18.3311 2.29866 18.7545 2.261 19.1787 2.23485C19.9579 2.18665 20.74 2.17631 21.5197 2.21729C21.8729 2.23582 22.2257 2.2649 22.5769 2.30588C22.5863 2.30705 22.7393 2.32754 22.7639 2.33027C22.8363 2.341 22.9089 2.35154 22.981 2.36344C23.2002 2.39895 23.4185 2.43974 23.6355 2.48579C23.9743 2.55779 24.3103 2.64306 24.6418 2.74297C24.8217 2.79721 25.0004 2.85575 25.1774 2.91878C25.2658 2.9502 25.3538 2.98278 25.4412 3.01654C25.4643 3.02552 25.6516 3.10396 25.6828 3.11547C26.3453 3.41148 26.9736 3.77072 27.558 4.20137C27.576 4.21464 27.5869 4.22244 27.5928 4.22635C27.6013 4.23337 27.6103 4.24079 27.6216 4.24976C27.6913 4.30615 27.7608 4.36274 27.8291 4.4207C27.9649 4.53602 28.0972 4.65524 28.2261 4.77837C28.4818 5.02248 28.7233 5.28141 28.9501 5.55265C28.9918 5.6026 29.0324 5.65333 29.073 5.70407C29.0843 5.71968 29.1694 5.82953 29.1774 5.84027C29.2816 5.98232 29.3821 6.12691 29.4789 6.27404C29.6728 6.56908 29.8518 6.87407 30.0159 7.18666C30.0982 7.34374 30.1771 7.50258 30.252 7.66337C30.2896 7.74396 30.3254 7.82533 30.3622 7.9063C30.3714 7.92621 30.3782 7.94104 30.3841 7.95372C30.389 7.9666 30.3948 7.98162 30.4026 8.00153C30.5339 8.33539 30.6573 8.67102 30.764 9.01386C30.7929 9.10655 30.8183 9.20041 30.845 9.29368C29.3224 9.8217 27.8696 10.548 26.5447 11.4737C25.3062 12.3391 24.1669 13.3489 23.2068 14.5177C22.0823 15.8867 20.9753 17.4886 20.834 19.305C20.6036 22.2706 23.6486 24.1669 26.315 24.0984C29.603 24.0139 31.7627 21.1615 32.6673 18.2599C33.417 15.8549 33.5616 13.1684 33.1471 10.6442C33.3251 10.6018 33.5036 10.562 33.683 10.5253C33.9956 10.4615 34.3099 10.4102 34.6249 10.3601C34.6444 10.3569 34.6596 10.3544 34.6723 10.3525C34.6832 10.3513 34.6949 10.3499 34.7099 10.348C34.7962 10.3376 34.8824 10.3269 34.9689 10.3173C35.1702 10.2951 35.3722 10.2765 35.5744 10.2617C36.238 10.2129 36.9046 10.2036 37.5694 10.236C37.9159 10.2527 38.2621 10.2808 38.6069 10.3203C38.6246 10.3222 38.7339 10.3361 38.7698 10.3402C38.8297 10.3487 38.8898 10.3571 38.9495 10.3663C39.121 10.3928 39.2924 10.4221 39.4629 10.4545C40.1488 10.5845 40.8255 10.7624 41.487 10.9857C41.8015 11.0918 42.1118 11.2093 42.4191 11.3347C42.4605 11.3523 42.546 11.3882 42.5577 11.3935C42.6242 11.4227 42.6907 11.4526 42.7569 11.4828C42.929 11.5615 43.0997 11.643 43.2689 11.7275C43.8937 12.0399 44.498 12.3925 45.0786 12.781C45.3677 12.9746 45.6503 13.1775 45.9276 13.3877C45.9332 13.3922 45.9383 13.3959 45.9416 13.3986C46.0101 13.4531 46.0788 13.5071 46.1467 13.5623C46.3053 13.6909 46.4616 13.8223 46.6158 13.9563C47.1446 14.4164 47.6461 14.9078 48.1173 15.4266C48.3335 15.6647 48.5433 15.9086 48.7466 16.1578C48.802 16.2257 48.8563 16.2948 48.9115 16.363C48.9263 16.3812 48.9369 16.3943 48.9458 16.4052C48.9534 16.4155 48.9626 16.4276 48.9741 16.4429C49.0975 16.6064 49.2192 16.7709 49.3377 16.9379C49.7435 17.5106 50.1162 18.1069 50.4528 18.7228C50.607 19.0049 50.7537 19.2914 50.8925 19.5813C50.9682 19.7396 51.0413 19.8988 51.1124 20.0592C51.1178 20.0713 51.16 20.1693 51.1762 20.2061C51.2131 20.2947 51.2493 20.3837 51.2847 20.4729C51.542 21.1246 51.7604 21.7918 51.9356 22.4702C52.0158 22.7813 52.0874 23.0944 52.1495 23.4094C52.1834 23.5813 52.2145 23.7538 52.243 23.9269C52.2572 24.0133 52.2695 24.1001 52.2833 24.1868C52.288 24.2194 52.2909 24.2403 52.2929 24.2545C52.2956 24.2758 52.2984 24.2972 52.3009 24.3185C52.384 24.9993 52.4217 25.685 52.4129 26.3707C52.4084 26.7219 52.3918 27.0731 52.3635 27.4234C52.3493 27.5988 52.3323 27.7739 52.3122 27.9487C52.3126 27.9458 52.3044 28.0131 52.2984 28.0652C52.2919 28.1066 52.2683 28.2775 52.2648 28.2999C52.2465 28.419 52.2248 28.5374 52.2035 28.656C52.1017 28.6094 52.001 28.5606 51.8978 28.5163C48.7009 27.1475 45.0069 26.8616 41.8322 28.4615C40.3671 29.1997 39.0348 30.39 38.3073 31.8772C37.5871 33.3493 37.4053 35.1369 37.9957 36.688C38.6047 38.2875 39.8785 39.4758 41.5412 39.9209C43.0953 40.3367 44.8159 40.1332 46.2983 39.5457C49.172 38.4069 51.432 36.031 52.755 33.2691C53.0145 32.7276 53.243 32.1707 53.4414 31.6031C53.4442 31.605 53.4469 31.6066 53.4494 31.6084C53.5298 31.6644 53.6096 31.7213 53.6889 31.7791C53.7103 31.7947 53.8859 31.9268 53.9053 31.9403C54.5328 32.4281 55.1213 32.9686 55.6731 33.5401C55.929 33.8049 56.177 34.0775 56.4174 34.3564C56.5487 34.5088 56.6777 34.6629 56.8045 34.819C56.8677 34.8967 56.93 34.9757 56.993 35.0542ZM31.2983 15.316C31.2916 15.3767 31.284 15.4373 31.2768 15.4978C31.2745 15.5121 31.2555 15.658 31.2528 15.6756C31.2306 15.8237 31.2062 15.9714 31.1796 16.1189C31.1102 16.5041 31.0257 16.8866 30.924 17.2643C30.8382 17.5834 30.7404 17.8993 30.6288 18.2103C30.5741 18.3627 30.5156 18.5138 30.4536 18.6634C30.4348 18.705 30.3956 18.7944 30.3909 18.8047C30.3417 18.912 30.2906 19.0186 30.2375 19.1241C30.0928 19.4114 29.9331 19.6914 29.7567 19.9605C29.6713 20.0908 29.5809 20.2182 29.4873 20.3429C29.4594 20.3773 29.4018 20.4497 29.3938 20.4594C29.32 20.5476 29.2439 20.6339 29.1657 20.7182C28.9633 20.9361 28.745 21.139 28.514 21.3264C28.4794 21.3517 28.4018 21.4109 28.3914 21.4183C28.32 21.4684 28.2476 21.5172 28.174 21.5642C28.0154 21.6657 27.8525 21.7609 27.6831 21.8435C27.638 21.8655 27.416 21.9533 27.657 21.8604C27.6127 21.8774 27.5689 21.8952 27.5245 21.9114C27.3908 21.9602 27.2548 22.0019 27.117 22.0372C26.9783 22.0727 26.8386 22.0981 26.6979 22.1239C26.6973 22.1239 26.6969 22.1241 26.6963 22.1241C26.6889 22.1245 26.6825 22.1247 26.6731 22.1252C26.5775 22.1311 26.4825 22.141 26.3867 22.1449C26.1221 22.1555 25.8598 22.1403 25.5966 22.1155C25.5962 22.1155 25.596 22.1155 25.5956 22.1155C25.588 22.1139 25.581 22.1124 25.571 22.1104C25.5006 22.0962 25.4297 22.085 25.3593 22.0704C25.2077 22.0384 25.0574 22 24.9091 21.9547C24.7842 21.9166 24.6627 21.871 24.5399 21.8273C24.5341 21.8253 24.5306 21.824 24.5255 21.8222C24.5212 21.8201 24.5181 21.8185 24.5132 21.8162C24.4502 21.7853 24.3864 21.7568 24.3239 21.725C24.2002 21.6622 24.0794 21.5939 23.9618 21.5201C23.9114 21.4885 23.7085 21.333 23.7034 21.3367C23.5475 21.1993 23.4023 21.0563 23.2616 20.9037C23.2726 20.9072 23.1159 20.7117 23.0833 20.6581C23.0234 20.5597 22.973 20.4578 22.9227 20.355C23.0015 20.5107 22.8632 20.18 22.8433 20.1062C22.8257 20.0412 22.8105 19.9759 22.7972 19.9097C22.7931 19.8875 22.789 19.8652 22.7847 19.843C22.7676 19.7347 22.7697 19.7534 22.7912 19.8986C22.7299 19.8295 22.7746 19.4908 22.7785 19.4094C22.7812 19.3513 22.7861 19.2927 22.7922 19.2346C22.7951 19.2178 22.7994 19.1932 22.806 19.1522C22.8191 19.0839 22.8339 19.0162 22.8503 18.9487C23.0326 18.1988 23.3977 17.5822 23.8615 16.8844C23.9577 16.7398 24.0564 16.5968 24.1579 16.4557C24.2084 16.3853 24.2597 16.3152 24.3116 16.2458C24.3189 16.236 24.3762 16.1619 24.4032 16.1265C24.6069 15.8688 24.818 15.6169 25.0379 15.373C25.5012 14.8592 25.9997 14.3774 26.5271 13.93C26.6592 13.818 26.7943 13.7101 26.9283 13.6008C26.9451 13.5871 26.9576 13.577 26.9679 13.5682C26.9779 13.5608 26.9898 13.5518 27.0042 13.5409C27.0503 13.5061 27.0963 13.4714 27.1426 13.4369C27.4439 13.2131 27.753 12.9996 28.0689 12.7968C28.6531 12.4218 29.2609 12.0833 29.8867 11.7828C30.0434 11.7074 30.2013 11.6347 30.3601 11.5642C30.413 11.5408 30.4662 11.5176 30.5193 11.4945C30.5355 11.4875 30.549 11.4817 30.5601 11.4766C30.5726 11.4717 30.5874 11.4661 30.6067 11.4583C30.8235 11.3728 31.0409 11.2903 31.2594 11.2102C31.2647 11.2475 31.2704 11.2871 31.2731 11.3041C31.2815 11.371 31.2899 11.4378 31.2975 11.5047C31.318 11.6862 31.3353 11.868 31.3498 12.0501C31.3787 12.4142 31.3954 12.7795 31.4007 13.1448C31.412 13.8697 31.3775 14.5954 31.2983 15.316ZM45.9174 13.3801C45.8798 13.3512 45.83 13.3137 45.9174 13.3801ZM51.3071 31.7604C51.3005 31.7771 51.2948 31.791 51.2903 31.8025C51.2847 31.8148 51.278 31.8292 51.2693 31.8484C51.2213 31.9541 51.1748 32.0605 51.1254 32.1657C50.832 32.793 50.4924 33.3993 50.1067 33.9747C50.0109 34.1177 49.9121 34.2586 49.8107 34.3977C49.7742 34.4479 49.7367 34.4973 49.6994 34.5468C49.6813 34.5693 49.6065 34.6653 49.5972 34.677C49.382 34.9435 49.1554 35.2011 48.9181 35.4481C48.7008 35.6743 48.4742 35.8919 48.2391 36.0993C48.1105 36.2126 47.9778 36.3206 47.8461 36.4302C47.8297 36.4439 47.8176 36.4542 47.8073 36.4628C47.7977 36.4698 47.7864 36.478 47.7727 36.4882C47.6806 36.5563 47.5885 36.6244 47.4948 36.6905C47.2359 36.8728 46.969 37.0435 46.6948 37.202C46.5438 37.2892 46.3906 37.3733 46.2349 37.4521C46.1561 37.4921 46.0764 37.5308 45.9963 37.5682C45.9426 37.5932 45.8885 37.6178 45.8345 37.6416C45.9313 37.6022 45.9266 37.6039 45.8208 37.6472C45.5139 37.7674 45.2034 37.875 44.885 37.9606C44.7115 38.0073 44.5365 38.0482 44.3601 38.083C44.2721 38.1003 44.1837 38.114 44.0957 38.1304C44.0697 38.1343 44.0516 38.137 44.0371 38.1392C43.9958 38.144 43.9544 38.1489 43.913 38.153C43.5919 38.1848 43.2683 38.1948 42.9458 38.179C42.859 38.1747 42.7723 38.1686 42.6859 38.1606C42.666 38.1587 42.5545 38.1421 42.522 38.138C42.3528 38.108 42.1846 38.074 42.0187 38.0279C41.8821 37.9901 41.7504 37.9421 41.6162 37.897C41.5994 37.8914 41.5857 37.8869 41.5742 37.8834C41.5643 37.8781 41.5524 37.872 41.5379 37.8646C41.4624 37.8266 41.3859 37.7913 41.3116 37.7511C41.1613 37.6701 41.021 37.5766 40.8792 37.4826C40.8634 37.472 40.8509 37.464 40.8403 37.4574C40.831 37.4484 40.82 37.4381 40.8052 37.4244C40.7192 37.3458 40.6311 37.2708 40.549 37.1879C40.4637 37.1019 40.3824 37.0111 40.3059 36.9171C40.2916 36.8942 40.2184 36.7928 40.2103 36.7803C40.1626 36.7083 40.1174 36.6349 40.0742 36.56C40.0311 36.4852 39.9905 36.409 39.9521 36.3317C39.9449 36.317 39.8965 36.2066 39.8832 36.1801C39.8297 36.0411 39.7819 35.8999 39.7421 35.7564C39.6953 35.5876 39.6621 35.4173 39.6295 35.2454C39.6264 35.2294 39.6239 35.2165 39.6217 35.2054C39.6214 35.1925 39.6206 35.1771 39.6194 35.1574C39.6143 35.0696 39.605 34.9824 39.6013 34.8945C39.5934 34.7185 39.5946 34.5423 39.6046 34.3663C39.6096 34.2781 39.6184 34.1905 39.626 34.1027C39.6276 34.0851 39.6284 34.0727 39.6292 34.0621C39.6321 34.0498 39.6356 34.0346 39.6403 34.0128C39.7097 33.6879 39.7876 33.3727 39.9035 33.0619C39.9189 33.0281 39.9661 32.9153 39.9722 32.9029C40.0116 32.8205 40.0532 32.7389 40.0967 32.6586C40.1833 32.4982 40.2776 32.3421 40.3787 32.1904C40.4292 32.1145 40.4825 32.041 40.5351 31.9668C40.5488 31.9475 40.5586 31.9334 40.5668 31.9215C40.5769 31.9104 40.5892 31.8968 40.6064 31.8771C40.7266 31.7395 40.8446 31.6011 40.9724 31.4702C41.0897 31.3502 41.2115 31.2345 41.3371 31.1233C41.3943 31.0725 41.4523 31.0226 41.511 30.9738C41.5475 30.9434 41.5846 30.9137 41.6216 30.884C41.6339 30.8749 41.6513 30.8618 41.6759 30.8435C41.9785 30.6302 42.2858 30.429 42.6121 30.2532C42.7477 30.1802 42.8853 30.1109 43.0246 30.0454C43.0921 30.0136 43.1604 29.9831 43.2289 29.9533C43.2496 29.9468 43.4475 29.868 43.4713 29.8592C43.834 29.7254 44.2057 29.6149 44.5823 29.5273C44.739 29.4908 44.8969 29.4584 45.0551 29.4299C45.1502 29.4128 45.2452 29.3977 45.3406 29.3829C45.4587 29.3657 45.4678 29.3646 45.3677 29.3792C45.4315 29.3716 45.4953 29.3646 45.5594 29.3581C46.3323 29.2807 47.1015 29.3035 47.873 29.3815C47.9011 29.3845 47.9208 29.3862 47.937 29.3876C47.9528 29.3903 47.9719 29.3934 47.9989 29.3977C48.0951 29.413 48.1911 29.4278 48.2871 29.4444C48.4471 29.4723 48.6067 29.5035 48.7655 29.5378C49.1804 29.6274 49.5905 29.7384 49.9945 29.8688C50.6909 30.0936 51.137 30.2758 51.7315 30.5812C51.6498 30.8409 51.5631 31.0993 51.4673 31.3543C51.4156 31.4901 51.3614 31.6253 51.3071 31.7604Z" fill="url(#paint0_linear_321_4051)"></path><path d="M70.3962 62.2803C70.0996 61.8204 69.5449 61.6752 69.0614 61.9302C66.1695 63.4564 63.2777 64.9823 60.3859 66.5084C60.0573 66.6817 59.7289 66.8551 59.4003 67.0284C59.4434 63.7959 59.2857 60.5614 58.921 57.3488C58.7944 56.2324 58.6441 55.1186 58.473 54.0084C58.395 53.5024 57.7341 53.1777 57.2728 53.327C56.7221 53.5051 56.5077 53.9849 56.5914 54.5272C56.6618 54.9842 56.7274 55.4418 56.7912 55.8998C56.7922 55.9064 56.7924 55.9079 56.7931 55.913C56.7937 55.9177 56.7939 55.9191 56.7947 55.9249C56.8009 55.9723 56.8072 56.0198 56.8134 56.0672C56.8279 56.1778 56.8421 56.2885 56.856 56.3993C56.8858 56.6366 56.9147 56.874 56.9424 57.1115C57.0515 58.0458 57.1432 58.9822 57.2177 59.9198C57.3655 61.7792 57.4453 63.6443 57.457 65.5095C57.4636 66.5619 57.4478 67.614 57.4115 68.6657C57.385 69.4365 58.2513 69.8396 58.8797 69.5081C61.7715 67.9822 64.6633 66.4561 67.5551 64.93C68.3854 64.4919 69.2157 64.0536 70.0462 63.6154C70.4983 63.3767 70.6733 62.71 70.3962 62.2803Z" fill="url(#paint1_linear_321_4051)"></path><defs><linearGradient id="paint0_linear_321_4051" x1="44.7562" y1="58.9" x2="12.9772" y2="-2.78989" gradientUnits="userSpaceOnUse"><stop stop-color="#B5B5FF"></stop><stop offset="1" stop-color="#4F4789"></stop></linearGradient><linearGradient id="paint1_linear_321_4051" x1="66.0712" y1="68.3676" x2="57.1145" y2="53.8121" gradientUnits="userSpaceOnUse"><stop stop-color="#B5B5FF"></stop><stop offset="1" stop-color="#4F4789"></stop></linearGradient></defs></svg> 