<?xml version="1.0" encoding="UTF-8"?> <svg xmlns="http://www.w3.org/2000/svg" width="125" height="125" viewBox="0 0 125 125" fill="none"><path d="M58.0264 102.694C78.396 105.783 97.413 91.7749 100.502 71.4053C103.591 51.0358 89.5826 32.0188 69.213 28.9297C48.8435 25.8406 29.8265 39.8492 26.7374 60.2188C23.6483 80.5883 37.6569 99.6053 58.0264 102.694Z" fill="url(#paint0_linear_321_6088)"></path><path d="M89.192 64.4086C89.192 64.4086 89.8121 62.4699 90.0672 62.5086C90.3223 62.5473 91.0331 64.3114 91.0331 64.3114C91.0331 64.3114 93.0177 64.9888 92.8454 65.2639C92.6731 65.5389 91.0313 66.0427 90.923 66.3275C90.8146 66.6122 90.5579 68.3048 90.2503 68.183C89.9427 68.0613 89.329 66.0857 89.329 66.0857C89.329 66.0857 87.0974 65.7473 87.4083 65.4181C87.7192 65.0887 89.192 64.4086 89.192 64.4086Z" fill="#FBFCFF"></path><path d="M38.1132 52.6254C38.1132 52.6254 38.7332 50.6867 38.9883 50.7254C39.2434 50.7641 39.9543 52.5282 39.9543 52.5282C39.9543 52.5282 41.9388 53.2056 41.7665 53.4807C41.5944 53.7558 39.9525 54.2595 39.8442 54.5443C39.7357 54.829 39.479 56.5216 39.1714 56.3998C38.8639 56.2778 38.2502 54.3025 38.2502 54.3025C38.2502 54.3025 36.0185 53.9641 36.3294 53.6349C36.6403 53.3055 38.1132 52.6254 38.1132 52.6254Z" fill="#FBFCFF"></path><path d="M52.0405 86.6834C52.0027 86.6777 51.9656 86.6695 51.9304 86.6588C50.451 86.2133 49.7939 83.4243 49.9771 78.3691C50.1109 74.6821 50.6541 71.0692 50.6596 71.0332C51.1502 67.7981 58.3523 63.243 61.4259 61.4347C66.1755 58.6402 72.2517 55.8263 74.1575 56.1153C74.3825 56.1494 74.5572 56.2282 74.6757 56.3489C74.9395 56.6169 75.0477 57.2064 73.8533 59.5444C69.9876 67.1092 55.2353 87.1679 52.0405 86.6834ZM74.0844 56.5945C72.5348 56.3595 67.082 58.6691 61.6708 61.8525C55.3944 65.545 51.4571 69.0043 51.1383 71.106C50.541 75.0451 49.5444 85.4349 52.0697 86.1948L52.1132 86.2046C53.0379 86.3451 56.1969 83.6953 62.2895 75.838C66.9413 69.8386 71.5189 63.048 73.4212 59.3243C74.6045 57.0088 74.333 56.6919 74.33 56.6889C74.2874 56.6452 74.2006 56.6121 74.0844 56.5945Z" fill="#FDFFFF"></path><path d="M50.899 71.0697C50.899 71.0697 35.7166 67.7872 39.3169 63.4332C42.9172 59.0791 79.468 47.4718 82.0514 49.8238C84.6348 52.1755 72.2629 88.5199 69.6501 89.5937C67.0373 90.6676 55.2236 78.0958 57.648 75.0334C60.0723 71.9711 73.5105 57.6755 72.0737 57.4576C67.7893 56.8076 50.899 71.0697 50.899 71.0697Z" fill="#FDFFFF"></path><path d="M83.7285 74.6131C83.7285 74.6131 84.528 72.1138 84.8568 72.1636C85.1855 72.2135 86.102 74.4878 86.102 74.4878C86.102 74.4878 88.6604 75.3611 88.4384 75.7155C88.2163 76.07 86.0999 76.7197 85.9601 77.0866C85.8203 77.4536 85.4893 79.6358 85.0927 79.4785C84.6961 79.3214 83.905 76.775 83.905 76.775C83.905 76.775 81.0282 76.3387 81.4289 75.9141C81.8298 75.49 83.7285 74.6131 83.7285 74.6131Z" fill="#FBFCFF"></path><path d="M46.0333 48.2694C46.0333 48.2694 46.8328 45.77 47.1616 45.8199C47.4903 45.8698 48.4068 48.144 48.4068 48.144C48.4068 48.144 50.9652 49.0173 50.7432 49.3718C50.5211 49.7263 48.4047 50.3759 48.2649 50.7431C48.1251 51.11 47.7941 53.2923 47.3975 53.135C47.0009 52.9778 46.2098 50.4314 46.2098 50.4314C46.2098 50.4314 43.333 49.9952 43.7337 49.5706C44.1344 49.146 46.0333 48.2694 46.0333 48.2694Z" fill="#FBFCFF"></path><path d="M33.5164 82.5193C33.4781 82.5135 33.441 82.4984 33.4078 82.4741C33.3653 82.4424 32.3614 81.6781 32.5113 80.3264C32.5261 80.1936 32.646 80.0975 32.7793 80.1125C32.9138 80.1246 33.0083 80.2472 32.9932 80.38C32.8732 81.4584 33.6893 82.0795 33.6973 82.0856C33.8045 82.1654 33.8268 82.3172 33.747 82.4247C33.6919 82.4986 33.602 82.5323 33.5164 82.5193Z" fill="#241726"></path><path d="M35.7124 85.9895C35.6746 85.9838 35.6377 85.9688 35.6045 85.9445C35.562 85.9128 34.5587 85.1483 34.7086 83.7969C34.7234 83.664 34.8434 83.5679 34.9766 83.5829C35.1148 83.5992 35.2056 83.7174 35.1906 83.8505C35.0714 84.9201 35.8612 85.531 35.895 85.5565C36.001 85.637 36.0229 85.7887 35.9427 85.8953C35.8874 85.9692 35.7976 86.0024 35.7124 85.9895Z" fill="#241726"></path><path d="M36.1158 82.5531C36.0775 82.5473 36.0404 82.5323 36.0073 82.508C35.9648 82.4763 34.9608 81.712 35.1108 80.3603C35.1256 80.2274 35.2455 80.1313 35.3787 80.1464C35.5111 80.1628 35.6077 80.2809 35.5927 80.4139C35.4726 81.4922 36.2887 82.1133 36.2968 82.1194C36.4039 82.1993 36.4263 82.351 36.3464 82.4586C36.2913 82.5324 36.2014 82.5661 36.1158 82.5531Z" fill="#241726"></path><path d="M38.0962 86.224C38.0579 86.2182 38.0208 86.2031 37.9876 86.1788C37.9451 86.1471 36.9411 85.3828 37.0911 84.0311C37.1059 83.8983 37.2258 83.8022 37.359 83.8172C37.4894 83.8342 37.5881 83.9517 37.5731 84.0845C37.453 85.1628 38.269 85.7841 38.2771 85.7901C38.3843 85.8699 38.4066 86.0217 38.3268 86.1292C38.2716 86.2035 38.1817 86.237 38.0962 86.224Z" fill="#241726"></path><path d="M38.1535 88.8218C38.1323 88.8186 38.1118 88.8127 38.0912 88.8036C38.0428 88.7821 36.8956 88.2568 36.7454 86.905C36.7307 86.7722 36.8268 86.6523 36.9596 86.6378C37.0935 86.6228 37.2129 86.7192 37.227 86.8518C37.3463 87.9302 38.2788 88.3568 38.2882 88.3612C38.4101 88.4155 38.4655 88.5587 38.411 88.6808C38.3658 88.7827 38.2587 88.8378 38.1535 88.8218Z" fill="#241726"></path><path d="M34.1032 79.7156C34.0653 79.7099 34.0284 79.6949 33.9953 79.6706C33.9528 79.6389 32.9488 78.8744 33.0994 77.5228C33.1142 77.3899 33.2341 77.2942 33.3673 77.3091C33.3707 77.3094 33.3738 77.3098 33.3768 77.3103C33.5048 77.3297 33.5958 77.4469 33.5813 77.5768C33.4617 78.6462 34.2519 79.2572 34.2853 79.2826C34.3917 79.3631 34.4137 79.5148 34.3335 79.6215C34.2782 79.6953 34.1884 79.7286 34.1032 79.7156Z" fill="#241726"></path><path d="M31.9974 79.3798C31.9592 79.3739 31.922 79.3589 31.8889 79.3346C31.8464 79.3029 30.8424 78.5386 30.9924 77.1869C31.0072 77.0541 31.1271 76.9579 31.2603 76.973C31.3923 76.9836 31.4893 77.1077 31.4743 77.2405C31.3542 78.3188 32.1703 78.9399 32.1784 78.9461C32.2855 79.0259 32.3079 79.1776 32.228 79.2852C32.1729 79.3591 32.083 79.3927 31.9974 79.3798Z" fill="#241726"></path><path d="M32.2131 77.0758C32.1748 77.07 32.1377 77.0549 32.1045 77.0306C32.062 76.9989 31.0581 76.2346 31.208 74.8829C31.2228 74.7501 31.3427 74.654 31.4759 74.669C31.6069 74.682 31.705 74.8035 31.6899 74.9365C31.5699 76.0149 32.3859 76.636 32.394 76.6421C32.5011 76.7219 32.5235 76.8737 32.4436 76.9812C32.3883 77.0553 32.2987 77.0888 32.2131 77.0758Z" fill="#241726"></path><path d="M92.3108 47.8676C92.1919 47.8496 92.102 47.7452 92.1055 47.6219C92.1341 46.5372 91.2686 45.9874 91.2598 45.982C91.1461 45.9115 91.1114 45.7622 91.1817 45.6486C91.2526 45.5339 91.4024 45.4993 91.5155 45.5706C91.5605 45.5986 92.6255 46.2754 92.5897 47.6348C92.5862 47.7685 92.4749 47.8741 92.341 47.8705C92.331 47.87 92.3211 47.8691 92.3108 47.8676Z" fill="#241726"></path><path d="M89.8287 44.5953C89.7099 44.5773 89.6199 44.4729 89.6235 44.3495C89.652 43.2647 88.7866 42.715 88.7777 42.7096C88.6641 42.639 88.6293 42.4897 88.6996 42.3762C88.7712 42.2618 88.9203 42.2268 89.0335 42.2981C89.0785 42.3261 90.1434 43.0029 90.1077 44.3621C90.1041 44.4958 89.9929 44.6014 89.859 44.5978C89.8489 44.5977 89.839 44.5969 89.8287 44.5953Z" fill="#241726"></path><path d="M89.7178 48.0537C89.5989 48.0357 89.509 47.9313 89.5125 47.8079C89.5411 46.7231 88.6756 46.1734 88.6668 46.168C88.5531 46.0974 88.5184 45.9481 88.5887 45.8346C88.6596 45.7201 88.8089 45.6853 88.9225 45.7565C88.9675 45.7845 90.0325 46.4613 89.9968 47.8205C89.9932 47.9542 89.8819 48.0598 89.748 48.0562C89.738 48.0561 89.728 48.0553 89.7178 48.0537Z" fill="#241726"></path><path d="M87.4344 44.5632C87.3155 44.5452 87.2256 44.4407 87.2291 44.3175C87.2576 43.2328 86.3922 42.683 86.3834 42.6776C86.2697 42.6071 86.235 42.4577 86.3053 42.3442C86.3761 42.2297 86.5259 42.1953 86.6391 42.2662C86.6841 42.2942 87.749 42.971 87.7133 44.3304C87.7097 44.4641 87.5985 44.5697 87.4646 44.566C87.4546 44.5654 87.4446 44.5647 87.4344 44.5632Z" fill="#241726"></path><path d="M87.541 41.7233C87.4428 41.7085 87.3598 41.6336 87.3396 41.5307C87.1295 40.4666 86.1644 40.12 86.1548 40.1167C86.0285 40.0729 85.9612 39.9347 86.0054 39.8084C86.0487 39.6816 86.189 39.6147 86.3133 39.659C86.3637 39.6765 87.5514 40.103 87.8152 41.437C87.8413 41.5683 87.7554 41.6957 87.6241 41.7216C87.5961 41.727 87.5682 41.7275 87.541 41.7233Z" fill="#241726"></path><path d="M91.9625 50.7105C91.8436 50.6925 91.7537 50.5881 91.7572 50.4649C91.7854 49.3891 90.9465 48.8468 90.9107 48.8244C90.798 48.7529 90.7637 48.6039 90.8345 48.4909C90.9052 48.3776 91.0531 48.3427 91.1674 48.4133C91.2124 48.4414 92.2773 49.1184 92.2416 50.4777C92.238 50.6114 92.1268 50.717 91.9929 50.7134C91.9827 50.7127 91.9727 50.7121 91.9625 50.7105Z" fill="#241726"></path><path d="M94.0901 50.8679C93.9713 50.8498 93.8813 50.7454 93.8848 50.622C93.913 49.5374 93.0475 48.9874 93.0387 48.982C92.925 48.9115 92.8903 48.7622 92.9606 48.6486C93.0315 48.5339 93.1819 48.4994 93.2944 48.5706C93.3394 48.5986 94.4044 49.2754 94.3691 50.6346C94.3655 50.7683 94.2543 50.8739 94.121 50.8704C94.1103 50.8703 94.1004 50.8694 94.0901 50.8679Z" fill="#241726"></path><path d="M94.07 53.1811C93.9511 53.1631 93.8612 53.0587 93.8646 52.9355C93.8932 51.8508 93.0278 51.301 93.0189 51.2956C92.9053 51.225 92.8705 51.0757 92.9408 50.9622C93.0117 50.8477 93.1611 50.8125 93.2747 50.8841C93.3196 50.9122 94.3846 51.589 94.3489 52.9483C94.3453 53.082 94.234 53.1876 94.1001 53.184C94.0901 53.1835 94.0802 53.1827 94.07 53.1811Z" fill="#241726"></path><defs><linearGradient id="paint0_linear_321_6088" x1="82.4999" y1="31.0402" x2="51.734" y2="96.2729" gradientUnits="userSpaceOnUse"><stop stop-color="#574F92"></stop><stop offset="1" stop-color="#64BAEB"></stop></linearGradient></defs></svg> 