<?xml version="1.0" encoding="UTF-8"?> <svg xmlns="http://www.w3.org/2000/svg" width="28" height="17" viewBox="0 0 28 17" fill="none"><g clip-path="url(#clip0_321_5959)"><path fill-rule="evenodd" clip-rule="evenodd" d="M13.4706 14.6771C14.8528 15.9507 16.7092 16.7231 18.7282 16.7231C23.064 16.7231 26.5735 13.1866 26.5735 8.83691C26.5735 4.474 23.064 0.9375 18.7282 0.9375C16.7092 0.9375 14.8529 1.70978 13.4706 2.98352C11.8854 4.43323 10.8827 6.52008 10.8827 8.83691C10.8827 11.154 11.8855 13.2409 13.4706 14.6771Z" fill="#FAB31E"></path><path fill-rule="evenodd" clip-rule="evenodd" d="M16.0047 7.99731C15.9776 7.71277 15.9235 7.44177 15.869 7.15723H11.0725C11.1267 6.87268 11.2078 6.60162 11.2891 6.33063H15.6389C15.5438 6.04626 15.4354 5.7616 15.3134 5.4906H11.628C11.7635 5.20624 11.9125 4.92157 12.0751 4.65057H14.8528C14.6766 4.36603 14.4735 4.08142 14.2566 3.82404H12.6712C12.9151 3.526 13.1862 3.24146 13.4706 2.98401C12.0751 1.72382 10.2322 0.937988 8.19983 0.937988C3.8775 0.937988 0.354492 4.47449 0.354492 8.8374C0.354492 13.1871 3.8775 16.7236 8.19983 16.7236C10.2323 16.7236 12.0751 15.9512 13.4706 14.6776C13.7553 14.4199 14.0127 14.149 14.2566 13.8509H12.6712C12.4544 13.58 12.2647 13.309 12.0751 13.0109H14.8528C15.0289 12.7399 15.1779 12.4689 15.3134 12.1708H11.6279C11.5058 11.8998 11.384 11.6288 11.2891 11.3441H15.6388C15.7336 11.0732 15.8012 10.7887 15.869 10.5041C15.9234 10.2332 15.9775 9.94843 16.0046 9.664C16.0317 9.39301 16.0453 9.12207 16.0453 8.83734C16.0453 8.55292 16.0317 8.26831 16.0047 7.99731Z" fill="#E40520"></path><path fill-rule="evenodd" clip-rule="evenodd" d="M25.5302 10.6664C25.5302 10.5176 25.6384 10.4092 25.774 10.4092C25.923 10.4092 26.0314 10.5175 26.0314 10.6664C26.0314 10.8019 25.923 10.9241 25.774 10.9241C25.6385 10.9241 25.5302 10.8019 25.5302 10.6664ZM25.774 10.8561C25.8824 10.8561 25.9772 10.7748 25.9772 10.6664C25.9772 10.558 25.8824 10.4767 25.774 10.4767C25.6792 10.4767 25.5844 10.558 25.5844 10.6664C25.5844 10.7748 25.6793 10.8561 25.774 10.8561ZM25.7469 10.7748H25.6927V10.5579H25.7876H25.8418C25.8689 10.5717 25.8689 10.5988 25.8689 10.6259C25.8689 10.6393 25.8554 10.6664 25.8282 10.6801L25.8824 10.7748H25.8148L25.7877 10.6935H25.747V10.7748V10.653H25.7741C25.7877 10.653 25.8013 10.653 25.8013 10.6393C25.8148 10.6393 25.8148 10.6259 25.8148 10.6123C25.8148 10.6123 25.8148 10.5988 25.8013 10.5988C25.8013 10.585 25.7876 10.5988 25.7741 10.5988H25.747V10.653V10.7748H25.7469Z" fill="white"></path><path fill-rule="evenodd" clip-rule="evenodd" d="M10.8014 11.1133C10.5441 11.1809 10.3544 11.2216 10.1647 11.2216C9.75806 11.2216 9.51416 10.9641 9.51416 10.5034C9.51416 10.4088 9.52771 10.3137 9.54126 10.2053L9.59546 9.89356L9.63617 9.63629L10.002 7.41406H10.8151L10.72 7.90186H11.235L11.1131 8.71491H10.5983L10.3815 10.0427C10.3677 10.1107 10.3677 10.1511 10.3677 10.1782C10.3677 10.3546 10.449 10.4221 10.6525 10.4221C10.7471 10.4221 10.8284 10.4088 10.9097 10.395L10.8014 11.1133Z" fill="#06326E"></path><path fill-rule="evenodd" clip-rule="evenodd" d="M13.4302 11.0869C13.1321 11.1682 12.8612 11.2087 12.5629 11.2087C11.6415 11.2087 11.1132 10.7209 11.1132 9.75879C11.1132 8.63434 11.7365 7.82129 12.6035 7.82129C13.2947 7.82129 13.7418 8.2821 13.7418 9.00006C13.7418 9.2439 13.7147 9.47443 13.647 9.79956H11.9532C11.9395 9.85382 11.9395 9.88092 11.9395 9.90796C11.9395 10.2874 12.197 10.4769 12.6848 10.4769C12.9965 10.4769 13.2675 10.4095 13.5656 10.2739L13.4302 11.0869ZM12.9287 9.14923C12.9287 9.08142 12.9287 9.02716 12.9287 8.98663C12.9287 8.7157 12.7799 8.56653 12.5223 8.56653C12.2513 8.56653 12.0615 8.7699 11.9803 9.14923H12.9287Z" fill="#06326E"></path><path fill-rule="evenodd" clip-rule="evenodd" d="M4.29761 11.1544H3.45752L3.94531 8.07855L2.84778 11.1544H2.26514L2.19733 8.09222L1.6825 11.1544H0.855957L1.5199 7.15723H2.75299L2.78003 9.62317L3.60651 7.15723H4.96149L4.29761 11.1544Z" fill="#06326E"></path><path fill-rule="evenodd" clip-rule="evenodd" d="M6.34369 9.70453C6.26233 9.69116 6.23529 9.69116 6.18109 9.69116C5.69318 9.69116 5.44934 9.88086 5.44934 10.1789C5.44934 10.3823 5.57129 10.5178 5.76099 10.5178C6.16748 10.5179 6.33014 10.179 6.34369 9.70453ZM7.02112 11.1545H6.28949L6.30304 10.8159C6.11328 11.0732 5.85584 11.2087 5.40875 11.2087C5.0022 11.2087 4.6499 10.8431 4.6499 10.3145C4.6499 10.1656 4.67712 10.0302 4.71759 9.89429C4.85309 9.39307 5.35449 9.08142 6.12689 9.06799C6.22162 9.06799 6.37067 9.06799 6.50623 9.08142C6.53333 8.97302 6.53333 8.9325 6.53333 8.86456C6.53333 8.64777 6.35718 8.58026 5.96417 8.58026C5.72028 8.58026 5.44928 8.62067 5.25958 8.6886L5.13776 8.71564L5.08356 8.72907L5.20544 7.99744C5.59839 7.87567 5.883 7.82129 6.19464 7.82129C6.92627 7.82129 7.31921 8.16003 7.31921 8.78326C7.31921 8.94586 7.33276 9.06799 7.27856 9.42023L7.08887 10.5854L7.06177 10.7888L7.04822 10.9515L7.03467 11.0598L7.02112 11.1545Z" fill="#06326E"></path><path fill-rule="evenodd" clip-rule="evenodd" d="M17.5222 7.92883C17.766 7.92883 17.9828 7.99646 18.2808 8.14563L18.43 7.27832C18.3488 7.23767 18.3216 7.23767 18.2131 7.19708L17.8743 7.10217C17.766 7.07507 17.6306 7.06152 17.4814 7.06152C17.0614 7.06152 16.8176 7.07507 16.5601 7.22418C16.4246 7.31903 16.2485 7.44092 16.0588 7.65778L15.9504 7.63068L15.0831 8.24036L15.1238 7.90167H14.2296L13.7012 11.1536H14.5547L14.8663 9.40558C14.8663 9.40558 14.9883 9.16168 15.0425 9.08044C15.205 8.87732 15.3405 8.87732 15.5168 8.87732H15.5846C15.5573 9.06702 15.5438 9.27008 15.5438 9.50061C15.5438 10.5573 16.1401 11.2214 17.0614 11.2214C17.2917 11.2214 17.495 11.1943 17.8066 11.113L17.9556 10.1917C17.6846 10.3406 17.4407 10.4086 17.2375 10.4086C16.7362 10.4086 16.4382 10.0292 16.4382 9.43268C16.4383 8.55206 16.8854 7.92883 17.5222 7.92883Z" fill="#06326E"></path><path fill-rule="evenodd" clip-rule="evenodd" d="M24.7171 7.15729L24.5275 8.29541C24.3242 7.98395 24.0804 7.83472 23.7552 7.83472C23.3079 7.83472 22.8879 8.09228 22.6304 8.58014V8.56641L22.0884 8.24115L22.1426 7.90247H21.2349L20.72 11.1544H21.5601L21.8445 9.40637C21.8445 9.40637 22.0613 9.16248 22.1155 9.08124C22.251 8.9187 22.3865 8.89148 22.4949 8.87811C22.4001 9.14905 22.3459 9.47436 22.3459 9.83997C22.3459 10.6532 22.766 11.1951 23.3893 11.1951C23.701 11.1951 23.9449 11.0868 24.1752 10.8292L24.1346 11.1544H24.934L25.5843 7.15723L24.7171 7.15729ZM23.6739 10.3823C23.3893 10.3823 23.2402 10.1655 23.2402 9.7453C23.2402 9.10834 23.511 8.64771 23.9041 8.64771C24.2023 8.64771 24.3513 8.87817 24.3513 9.28473C24.3513 9.93506 24.0803 10.3823 23.6739 10.3823Z" fill="#06326E"></path><path fill-rule="evenodd" clip-rule="evenodd" d="M19.758 9.70453C19.6766 9.69116 19.6495 9.69116 19.5954 9.69116C19.1076 9.69116 18.8637 9.88086 18.8637 10.1789C18.8637 10.3823 18.9857 10.5178 19.1754 10.5178C19.5818 10.5179 19.7444 10.179 19.758 9.70453ZM20.4354 11.1545H19.6902L19.7173 10.8159C19.5276 11.0732 19.2702 11.2087 18.8231 11.2087C18.4031 11.2087 18.0371 10.8564 18.0371 10.3145C18.0371 9.54205 18.6199 9.06799 19.5412 9.06799C19.636 9.06799 19.7851 9.06799 19.907 9.08142C19.9341 8.97302 19.9477 8.9325 19.9477 8.86456C19.9477 8.64777 19.7716 8.58026 19.3651 8.58026C19.1348 8.58026 18.8502 8.62067 18.6606 8.6886L18.5522 8.71564L18.4979 8.72907L18.6199 7.99744C19.0128 7.87567 19.2973 7.82129 19.6089 7.82129C20.3406 7.82129 20.7201 8.16003 20.7201 8.78326C20.7201 8.94586 20.747 9.06799 20.6793 9.42023L20.5031 10.5854L20.4761 10.7888L20.449 10.9515L20.4354 11.0598V11.1545Z" fill="#06326E"></path><path fill-rule="evenodd" clip-rule="evenodd" d="M8.79614 8.59357C8.95874 8.59357 9.18909 8.6073 9.43298 8.64777L9.55493 7.88904C9.31104 7.862 8.98578 7.82129 8.79614 7.82129C7.84766 7.82129 7.53595 8.3363 7.53595 8.93243C7.53595 9.32532 7.71222 9.60992 8.17285 9.82672C8.51154 9.98926 8.5658 10.0164 8.5658 10.1656C8.5658 10.3687 8.38965 10.4908 8.06445 10.4908C7.80701 10.4908 7.56317 10.45 7.29211 10.3553L7.19727 11.1003L7.21082 11.114L7.37341 11.1411C7.42755 11.1545 7.49548 11.1682 7.59027 11.1816C7.79352 11.1953 7.96967 11.2087 8.078 11.2087C9.02655 11.2087 9.41949 10.843 9.41949 10.1247C9.41949 9.67737 9.20264 9.40643 8.78259 9.21674C8.41675 9.0542 8.3761 9.0271 8.3761 8.87817C8.3761 8.72906 8.5387 8.59357 8.79614 8.59357Z" fill="#06326E"></path><path fill-rule="evenodd" clip-rule="evenodd" d="M18.6606 7.02155L18.5115 7.88867C18.2133 7.73969 17.9965 7.67188 17.7526 7.67188C17.1158 7.67188 16.6686 8.29517 16.6686 9.17602C16.6686 9.78558 16.9668 10.1515 17.4681 10.1515C17.6713 10.1515 17.9152 10.084 18.1862 9.94812L18.0372 10.8561C17.7256 10.9374 17.5223 10.9781 17.2921 10.9781C16.3707 10.9781 15.8015 10.3141 15.8015 9.24359C15.8015 7.82092 16.5875 6.81836 17.712 6.81836C17.861 6.81836 17.9966 6.83191 18.1051 6.85901L18.4438 6.94031C18.5522 6.9809 18.5792 6.99445 18.6606 7.02155Z" fill="white"></path><path fill-rule="evenodd" clip-rule="evenodd" d="M15.9235 7.61816C15.8964 7.61816 15.8691 7.61816 15.8422 7.61816C15.5574 7.61816 15.395 7.75366 15.1375 8.14673L15.2187 7.64526H14.4465L13.9181 10.8973H14.7716C15.0833 8.90546 15.1646 8.56659 15.571 8.56659H15.6252C15.7065 8.17377 15.8149 7.8891 15.9506 7.63165L15.9235 7.61816Z" fill="white"></path><path fill-rule="evenodd" clip-rule="evenodd" d="M11.0182 10.8563C10.7881 10.9376 10.5984 10.9647 10.4087 10.9647C9.97504 10.9647 9.73108 10.7208 9.73108 10.2468C9.73108 10.1655 9.74463 10.0568 9.75818 9.9621L9.81244 9.6369L9.85303 9.37927L10.2191 7.15723H11.0591L10.964 7.64502H11.3976L11.2893 8.44458H10.8557L10.6255 9.79944C10.6119 9.8537 10.6119 9.89417 10.6119 9.935C10.6119 10.0976 10.6932 10.1655 10.8965 10.1655C10.9912 10.1655 11.0727 10.1655 11.1269 10.1384L11.0182 10.8563Z" fill="white"></path><path fill-rule="evenodd" clip-rule="evenodd" d="M7.75293 8.67474C7.75293 9.08124 7.94257 9.36585 8.38971 9.5827C8.74207 9.74524 8.79626 9.79944 8.79626 9.93494C8.79626 10.1383 8.64728 10.233 8.30847 10.233C8.05102 10.233 7.82068 10.1925 7.54968 10.1113L7.42761 10.8563L7.46832 10.87L7.61743 10.8971C7.67157 10.9105 7.73938 10.9242 7.84778 10.9242C8.03747 10.9512 8.20001 10.9512 8.30847 10.9512C9.20276 10.9512 9.6228 10.6124 9.6228 9.86725C9.6228 9.41998 9.44666 9.16241 9.02661 8.95935C8.66077 8.79681 8.62006 8.75592 8.62006 8.60712C8.62006 8.43085 8.76916 8.34949 9.04016 8.34949C9.2027 8.34949 9.43311 8.36322 9.64984 8.39032L9.77179 7.64496C9.55499 7.60431 9.21631 7.57715 9.02661 7.57715C8.07806 7.57721 7.73938 8.07855 7.75293 8.67474Z" fill="white"></path><path fill-rule="evenodd" clip-rule="evenodd" d="M25.1508 10.8969H24.3514L24.392 10.585C24.1617 10.8289 23.9178 10.9373 23.6062 10.9373C22.9827 10.9373 22.5763 10.4091 22.5763 9.59583C22.5763 8.51196 23.2132 7.59058 23.9585 7.59058C24.2972 7.59058 24.5411 7.73962 24.7714 8.03784L24.9611 6.89941H25.8013L25.1508 10.8969ZM23.9042 10.1381C24.2972 10.1381 24.5682 9.67706 24.5682 9.04059C24.5682 8.6203 24.4191 8.40356 24.1212 8.40356C23.7417 8.40356 23.457 8.85077 23.457 9.48749C23.457 9.92127 23.6062 10.1381 23.9042 10.1381Z" fill="white"></path><path fill-rule="evenodd" clip-rule="evenodd" d="M13.6199 10.829C13.3218 10.9241 13.0509 10.9645 12.739 10.9645C11.7906 10.9645 11.3029 10.4633 11.3029 9.50122C11.3029 8.3902 11.9261 7.56348 12.7799 7.56348C13.4844 7.56348 13.9315 8.02417 13.9315 8.74237C13.9315 8.98627 13.9044 9.21649 13.8231 9.55542H12.1429C12.1293 9.59583 12.1293 9.62293 12.1293 9.65002C12.1293 10.0298 12.3868 10.2194 12.8746 10.2194C13.1863 10.2194 13.4573 10.1652 13.7554 10.0161L13.6199 10.829ZM13.1455 8.8913C13.1455 8.82373 13.1455 8.76959 13.1455 8.72876C13.1455 8.45776 12.9966 8.30878 12.739 8.30878C12.4681 8.30878 12.2784 8.51209 12.1971 8.8913H13.1455Z" fill="white"></path><path fill-rule="evenodd" clip-rule="evenodd" d="M4.5144 10.8968H3.67438L4.16211 7.82092L3.06458 10.8968H2.48187L2.41418 7.84796L1.89923 10.8968H1.1134L1.77734 6.89941H2.99683L3.03748 9.37903L3.8504 6.89941H5.17835L4.5144 10.8968Z" fill="white"></path><path fill-rule="evenodd" clip-rule="evenodd" d="M6.61469 9.44721C6.53339 9.44721 6.49274 9.43341 6.42505 9.43341C5.95074 9.43341 5.70685 9.60974 5.70685 9.93494C5.70685 10.1383 5.81525 10.2601 6.00494 10.2601C6.3573 10.2602 6.6012 9.935 6.61469 9.44721ZM7.23798 10.8971H6.53339L6.54694 10.5581C6.33014 10.8291 6.04553 10.9512 5.65265 10.9512C5.19202 10.9512 4.88037 10.599 4.88037 10.0703C4.88037 9.27075 5.4223 8.81018 6.37073 8.81018C6.46558 8.81018 6.58765 8.82385 6.72308 8.83722C6.75018 8.72888 6.75018 8.68842 6.75018 8.63415C6.75018 8.41742 6.6012 8.33612 6.20819 8.33612C5.96429 8.33612 5.6933 8.36322 5.50366 8.41742L5.38171 8.45789L5.30042 8.47156L5.42236 7.73987C5.84235 7.61786 6.12701 7.57715 6.4386 7.57715C7.17023 7.57715 7.56323 7.9024 7.56323 8.52576C7.56323 8.68835 7.54968 8.81012 7.49554 9.17609L7.30573 10.3279L7.27863 10.531L7.26508 10.6936L7.25159 10.8156L7.23798 10.8971Z" fill="white"></path><path fill-rule="evenodd" clip-rule="evenodd" d="M20.0291 9.44721C19.9341 9.44721 19.8936 9.43341 19.8394 9.43341C19.3516 9.43341 19.1077 9.60974 19.1077 9.93494C19.1077 10.1383 19.2297 10.2601 19.4194 10.2601C19.7581 10.2602 20.0155 9.935 20.0291 9.44721ZM20.6522 10.8971H19.9477L19.9612 10.5581C19.7445 10.8291 19.46 10.9512 19.0671 10.9512C18.6064 10.9512 18.2948 10.599 18.2948 10.0703C18.2948 9.27075 18.8367 8.81018 19.7852 8.81018C19.88 8.81018 20.002 8.82385 20.124 8.83722C20.151 8.72888 20.1646 8.68842 20.1646 8.63415C20.1646 8.41742 20.0156 8.33612 19.6226 8.33612C19.3787 8.33612 19.0942 8.36322 18.9044 8.41742L18.7961 8.45789L18.7148 8.47156L18.8367 7.73987C19.2568 7.61786 19.5413 7.57715 19.8528 7.57715C20.5845 7.57715 20.9641 7.9024 20.9641 8.52576C20.9641 8.68835 20.9641 8.81012 20.8961 9.17609L20.7202 10.3279L20.6929 10.531L20.6659 10.6936L20.6523 10.8156V10.8971H20.6522Z" fill="white"></path><path fill-rule="evenodd" clip-rule="evenodd" d="M22.9286 7.61816C22.9015 7.61816 22.8743 7.61816 22.8473 7.61816C22.5627 7.61816 22.4002 7.75366 22.1427 8.14673L22.2239 7.64526H21.4518L20.9368 10.8973H21.7769C22.0886 8.90546 22.1699 8.56659 22.5764 8.56659H22.6306C22.7119 8.17377 22.8203 7.8891 22.9557 7.63165L22.9286 7.61816Z" fill="white"></path></g><defs><clipPath id="clip0_321_5959"><rect width="26.875" height="16.25" fill="white" transform="translate(0.25 0.5)"></rect></clipPath></defs></svg> 