<?xml version="1.0" encoding="UTF-8"?> <svg xmlns="http://www.w3.org/2000/svg" width="203" height="203" viewBox="0 0 203 203" fill="none"><g clip-path="url(#clip0_321_6117)"><path d="M66.3891 165.485C66.3891 165.485 61.5463 175.176 59.7368 174.699C57.927 174.222 38.7932 161.977 41.1712 159.013C43.5495 156.048 53.0414 158.528 55.8625 157.137C58.6838 155.745 66.3891 165.485 66.3891 165.485Z" fill="#53AEA1"></path><path d="M57.2973 159.918C57.259 159.746 57.0887 159.639 56.9175 159.676C56.887 159.683 55.3283 160.016 53.3188 159.967C53.1636 159.355 52.9461 158.798 52.6364 158.394C52.5298 158.254 52.3294 158.228 52.1903 158.335C52.0506 158.442 52.0244 158.642 52.1314 158.782C52.3581 159.077 52.5279 159.482 52.657 159.937C52.0443 159.896 51.4039 159.811 50.7606 159.673C50.7101 159.256 50.6544 158.818 50.5893 158.34C50.566 158.166 50.4046 158.044 50.2311 158.068C50.0568 158.091 49.9348 158.252 49.9588 158.426C50.0075 158.785 50.0544 159.15 50.0986 159.514C49.0403 159.219 48.0013 158.754 47.1036 158.034C46.9667 157.924 46.7662 157.946 46.6562 158.083C46.5463 158.22 46.5682 158.421 46.7053 158.531C47.7558 159.373 48.9657 159.895 50.1799 160.208C50.3603 161.815 50.4664 163.222 50.3895 163.451C50.2795 163.588 50.3015 163.788 50.4386 163.898C50.475 163.927 50.5158 163.947 50.5583 163.958C50.6756 163.988 50.8056 163.95 50.886 163.849C51.0853 163.6 51.0676 162.421 50.8396 160.357C51.513 160.49 52.1773 160.563 52.8094 160.597C53.1426 162.366 53.0107 164.498 53.009 164.528C52.9989 164.684 53.1019 164.821 53.2472 164.858C53.2657 164.863 53.2857 164.866 53.3055 164.867C53.4809 164.879 53.6325 164.746 53.6444 164.571C53.6523 164.447 53.7779 162.432 53.458 160.62C55.4226 160.648 56.93 160.326 57.0559 160.298C57.227 160.26 57.3355 160.089 57.2973 159.918Z" fill="#241726"></path><path d="M58.1749 171.953C52.1184 170.398 43.5124 161.27 43.1388 160.871C43.0186 160.743 43.025 160.541 43.1535 160.421C43.2817 160.302 43.4831 160.308 43.6036 160.435C43.6959 160.534 52.9475 170.353 58.8147 171.443C58.9956 171.481 59.1013 171.641 59.0696 171.814C59.0373 171.987 58.8713 172.101 58.6981 172.069C58.5258 172.037 58.3517 171.998 58.1749 171.953Z" fill="#241726"></path><path d="M115.892 172.572C115.892 172.572 118.619 183.057 116.942 183.888C115.265 184.719 92.7982 188.081 92.6396 184.284C92.4811 180.487 101.262 176.111 102.472 173.208C103.682 170.304 115.892 172.572 115.892 172.572Z" fill="#53AEA1"></path><path d="M105.69 180.266C105.615 180.168 104.381 178.568 102.949 177.414C104.447 176.143 105.374 174.908 105.45 174.804C105.554 174.662 105.524 174.463 105.382 174.359C105.24 174.257 105.041 174.285 104.937 174.427C104.918 174.452 103.963 175.729 102.416 177.014C101.896 176.654 101.367 176.378 100.87 176.277C100.697 176.242 100.529 176.354 100.494 176.526C100.46 176.698 100.572 176.863 100.743 176.901C101.111 176.977 101.505 177.169 101.9 177.425C101.412 177.797 100.873 178.154 100.297 178.474C99.9852 178.193 99.6547 177.899 99.2912 177.582C99.1588 177.467 98.9578 177.48 98.8418 177.613C98.7263 177.746 98.7401 177.947 98.8726 178.063C99.1454 178.301 99.4211 178.545 99.6932 178.79C98.7019 179.264 97.614 179.597 96.4645 179.646C96.289 179.653 96.1523 179.801 96.1598 179.977C96.1655 180.121 96.2661 180.238 96.3985 180.272C96.4281 180.28 96.459 180.283 96.4909 180.282C97.8359 180.225 99.086 179.818 100.206 179.255C101.401 180.348 102.409 181.34 102.502 181.565C102.508 181.708 102.608 181.826 102.741 181.86C102.77 181.867 102.801 181.871 102.833 181.869C103.009 181.862 103.145 181.714 103.138 181.538C103.125 181.219 102.336 180.342 100.806 178.937C101.402 178.594 101.948 178.211 102.447 177.82C103.868 178.934 105.166 180.629 105.184 180.654C105.229 180.713 105.291 180.752 105.358 180.769C105.449 180.792 105.549 180.775 105.63 180.714C105.77 180.606 105.797 180.406 105.69 180.266Z" fill="#241726"></path><path d="M95.2963 184.381C95.1462 184.342 95.0432 184.199 95.0591 184.041C95.0768 183.866 95.2326 183.738 95.4077 183.756C95.5427 183.77 108.968 185.077 114.105 182.042C114.257 181.952 114.452 182.003 114.541 182.154C114.631 182.305 114.581 182.501 114.429 182.59C109.112 185.731 95.9035 184.446 95.3438 184.389C95.3277 184.388 95.3117 184.385 95.2963 184.381Z" fill="#241726"></path><path d="M164.528 71.451C164.311 67.9467 156.338 69.5935 156.338 69.5935C156.338 69.5935 162.22 57.4587 157.595 58.4021C153.19 59.3007 153.341 67.136 153.365 67.8797C153.332 66.991 152.836 55.8468 148.618 57.93C144.225 60.0992 149.757 70.3857 149.757 70.3857C144.989 70.6809 148.635 82.8553 155.391 83.5005C166.621 84.5734 164.745 74.9553 164.528 71.451Z" fill="#F2988B"></path><path d="M162.317 70.6025C162.293 70.4282 162.133 70.306 161.958 70.3306C161.784 70.355 161.663 70.5155 161.687 70.6896C161.693 70.7359 162.309 75.33 161.048 76.8606C160.818 77.1401 160.543 77.2851 160.209 77.3037C159.912 77.3203 159.7 77.2334 159.544 77.0294C159.239 76.6308 159.172 75.8816 159.233 75.0262C159.754 73.3211 160.036 71.4344 160.118 70.8257C160.141 70.6631 160.051 70.5257 159.874 70.4723C159.714 70.4355 159.552 70.527 159.5 70.6831C159.407 70.9672 158.933 72.4567 158.704 74.0108C158.495 73.8177 158.184 73.6439 157.735 73.4856C157.197 73.2965 156.698 73.1815 156.223 73.1059L156.654 69.6328C156.675 69.459 156.556 69.3019 156.377 69.2777C156.203 69.2562 156.043 69.3802 156.022 69.5547L155.59 73.0332C152.005 72.7831 150.416 75.502 150.397 75.5348C150.312 75.6881 150.366 75.8812 150.519 75.9674C150.671 76.0543 150.866 75.9992 150.952 75.8463C151.02 75.7269 152.446 73.3131 155.775 73.6806C155.78 73.6821 155.784 73.6854 155.789 73.6866C155.802 73.6899 155.815 73.6924 155.829 73.6943C155.85 73.6971 155.87 73.6912 155.891 73.6895C156.392 73.7542 156.935 73.8794 157.523 74.0866C158.244 74.3405 158.38 74.5578 158.371 74.6199C158.346 74.8078 157.812 75.2809 155.977 75.8623C154.721 76.2603 153.526 76.5043 153.286 76.5362C153.041 76.527 152.994 76.6389 152.955 76.7315C152.887 76.8929 152.966 77.081 153.127 77.1495C153.151 77.16 153.186 77.165 153.234 77.1658L153.233 77.171C153.248 77.1736 154.797 77.4484 155.487 78.605C155.931 79.3482 155.921 80.3031 155.458 81.4435C155.391 81.6062 155.47 81.792 155.633 81.8583C155.646 81.8638 155.66 81.8683 155.674 81.8718C155.826 81.9109 155.987 81.8325 156.048 81.6832C157.221 78.7953 155.569 77.4692 154.519 76.9446C154.837 76.8672 155.189 76.7711 155.549 76.6639C155.51 76.9947 155.525 77.4638 155.824 77.8013C155.963 77.9587 156.142 78.0655 156.361 78.1215C156.595 78.1818 156.875 78.1834 157.197 78.1263C157.781 78.0223 158.269 77.3906 158.669 76.5341C158.741 76.8818 158.86 77.1841 159.038 77.4173C159.321 77.7871 159.739 77.9667 160.243 77.9396C160.757 77.9113 161.193 77.6847 161.538 77.2657C162.977 75.5199 162.345 70.8024 162.317 70.6025ZM157.086 77.4989C156.819 77.5466 156.466 77.5647 156.302 77.3797C156.094 77.1455 156.187 76.6251 156.237 76.4611C156.238 76.4561 156.237 76.4514 156.238 76.4464C157.103 76.1575 157.92 75.8179 158.395 75.494C158.003 76.6038 157.551 77.4164 157.086 77.4989Z" fill="#241726"></path><path d="M165.827 83.2161C164.321 79.442 150.629 82.7507 150.629 82.7507C148.124 83.2734 153.425 94.788 145.274 92.8997C138.492 91.3281 139.503 76.7868 120.171 73.035C118.627 72.7356 110.826 80.7386 106.744 79.246C103.459 76.9302 105.543 70.0943 105.543 70.0943C104.363 69.1979 62.8467 61.2678 59.8122 87.5314C58.5387 98.5539 63.4942 104.896 69.7718 108.492C59.4266 120.747 49.5883 131.643 47.7243 133.598C45.2902 136.151 48.8513 142.94 57.1993 150.022C54.8009 153.708 53.5377 156.353 54.1287 157.21C57.1102 161.535 69.622 173.101 70.9212 171.312C73.0883 168.327 75.1938 165.292 77.2212 162.27C77.9546 162.592 78.6987 162.908 79.4553 163.217C84.0947 165.113 89.0561 166.341 93.9931 167.062C94.0979 168.939 94.2557 173.389 95.2567 173.646C99.63 174.769 119.769 177.357 120.074 172.666C120.127 171.856 120.271 169.664 120.483 166.563C126.155 165.452 129.9 163.824 130.184 162.378C130.608 160.215 131.351 136.478 131.956 114.6C136.792 116.789 142.772 117.651 149.664 115.791C170.495 110.166 167.333 86.9907 165.827 83.2161Z" fill="url(#paint0_linear_321_6117)"></path><path d="M118.267 71.5912C118.11 70.5729 118.548 67.0083 118.999 63.8612C119.968 63.6502 120.954 63.38 121.95 63.0407C133.656 59.0518 133.341 53.1546 128.059 43.63C128.059 43.63 126.537 36.8128 116.606 39.6571C106.676 42.5015 105.431 44.262 105.397 46.7077C105.364 49.1533 108.578 47.9509 107.836 50.1848C107.095 52.4186 104.713 54.0869 104.19 57.1943C103.676 60.2461 105.647 62.5428 108.975 63.6617C109.373 65.4493 109.665 67.56 109.05 68.2898C107.912 69.6397 106.374 70.1144 102.184 68.7953C97.9946 67.4762 94.2829 78.4571 105.392 83.3518C112.789 86.611 124.352 81.8643 124.642 77.5025C124.932 73.1402 118.566 73.5249 118.267 71.5912Z" fill="#F2988B"></path><path d="M113.135 48.1109C113.11 48.1044 113.084 48.0969 113.059 48.0887C112.753 47.9911 112.545 47.7838 112.458 47.4902C112.078 46.2154 114.283 43.4159 114.728 42.8679C114.839 42.7313 115.039 42.7093 115.176 42.8216C115.313 42.9324 115.334 43.1329 115.222 43.2693C114.202 44.5243 112.859 46.6077 113.068 47.3084C113.088 47.3741 113.124 47.4406 113.254 47.4823C114.26 47.7825 116.071 45.9237 116.979 44.6634C117.082 44.5208 117.28 44.4892 117.424 44.5912C117.567 44.6939 117.599 44.893 117.496 45.0358C117.232 45.4023 114.896 48.5626 113.135 48.1109Z" fill="#241726"></path><path d="M117.618 52.0204C117.593 52.014 117.567 52.0064 117.542 51.9983C117.236 51.9006 117.028 51.6936 116.941 51.3997C116.562 50.1253 118.766 47.3255 119.212 46.7775C119.322 46.6409 119.522 46.6191 119.66 46.7312C119.796 46.842 119.817 47.0425 119.706 47.1789C118.686 48.4342 117.343 50.5173 117.552 51.2179C117.571 51.2839 117.607 51.3501 117.737 51.3918C118.726 51.6947 120.555 49.833 121.463 48.573C121.565 48.43 121.764 48.3995 121.907 48.5007C122.05 48.6035 122.083 48.8025 121.979 48.9454C121.715 49.3122 119.379 52.4722 117.618 52.0204Z" fill="#241726"></path><path d="M122.031 59.8528C121.745 59.7792 121.511 59.6001 121.354 59.3282C121.04 58.7843 121.111 57.9468 121.527 57.291C122.011 56.5297 122.846 56.1398 123.819 56.2215C126.618 56.4554 126.62 58.7869 126.62 58.8107C126.618 58.9865 126.474 59.1272 126.298 59.1252C126.125 59.123 125.982 58.9798 125.983 58.8044C125.984 58.7247 125.953 57.038 123.766 56.8563C123.606 56.8427 123.459 56.8452 123.324 56.8598C123.656 57.3242 123.813 58.0335 123.731 58.6142C123.622 59.3825 123.125 59.8594 122.402 59.8892C122.271 59.8948 122.147 59.8825 122.031 59.8528ZM122.657 57.0685C122.361 57.2348 122.174 57.4619 122.065 57.6322C121.737 58.1496 121.736 58.7171 121.905 59.0101C122.005 59.1826 122.158 59.2616 122.375 59.2534C122.79 59.2357 123.034 58.991 123.1 58.5252C123.183 57.9397 122.936 57.2761 122.657 57.0685Z" fill="#241726"></path><path d="M109.822 64.3485C108.936 64.1213 108.046 63.7713 107.202 63.2506C107.053 63.1583 107.006 62.9623 107.099 62.8123C107.191 62.6631 107.387 62.6168 107.537 62.7087C111.398 65.0921 116.523 63.6217 116.574 63.6062C116.743 63.5567 116.92 63.6527 116.97 63.8214C117.02 63.9901 116.923 64.1671 116.755 64.2167C116.58 64.2687 113.244 65.2272 109.822 64.3485Z" fill="#241726"></path><path d="M111.615 57.9486C111.506 57.9204 111.402 57.8775 111.305 57.818C110.346 57.2289 110.411 55.3561 111.508 51.9241C111.562 51.7564 111.731 51.662 111.909 51.7181C112.076 51.7717 112.168 51.9507 112.115 52.1183C110.8 56.2293 111.344 57.0944 111.638 57.2753C112.422 57.762 114.752 56.0344 116.152 54.6539C116.277 54.5308 116.478 54.5312 116.602 54.6568C116.725 54.7821 116.724 54.9836 116.599 55.107C116.018 55.6812 113.2 58.3554 111.615 57.9486Z" fill="#241726"></path><path d="M121.881 37.1588C121.881 37.1588 122.452 31.3144 115.135 30.2581C107.818 29.2018 117.318 36.8098 117.318 36.8098C117.318 36.8098 114.453 33.8278 109.734 35.7363C105.015 37.6448 121.308 45.8219 127.333 45.137C131.622 44.6492 121.068 51.9863 124.253 54.6835C127.436 57.3806 130.657 54.9851 129.698 57.9947C128.738 61.0039 120.752 58.5888 119.116 61.705C117.479 64.8212 116.573 69.0402 121.696 70.5905C126.819 72.1408 123.608 64.9731 123.608 64.9731C123.608 64.9731 122.261 68.1514 127.773 69.4492C133.285 70.7469 128.008 61.5622 131.085 60.0998C134.162 58.6377 137.85 59.8305 137.129 53.9425C136.409 48.0545 121.881 37.1588 121.881 37.1588Z" fill="#F2C100"></path><path d="M148.339 32.4656C147.859 30.4317 124.416 22.5426 122.717 22.3537C121.819 22.2539 123.783 28.2862 125.835 33.9975C123.648 35.7048 121.881 37.1585 121.881 37.1585L137.13 53.9419C137.13 53.9419 140.189 51.7467 142.927 49.4755C147.193 51.1887 151.026 52.6444 151.822 52.6827C153.777 52.7774 148.818 34.4998 148.339 32.4656Z" fill="#413655"></path><path d="M148.339 32.4656C147.859 30.4317 124.416 22.5426 122.717 22.3537C121.819 22.2539 123.783 28.2862 125.835 33.9975C123.648 35.7048 121.881 37.1585 121.881 37.1585L137.13 53.9419C137.13 53.9419 140.189 51.7467 142.927 49.4755C147.193 51.1887 151.026 52.6444 151.822 52.6827C153.777 52.7774 148.818 34.4998 148.339 32.4656Z" fill="url(#paint1_linear_321_6117)"></path><path d="M106.551 69.4693C106.551 69.4693 105.656 74.4919 107.586 76.845C109.516 79.198 117.357 72.0156 119.236 72.6181C121.115 73.2205 123.385 73.1936 123.732 75.8444C124.078 78.4952 115.485 94.5127 101.215 94.8647C96.2407 94.9875 100.134 69.1108 100.134 69.1108C100.134 69.1108 102.415 67.4155 106.551 69.4693Z" fill="#EFEBD5"></path><path d="M108.311 85.2201C108.17 85.184 108.041 85.1154 107.928 85.0146C107.209 84.374 107.264 82.5497 107.317 80.7846C107.338 80.0953 107.365 79.1915 107.291 78.8023C107.058 79.0027 106.659 79.4464 106.325 79.8185C104.921 81.381 102.8 83.7419 100.915 83.262C100.913 83.2616 100.912 83.2612 100.911 83.2609C99.778 82.9704 98.971 81.7501 98.4428 79.531C97.6875 76.3568 97.9523 73.9166 99.2298 72.2784C100.756 70.3214 103.143 70.269 103.244 70.2678C103.421 70.2648 103.564 70.4064 103.566 70.5814C103.569 70.7571 103.428 70.9017 103.253 70.9046C103.231 70.905 101.06 70.9602 99.727 72.6762C98.5787 74.1548 98.355 76.4115 99.0621 79.3843C99.5238 81.3245 100.199 82.4214 101.069 82.6448C101.07 82.6451 101.071 82.6453 101.072 82.6456C102.584 83.0301 104.629 80.7536 105.851 79.3935C106.809 78.3282 107.244 77.839 107.648 78.1589C108.008 78.4441 108.001 79.219 107.954 80.8046C107.912 82.1941 107.854 84.0969 108.352 84.5394C108.425 84.605 108.504 84.625 108.617 84.6084C110.041 84.3986 117.42 82.1318 119.502 78.473C120.139 77.3529 120.217 76.1896 119.734 75.0159C119.667 74.8532 119.744 74.6673 119.907 74.6004C120.07 74.533 120.255 74.6108 120.322 74.7735C120.884 76.1379 120.794 77.4886 120.055 78.7877C117.862 82.6434 110.415 84.9875 108.709 85.2383C108.569 85.2583 108.435 85.2521 108.311 85.2201Z" fill="#241726"></path><path d="M104.671 68.7775C104.671 68.7775 100.097 93.104 101.832 92.4612C103.567 91.8185 117.951 73.5117 120.994 73.1725C125.025 72.723 126.52 73.6645 127.461 75.3923C128.403 77.1197 107.226 102.965 98.5456 103.078C95.5177 103.117 95.4317 71.2085 97.5367 68.2092C99.6417 65.2095 104.671 68.7775 104.671 68.7775Z" fill="#F2C100"></path><path d="M100.115 99.0811C99.8519 99.0135 99.6335 98.8706 99.4744 98.6584C97.1666 95.5875 98.9146 77.2351 99.7734 69.4873C99.7986 69.2585 99.814 69.1227 99.8164 69.0924C99.8297 68.9232 99.974 68.7909 100.144 68.796C100.316 68.8016 100.45 68.9366 100.453 69.1063C100.453 69.1177 100.438 69.2747 100.407 69.5574C98.6357 85.5358 98.478 96.2718 99.9839 98.2763C100.049 98.3623 100.168 98.4781 100.45 98.4888C104.157 98.6229 119.292 82.2184 124.811 75.8857C124.926 75.7534 125.126 75.7391 125.26 75.8549C125.393 75.9704 125.407 76.1714 125.291 76.3043C125.241 76.3616 120.236 82.0968 114.724 87.7371C107.268 95.3673 102.457 99.1987 100.427 99.1252C100.317 99.1211 100.213 99.1062 100.115 99.0811Z" fill="#FCFDFF"></path><path d="M98.5362 106.586C102.804 107.682 107.151 105.111 108.247 100.843C109.342 96.5759 106.771 92.2284 102.504 91.1327C98.2364 90.0371 93.8888 92.6083 92.7932 96.8757C91.6976 101.143 94.2688 105.491 98.5362 106.586Z" fill="#EC7F31"></path><path d="M98.2409 96.4118C98.2409 96.4118 100.948 93.2468 101.426 93.598C101.905 93.9495 102.13 97.4103 102.13 97.4103C102.13 97.4103 105.829 98.6693 105.824 99.4106C105.819 100.152 102.536 101.041 102.536 101.041C102.536 101.041 102.053 105.001 101.507 105.047C100.962 105.092 99.4135 101.725 99.4135 101.725C99.4135 101.725 95.4343 103.487 95.2916 103.08C95.1489 102.672 97.101 99.6465 97.101 99.6465C97.101 99.6465 94.6231 96.8893 95.0399 96.4713C95.4566 96.0533 98.2409 96.4118 98.2409 96.4118Z" fill="#F2C100"></path><path d="M120.497 38.8279C120.339 38.7875 120.236 38.6328 120.262 38.4692C120.517 36.8826 120.288 35.6047 119.582 34.6714C118.606 33.3791 117.016 33.1783 117.001 33.1777C116.824 33.1572 116.701 32.9995 116.722 32.825C116.742 32.6508 116.899 32.5255 117.073 32.5452C117.149 32.554 118.939 32.7715 120.085 34.2801C120.903 35.358 121.174 36.8014 120.891 38.5706C120.863 38.7442 120.699 38.8624 120.525 38.8346C120.516 38.8325 120.506 38.8303 120.497 38.8279Z" fill="#241726"></path><path d="M121.825 42.4098C121.754 42.3917 121.69 42.3496 121.644 42.2856C121.617 42.2471 118.863 38.4656 112.787 38.5465C112.611 38.5501 112.466 38.4083 112.464 38.2327C112.462 38.0567 112.602 37.9122 112.778 37.91C119.203 37.8245 122.047 41.7513 122.164 41.9179C122.265 42.0616 122.231 42.26 122.087 42.3612C122.009 42.4178 121.912 42.4322 121.825 42.4098Z" fill="#241726"></path><path d="M127.183 53.5306C127.121 53.5146 127.063 53.4799 127.019 53.427C126.272 52.5362 125.964 51.5833 126.104 50.5944C126.395 48.5426 128.515 47.0977 128.605 47.0373C128.751 46.9389 128.948 46.9782 129.047 47.1239C129.145 47.2698 129.106 47.4676 128.96 47.566C128.941 47.5793 126.983 48.9173 126.734 50.6865C126.622 51.4879 126.881 52.2723 127.507 53.0182C127.62 53.1528 127.602 53.3535 127.467 53.4664C127.386 53.5346 127.28 53.5553 127.183 53.5306Z" fill="#241726"></path><path d="M131.895 56.6892C131.874 56.6839 131.853 56.6762 131.833 56.6664C130.589 56.0546 129.835 55.1728 129.593 54.0452C129.027 51.4169 131.467 48.4216 131.571 48.2953C131.683 48.1597 131.885 48.1404 132.019 48.2523C132.155 48.3642 132.174 48.5647 132.062 48.7003C132.039 48.7288 129.714 51.5862 130.216 53.9124C130.415 54.8394 131.055 55.5737 132.115 56.0953C132.272 56.1726 132.337 56.3636 132.26 56.5214C132.192 56.6589 132.038 56.726 131.895 56.6892Z" fill="#241726"></path><path d="M121.759 66.8484C121.666 66.8244 121.585 66.7586 121.545 66.6629C120.025 63.0349 124.22 61.167 124.263 61.1485C124.425 61.079 124.611 61.1531 124.681 61.3136C124.751 61.4747 124.677 61.6622 124.517 61.7326C124.367 61.798 120.856 63.3704 122.132 66.4167C122.2 66.579 122.123 66.7656 121.961 66.8332C121.895 66.8614 121.824 66.865 121.759 66.8484Z" fill="#241726"></path><path d="M127.163 67.8665C127.147 67.8622 127.131 67.8567 127.114 67.8499C125.665 67.2145 124.89 66.4005 124.811 65.4311C124.662 63.6077 127.094 62.0061 127.197 61.9388C127.345 61.8426 127.542 61.8842 127.638 62.0324C127.734 62.1798 127.692 62.3769 127.544 62.4731C127.522 62.4872 125.326 63.9352 125.445 65.3804C125.504 66.0982 126.152 66.7329 127.37 67.2668C127.531 67.3373 127.604 67.5254 127.534 67.6864C127.47 67.8309 127.312 67.9046 127.163 67.8665Z" fill="#241726"></path><path d="M141.2 48.8228C141.195 48.8215 141.19 48.8202 141.185 48.8185C140.785 48.6949 131.384 45.7773 129.95 44.4568C128.521 43.1404 126.876 35.7907 126.693 34.957C126.656 34.7851 126.764 34.6155 126.936 34.5779C127.108 34.5398 127.277 34.6484 127.315 34.8207C127.801 37.0318 129.297 42.9889 130.382 43.9888C131.485 45.0043 138.69 47.3805 141.373 48.2106C141.541 48.2628 141.635 48.4408 141.584 48.6088C141.533 48.7715 141.363 48.8647 141.2 48.8228Z" fill="#FCFDFF"></path><path d="M149.213 44.7039C149.181 44.6959 149.151 44.6835 149.123 44.6654C148.975 44.5724 148.929 44.3773 149.021 44.2282C149.067 44.1512 149.436 43.4774 148.733 42.7481C148.611 42.6215 148.615 42.4197 148.741 42.2979C148.868 42.1755 149.07 42.1791 149.191 42.3059C150.047 43.1937 149.807 44.1714 149.561 44.5644C149.486 44.685 149.343 44.7375 149.213 44.7039Z" fill="#FCFDFF"></path><path d="M147.24 43.6444C147.208 43.6364 147.178 43.624 147.15 43.606C147.001 43.5129 146.956 43.3181 147.048 43.169C147.093 43.0932 147.464 42.4184 146.76 41.6886C146.638 41.562 146.642 41.3602 146.768 41.2384C146.895 41.1163 147.097 41.1193 147.218 41.2464C148.074 42.1341 147.834 43.1115 147.588 43.5046C147.513 43.6254 147.37 43.6779 147.24 43.6444Z" fill="#FCFDFF"></path><path d="M148.59 41.3274C148.559 41.3194 148.529 41.307 148.501 41.2889C148.352 41.1958 148.307 41.0011 148.398 40.852C148.444 40.7762 148.815 40.1013 148.111 39.3715C147.989 39.2449 147.993 39.0432 148.119 38.9214C148.246 38.7993 148.447 38.8025 148.569 38.9293C149.425 39.8171 149.185 40.7945 148.939 41.1876C148.864 41.3085 148.721 41.361 148.59 41.3274Z" fill="#FCFDFF"></path><path d="M146.642 39.8937C146.61 39.8857 146.58 39.8733 146.552 39.8551C146.403 39.7621 146.358 39.567 146.45 39.418C146.496 39.3416 146.865 38.6675 146.162 37.9377C146.04 37.8112 146.044 37.6095 146.17 37.4873C146.297 37.3656 146.498 37.3691 146.621 37.4957C147.476 38.3834 147.236 39.3611 146.99 39.7542C146.915 39.8748 146.772 39.9273 146.642 39.8937Z" fill="#FCFDFF"></path><path d="M145.351 42.1962C145.32 42.1883 145.29 42.1759 145.261 42.1578C145.113 42.0647 145.067 41.87 145.159 41.7208C145.205 41.6451 145.575 40.9702 144.872 40.2404C144.749 40.1138 144.753 39.912 144.88 39.7902C145.006 39.6679 145.208 39.671 145.33 39.7982C146.185 40.6857 145.946 41.6634 145.7 42.0565C145.624 42.1773 145.482 42.2298 145.351 42.1962Z" fill="#FCFDFF"></path><path d="M147.723 37.535C147.692 37.527 147.662 37.5146 147.633 37.4965C147.485 37.4034 147.439 37.2087 147.531 37.0596C147.576 36.9838 147.947 36.3089 147.243 35.5791C147.121 35.4525 147.125 35.2508 147.251 35.1289C147.378 35.0065 147.58 35.0101 147.701 35.1369C148.557 36.0244 148.318 37.0021 148.071 37.3952C147.996 37.5161 147.854 37.5686 147.723 37.535Z" fill="#FCFDFF"></path><path d="M146.045 36.6823C146.041 36.6814 146.038 36.6806 146.034 36.6793C145.866 36.6305 145.77 36.4555 145.817 36.2873C145.827 36.2484 146.01 35.4971 145.076 34.9296C144.926 34.8384 144.878 34.6424 144.969 34.4922C145.06 34.3423 145.255 34.2944 145.406 34.3853C146.501 35.0503 146.554 36.0354 146.429 36.4631C146.381 36.6285 146.21 36.7248 146.045 36.6823Z" fill="#FCFDFF"></path><path d="M131.28 111.4C131.124 111.36 131.02 111.208 131.044 111.045C133.43 94.7832 129.114 80.6673 129.07 80.5263C129.018 80.3584 129.111 80.1799 129.279 80.1278C129.446 80.0748 129.625 80.1691 129.678 80.3367C129.722 80.4789 134.081 94.7266 131.674 111.138C131.648 111.311 131.487 111.432 131.313 111.406C131.302 111.405 131.291 111.403 131.28 111.4Z" fill="#FCFDFF"></path><path d="M97.6226 165.695C97.4541 165.652 97.3511 165.481 97.3927 165.312C97.4342 165.141 97.6065 165.036 97.7775 165.078C97.9299 165.115 113.075 168.759 118.34 165.534C118.491 165.442 118.686 165.489 118.778 165.639C118.87 165.789 118.822 165.985 118.673 166.077C113.182 169.439 98.259 165.85 97.6265 165.696C97.6252 165.696 97.6239 165.696 97.6226 165.695Z" fill="#FCFDFF"></path><path d="M71.8479 159.431C64.8935 157.646 60.1451 151.135 60.0913 151.06C59.9886 150.917 60.0214 150.719 60.1642 150.616C60.3065 150.513 60.5051 150.545 60.6084 150.689C60.6685 150.772 66.6943 159.025 74.9993 159.238C75.1752 159.243 75.3137 159.389 75.3095 159.564C75.3052 159.74 75.1587 159.879 74.9831 159.875C73.8976 159.847 72.8493 159.688 71.8479 159.431Z" fill="#FCFDFF"></path><path d="M126.861 148.609C126.803 148.595 126.748 148.563 126.705 148.516C126.587 148.387 126.596 148.186 126.724 148.067C126.773 148.022 127.846 146.989 126.959 145.352C126.876 145.198 126.933 145.004 127.088 144.92C127.242 144.836 127.435 144.894 127.519 145.049C128.649 147.134 127.17 148.522 127.155 148.536C127.073 148.612 126.961 148.635 126.861 148.609Z" fill="#FCFDFF"></path><path d="M124.204 146.066C124.146 146.051 124.091 146.02 124.048 145.972C123.93 145.843 123.938 145.642 124.067 145.524C124.116 145.478 125.189 144.445 124.302 142.808C124.219 142.654 124.276 142.46 124.431 142.377C124.585 142.292 124.779 142.35 124.863 142.505C125.992 144.591 124.513 145.978 124.498 145.992C124.416 146.068 124.304 146.092 124.204 146.066Z" fill="#FCFDFF"></path><path d="M127.358 142.993C127.3 142.978 127.246 142.947 127.203 142.899C127.085 142.77 127.093 142.57 127.222 142.451C127.27 142.406 128.343 141.372 127.457 139.735C127.373 139.581 127.431 139.388 127.586 139.304C127.74 139.219 127.933 139.277 128.017 139.432C129.147 141.518 127.668 142.906 127.653 142.92C127.57 142.995 127.459 143.019 127.358 142.993Z" fill="#FCFDFF"></path><path d="M124.904 139.869C124.846 139.854 124.792 139.822 124.749 139.775C124.63 139.646 124.639 139.445 124.768 139.326C124.816 139.281 125.889 138.248 125.003 136.611C124.919 136.456 124.976 136.263 125.131 136.18C125.286 136.095 125.479 136.153 125.563 136.308C126.692 138.394 125.214 139.782 125.199 139.795C125.116 139.871 125.005 139.895 124.904 139.869Z" fill="#FCFDFF"></path><path d="M121.851 142.945C121.793 142.93 121.739 142.899 121.696 142.852C121.577 142.722 121.586 142.522 121.715 142.403C121.763 142.358 122.836 141.324 121.95 139.688C121.866 139.533 121.924 139.34 122.079 139.256C122.233 139.172 122.426 139.229 122.51 139.385C123.64 141.47 122.161 142.858 122.146 142.872C122.063 142.947 121.952 142.971 121.851 142.945Z" fill="#FCFDFF"></path><path d="M127.65 136.612C127.592 136.597 127.538 136.565 127.495 136.518C127.377 136.389 127.385 136.188 127.514 136.069C127.562 136.024 128.635 134.991 127.749 133.354C127.665 133.199 127.723 133.006 127.878 132.922C128.032 132.838 128.225 132.896 128.309 133.051C129.438 135.136 127.96 136.524 127.945 136.538C127.862 136.614 127.751 136.638 127.65 136.612Z" fill="#FCFDFF"></path><path d="M125.369 134.526C125.339 134.518 125.309 134.506 125.281 134.488C125.132 134.396 125.086 134.201 125.177 134.051C125.208 134 125.924 132.768 124.574 131.331C124.453 131.203 124.46 131.002 124.588 130.881C124.716 130.761 124.917 130.767 125.038 130.895C126.732 132.699 125.729 134.368 125.719 134.385C125.644 134.506 125.501 134.559 125.369 134.526Z" fill="#FCFDFF"></path><path d="M61.0612 125.309C60.9266 125.275 60.8257 125.154 60.8222 125.008C60.7672 122.638 62.7157 122.075 62.7355 122.07C62.9051 122.022 63.0803 122.123 63.1269 122.293C63.1733 122.462 63.0741 122.637 62.9055 122.684C62.8439 122.702 61.416 123.132 61.4593 124.994C61.4631 125.17 61.3241 125.315 61.1484 125.319C61.118 125.32 61.0889 125.316 61.0612 125.309Z" fill="#FCFDFF"></path><path d="M62.2675 128.785C62.1329 128.75 62.0321 128.63 62.0286 128.484C61.9735 126.113 63.9222 125.551 63.942 125.545C64.1115 125.497 64.2867 125.598 64.3333 125.768C64.3797 125.937 64.2805 126.112 64.1115 126.159C64.041 126.179 62.6225 126.613 62.6657 128.469C62.6694 128.645 62.5304 128.791 62.3547 128.795C62.3244 128.795 62.2952 128.792 62.2675 128.785Z" fill="#FCFDFF"></path><path d="M58.0592 130.083C57.9246 130.048 57.8238 129.928 57.8203 129.782C57.7652 127.411 59.7138 126.849 59.7336 126.843C59.9034 126.796 60.0786 126.897 60.125 127.066C60.1714 127.235 60.0722 127.41 59.9032 127.457C59.8326 127.478 58.4142 127.911 58.4573 129.767C58.4611 129.943 58.3221 130.089 58.1464 130.093C58.1161 130.093 58.0869 130.09 58.0592 130.083Z" fill="#FCFDFF"></path><path d="M58.8205 133.982C58.6858 133.947 58.585 133.827 58.5815 133.681C58.5265 131.31 60.475 130.748 60.4948 130.743C60.6644 130.695 60.8396 130.796 60.8862 130.966C60.9326 131.135 60.8334 131.31 60.6647 131.357C60.6032 131.375 59.1753 131.805 59.2186 133.666C59.2224 133.842 59.0834 133.988 58.9077 133.992C58.8776 133.993 58.8484 133.989 58.8205 133.982Z" fill="#FCFDFF"></path><path d="M62.9399 132.634C62.8053 132.599 62.7045 132.479 62.701 132.333C62.6456 129.962 64.5943 129.4 64.6141 129.395C64.7835 129.347 64.9589 129.447 65.0054 129.617C65.0518 129.787 64.9526 129.962 64.7836 130.009C64.7131 130.029 63.2946 130.462 63.3381 132.318C63.3418 132.494 63.2029 132.64 63.0271 132.644C62.9969 132.645 62.9676 132.641 62.9399 132.634Z" fill="#FCFDFF"></path><path d="M54.8917 135.631C54.7571 135.596 54.6563 135.476 54.6528 135.33C54.5977 132.959 56.5463 132.397 56.5661 132.392C56.7355 132.344 56.9108 132.445 56.9574 132.614C57.0038 132.784 56.9047 132.958 56.736 133.005C56.6745 133.023 55.2465 133.453 55.2898 135.315C55.2936 135.491 55.1546 135.637 54.9789 135.641C54.949 135.641 54.9197 135.638 54.8917 135.631Z" fill="#FCFDFF"></path><path d="M56.81 138.959C56.7043 138.931 56.6153 138.851 56.5832 138.738C55.8968 136.361 57.5493 135.332 57.5663 135.322C57.7164 135.231 57.9122 135.279 58.0031 135.43C58.0937 135.58 58.046 135.775 57.8965 135.866C57.8423 135.9 56.6484 136.671 57.1944 138.562C57.2433 138.731 57.1459 138.907 56.9769 138.956C56.9208 138.972 56.8634 138.972 56.81 138.959Z" fill="#FCFDFF"></path><path d="M73.3005 106.247C73.2735 106.24 73.247 106.229 73.2218 106.215C73.069 106.128 73.0159 105.933 73.1027 105.781C73.4874 105.106 82.5662 89.2355 86.5322 85.9996C86.6682 85.8887 86.869 85.9084 86.9801 86.0452C87.0913 86.1813 87.0709 86.3819 86.9345 86.4931C83.0599 89.6539 73.7499 105.932 73.6561 106.096C73.5834 106.224 73.4361 106.282 73.3005 106.247Z" fill="#FCFDFF"></path><path d="M75.1884 49.1242C75.1884 49.1242 90.5202 47.5221 91.0729 49.25C91.3075 49.983 91.6372 57.6115 91.8214 66.2496L89.5843 71.255L91.9593 78.0361C91.962 85.5975 91.7554 91.804 91.1605 92.2815C89.6118 93.5242 73.8854 95.3378 72.8581 93.6332C71.8309 91.9293 71.1031 49.4823 75.1884 49.1242Z" fill="#EFEBD5"></path><path d="M71.8551 67.3467C71.8551 67.3467 91.8026 65.9739 91.8213 66.2495C92.2151 72.0162 91.9592 78.036 91.9592 78.036C91.9592 78.036 72.3285 79.5395 72.0943 79.3731C71.0912 78.6607 71.8551 67.3467 71.8551 67.3467Z" fill="#DF4F3E"></path><path d="M81.7793 73.8205C81.6115 72.8783 81.197 72.1892 80.6412 71.6865C82.6743 71.5501 83.3856 70.5852 79.3014 67.5379C68.4382 59.4323 67.4365 72.5917 67.4365 72.5917C66.4351 81.5033 71.0451 80.1683 72.3321 79.2164C74.7596 77.4206 76.601 79.6265 79.1644 78.4204C81.4263 77.3561 77.6921 75.0866 77.6921 75.0866C77.6921 75.0866 82.3699 77.1361 81.7793 73.8205Z" fill="#F2988B"></path><path d="M79.7888 71.1819C79.7334 71.1676 79.6812 71.1385 79.6386 71.0944C76.7421 68.0758 72.275 69.1884 72.23 69.2003C72.0601 69.2445 71.8861 69.1425 71.8417 68.9722C71.7979 68.8021 71.8995 68.6283 72.0694 68.5841C72.2672 68.533 76.9396 67.3625 80.0978 70.6531C80.2198 70.78 80.2153 70.9816 80.0888 71.1034C80.0062 71.1824 79.8922 71.2084 79.7888 71.1819Z" fill="#241726"></path><path d="M71.9826 74.886C71.919 74.8697 71.8602 74.8338 71.8156 74.7791C71.7045 74.6426 71.7247 74.4423 71.8606 74.331C71.9267 74.277 73.5007 73.0129 75.4763 73.2818C76.7672 73.4583 77.9042 74.237 78.8679 75.5995C78.9694 75.7432 78.9352 75.9419 78.7918 76.0435C78.648 76.1451 78.4494 76.1105 78.3477 75.9674C77.4899 74.7539 76.4933 74.0618 75.3905 73.9125C73.686 73.6807 72.277 74.8124 72.2633 74.824C72.1818 74.8909 72.0772 74.9103 71.9826 74.886Z" fill="#241726"></path><path d="M81.2506 58.2581C81.1157 58.2234 80.9803 58.1827 80.845 58.1352C75.2579 56.1938 74.8569 51.3771 74.8533 51.3282C74.8412 51.1535 74.9728 51.0012 75.1483 50.989C75.3235 50.9776 75.476 51.1083 75.4887 51.2835C75.5019 51.4646 75.876 55.7344 81.054 57.5341C82.0982 57.8961 83.1183 57.8294 84.0876 57.3354C86.76 55.9739 88.3987 51.7824 88.8507 50.4894C84.0109 50.1838 78.8621 50.0802 77.9163 50.4069C78.2355 51.1131 79.6428 53.0795 81.326 54.0226C82.1163 54.4659 82.8323 54.5994 83.4536 54.42C84.1003 54.233 84.5601 53.8915 84.8208 53.4052C85.1574 52.7769 85.1005 52.0325 85.0266 51.6113L81.1921 53.1183C81.0275 53.1823 80.8433 53.1018 80.7793 52.9385C80.715 52.7749 80.7957 52.5901 80.959 52.5257L85.1369 50.8836C85.2189 50.8517 85.3106 50.8548 85.3899 50.8922C85.4693 50.9301 85.5298 50.9989 85.5566 51.0825C85.5754 51.141 86.0088 52.5292 85.3845 53.7008C85.0407 54.3467 84.4503 54.7946 83.6306 55.0313C82.8401 55.2598 81.96 55.1073 81.0148 54.578C79.081 53.4945 77.4476 51.1619 77.2456 50.4258C77.2084 50.2916 77.2392 50.1506 77.3297 50.0398C77.9915 49.2288 85.9242 49.6583 89.3044 49.8805C89.4009 49.8858 89.4901 49.9365 89.545 50.0167C89.6003 50.0962 89.616 50.1972 89.5881 50.2899C89.5157 50.5291 87.7789 56.1681 84.378 57.9018C83.3735 58.4142 82.3234 58.5335 81.2506 58.2581Z" fill="#241726"></path><path d="M139.877 35.3773C139.842 35.3417 136.29 31.7606 132.493 28.2926C124.477 20.9723 123.193 21.2655 122.504 21.4228C120.717 21.8313 116.305 23.8063 113.919 24.9064C111.236 22.9292 111.061 27.243 111.061 27.243C111.061 27.243 107.73 27.4739 107.302 27.7864C106.874 28.099 109.734 31.6814 110.507 32.0537C111.281 32.4259 112.077 28.4597 112.077 28.4597C112.569 28.8702 114.71 27.896 114.873 26.5701C117.468 25.3783 121.372 23.6579 122.884 23.2955C124.472 23.4518 132.217 30.3598 138.52 36.7217C138.646 36.8486 138.799 36.9331 138.96 36.9745C139.275 37.0553 139.623 36.9736 139.871 36.7282C140.246 36.3568 140.248 35.7521 139.877 35.3773Z" fill="#F2C100"></path><path d="M108.447 29.2472C108.394 29.2337 108.345 29.207 108.304 29.1665C108.178 29.0438 108.176 28.842 108.299 28.7161C109.254 27.7403 110.486 27.6226 110.538 27.6178C110.713 27.6037 110.866 27.7319 110.883 27.9064C110.898 28.081 110.769 28.236 110.594 28.2518C110.584 28.2527 109.539 28.3583 108.754 29.1612C108.671 29.2458 108.553 29.2746 108.447 29.2472Z" fill="#241726"></path><path d="M109.7 31.3063C109.598 31.2802 109.512 31.2043 109.477 31.0975C109.212 30.2929 110.521 29.2103 110.928 28.8975C111.068 28.7908 111.268 28.8168 111.375 28.9561C111.482 29.0956 111.456 29.2954 111.316 29.4028C110.595 29.9568 110.006 30.6699 110.082 30.8981C110.137 31.0651 110.046 31.245 109.879 31.3C109.819 31.32 109.757 31.3209 109.7 31.3063Z" fill="#241726"></path><path d="M151.686 85.1105C151.584 85.0843 151.497 85.0084 151.462 84.9008C151.407 84.7337 151.499 84.5539 151.666 84.4993C151.969 84.3998 159.155 82.0957 163.932 83.6633C164.099 83.7182 164.19 83.8987 164.135 84.0657C164.08 84.2326 163.905 84.3202 163.733 84.2684C159.15 82.7606 151.936 85.0813 151.864 85.1049C151.804 85.1244 151.742 85.125 151.686 85.1105Z" fill="#FCFDFF"></path></g><defs><linearGradient id="paint0_linear_321_6117" x1="180.811" y1="42.31" x2="16.1284" y2="156.279" gradientUnits="userSpaceOnUse"><stop stop-color="#B5B5FF"></stop><stop offset="1" stop-color="#4F4789"></stop></linearGradient><linearGradient id="paint1_linear_321_6117" x1="123.739" y1="18.3002" x2="153.251" y2="53.1434" gradientUnits="userSpaceOnUse"><stop stop-color="#B5B5FF"></stop><stop offset="1" stop-color="#4F4789"></stop></linearGradient><clipPath id="clip0_321_6117"><rect width="166.25" height="166.25" fill="white" transform="translate(41.8428 0.500488) rotate(14.3993)"></rect></clipPath></defs></svg> 