<?xml version="1.0" encoding="UTF-8"?> <svg xmlns="http://www.w3.org/2000/svg" width="204" height="205" viewBox="0 0 204 205" fill="none"><g clip-path="url(#clip0_321_6018)"><path d="M126.908 41.1038C126.908 41.1038 118.428 33.4609 121.375 32.6061C124.322 31.751 125.871 34.9116 125.871 34.9116C125.871 34.9116 120.446 22.7253 123.519 22.5286C126.593 22.3319 128.118 26.6881 128.118 26.6881C128.118 26.6881 126.788 19.5644 130.026 21.069C132.552 22.2429 132.228 24.7112 132.228 24.7112C132.228 24.7112 132.933 18.3667 135.207 20.7212C137.48 23.0756 137.62 29.6787 140.277 38.5204C142.935 47.362 131.108 56.6903 126.908 41.1038Z" fill="#EC7F31"></path><path d="M141.592 172.75C141.592 172.75 134.361 170.484 132.964 162.72C131.566 154.956 131.887 151.827 126.948 153.072C122.01 154.316 118.69 153.496 121.229 159.442C123.768 165.388 125.441 171.177 125.441 171.177C125.441 171.177 135.043 182.62 141.592 172.75Z" fill="#EC7F31"></path><path d="M124.697 167.824C124.697 167.824 131.291 174.262 132.86 174.606C134.43 174.949 136.326 170.92 138.758 170.881C141.19 170.842 145.77 172.629 146.392 174.646C147.013 176.663 134.597 180.414 131.986 179.649C129.375 178.885 127.63 173.095 127.412 174.219C127.195 175.342 129.928 180.471 127.59 180.874C125.253 181.277 121.226 165.844 124.697 167.824Z" fill="#413655"></path><path d="M102.017 183.354C102.017 183.354 107.146 177.777 104.474 170.354C101.803 162.932 99.9608 160.382 104.86 158.991C109.759 157.599 112.224 155.229 112.998 161.648C113.772 168.067 115.218 173.917 115.218 173.917C115.218 173.917 112.624 188.628 102.017 183.354Z" fill="#EC7F31"></path><path d="M114.186 170.641C114.186 170.641 111.694 179.513 110.507 180.595C109.32 181.678 105.663 179.136 103.537 180.318C101.412 181.501 98.3385 185.338 98.8086 187.396C99.2787 189.453 111.907 186.493 113.786 184.526C115.665 182.559 114.281 176.671 115.032 177.536C115.782 178.4 115.979 184.209 118.205 183.389C120.431 182.569 116.201 167.191 114.186 170.641Z" fill="#413655"></path><path d="M107.53 70.3167C105.799 66.2528 100.221 69.5094 99.0675 67.9035C98.3094 66.8487 96.5789 61.7977 95.4809 58.4556C99.9439 47.5003 95.2752 43.8464 84.7463 41.4261C84.7463 41.4261 78.5872 37.9611 73.9901 47.3444C69.3931 56.7278 69.8725 58.853 71.6888 60.5315C73.5053 62.21 74.7811 58.9829 75.9583 61.0495C77.1354 63.1161 76.7738 66.0337 78.7559 68.5274C81.1962 71.5982 85.3955 70.9309 89.2146 67.6337C90.1896 68.9582 90.9123 70.2053 90.7617 70.8417C90.3502 72.5786 87.4796 73.2533 83.0906 73.9796C78.7013 74.7059 80.5285 85.0555 92.8051 84.3887C100.98 83.9447 109.261 74.3805 107.53 70.3167Z" fill="#EC7F31"></path><path d="M77.6741 55.815C77.4713 55.8693 77.265 55.85 77.067 55.7561C75.8513 55.1796 75.2409 51.6313 75.131 50.9255C75.1035 50.75 75.2222 50.5831 75.3998 50.558C75.5757 50.5304 75.7407 50.6506 75.7678 50.8258C76.02 52.4411 76.6757 54.8582 77.3438 55.1747C77.4071 55.2045 77.4813 55.2225 77.6002 55.153C78.5226 54.6161 78.3395 51.9823 78.0076 50.4482C77.9702 50.2747 78.0791 50.1087 78.2549 50.0656C78.4288 50.0281 78.6005 50.1381 78.6379 50.3116C78.736 50.7644 79.5501 54.7623 77.9244 55.7089C77.8427 55.7574 77.7587 55.7923 77.6741 55.815Z" fill="#241726"></path><path d="M83.656 55.0897C83.4529 55.1441 83.2469 55.1247 83.0485 55.0309C81.8328 54.4541 81.2225 50.9061 81.1127 50.2006C81.0849 50.0252 81.204 49.8598 81.3815 49.8331C81.5574 49.8055 81.7224 49.9257 81.7495 50.1009C82.0016 51.7159 82.6572 54.1327 83.3257 54.4494C83.3884 54.4793 83.4629 54.4973 83.5821 54.4277C84.5042 53.8909 84.3212 51.2574 83.9893 49.7233C83.9519 49.5498 84.0602 49.383 84.2366 49.3407C84.4105 49.3032 84.5823 49.4135 84.6196 49.5867C84.7176 50.0395 85.5317 54.0371 83.9063 54.9836C83.8242 55.0318 83.7406 55.067 83.656 55.0897Z" fill="#241726"></path><path d="M92.5384 57.0657C92.3702 57.1108 92.1902 57.1143 92.0044 57.075C91.3824 56.9432 90.8011 56.3231 90.5901 55.5671C90.3454 54.6891 90.6188 53.7979 91.3402 53.1222C93.4147 51.1804 95.1699 52.7522 95.1873 52.7681C95.3183 52.8883 95.3264 53.0922 95.2057 53.2227C95.0852 53.3541 94.8818 53.3619 94.751 53.2423C94.6929 53.1903 93.4066 52.0683 91.781 53.5914C91.6625 53.7025 91.5644 53.8145 91.4841 53.9261C92.0587 53.9903 92.6989 54.3522 93.0797 54.8062C93.5834 55.4071 93.6047 56.1026 93.1368 56.6667C92.9677 56.8707 92.7638 57.0053 92.5384 57.0657ZM91.1887 54.568C91.1128 54.9033 91.1566 55.1975 91.2112 55.3939C91.3775 55.9905 91.8039 56.3744 92.1393 56.4452C92.3362 56.4872 92.5003 56.4255 92.6401 56.2569C92.9092 55.933 92.8902 55.5841 92.585 55.2198C92.2005 54.7621 91.5339 54.499 91.1887 54.568Z" fill="#241726"></path><path d="M85.3477 70.3598C85.1789 70.4051 85.0042 70.3077 84.9548 70.1397C84.9047 69.9692 85.0031 69.7906 85.174 69.7404C89.5891 68.4498 91.9557 63.6066 91.9793 63.5576C92.0571 63.3976 92.2495 63.3299 92.4094 63.406C92.5698 63.4827 92.6378 63.6746 92.5608 63.8351C92.4603 64.0449 90.043 68.9871 85.3543 70.3581C85.3521 70.3586 85.3499 70.3592 85.3477 70.3598Z" fill="#241726"></path><path d="M144.997 39.7283C141.494 37.6425 122.647 46.0169 122.647 46.0169C122.647 46.0169 132.665 64.1087 127.429 65.7604C124.661 66.6335 108.651 66.3142 108.651 66.3142L108.508 70.0055C108.309 70.1297 108.105 70.2569 107.894 70.3885C100.772 74.8338 105.804 85.6293 97.0406 87.9303C93.9398 88.7444 90.5647 86.5413 87.6208 83.8599C85.6312 78.3414 82.9532 74.2764 82.9532 74.2764C74.9025 70.8742 67.4216 94.753 62.7073 91.5164C57.9934 88.2796 54.5647 70.9299 54.5647 70.9299C54.5647 70.9299 43.6454 73.2611 39.0528 73.5272C34.4604 73.7937 33.6425 101.096 54.9766 111.642C64.8852 116.541 71.9274 108.599 78.2663 105.464C74.8995 127.106 68.8106 154.239 67.862 157.962C66.5488 163.114 81.6613 169.947 103.223 168.914L115.519 156.663L131.711 161.252C145.604 154.425 155.836 145.062 154.935 142.34C154.085 139.77 137.812 108.898 126.309 87.1957C132.127 86.8815 138.881 85.639 145.902 82.5509C165.975 73.722 148.5 41.8141 144.997 39.7283Z" fill="url(#paint0_linear_321_6018)"></path><path d="M88.1622 72.8777C88.1622 72.8777 89.6414 77.1695 92.513 78.2819C95.3847 79.3946 98.7389 69.1784 100.697 68.7755C102.654 68.3726 104.645 67.2215 106.267 69.3823C107.889 71.5436 108.259 89.9087 95.839 97.3059C91.5098 99.8842 82.0951 75.1751 82.0951 75.1751C82.0951 75.1751 83.4919 73.124 88.1622 72.8777Z" fill="#EFEBD5"></path><path d="M97.3119 85.2926C97.1697 85.3307 97.022 85.3339 96.8721 85.3015C95.9192 85.0953 95.0616 83.4617 94.2322 81.8821C93.9081 81.2647 93.4834 80.4558 93.2243 80.1504C93.1182 80.4423 92.9866 81.0313 92.8763 81.5251C92.413 83.5969 91.7134 86.7281 89.8117 87.2421C89.8101 87.2425 89.8085 87.2429 89.807 87.2433C88.6628 87.5499 87.3448 86.8768 85.7767 85.1859C83.5337 82.7675 82.5557 80.4881 82.8697 78.4116C83.2444 75.9315 85.326 74.6994 85.4144 74.6481C85.5676 74.5597 85.765 74.611 85.8544 74.7645C85.9436 74.9178 85.8919 75.1148 85.738 75.2045C85.7188 75.2157 83.8303 76.3423 83.5059 78.5147C83.2266 80.3864 84.1498 82.4837 86.2503 84.749C87.6214 86.2275 88.762 86.8574 89.6408 86.6219C89.6417 86.6217 89.6427 86.6214 89.6436 86.6212C91.1688 86.2088 91.8436 83.1898 92.2469 81.3858C92.5626 79.9723 92.7049 79.3261 93.2201 79.4062C93.6792 79.4785 94.0579 80.1637 94.8032 81.5832C95.4562 82.8269 96.3507 84.5302 97.0096 84.6727C97.1062 84.6935 97.1861 84.6724 97.2774 84.6019C98.4307 83.7093 103.818 78.0487 103.838 73.7953C103.844 72.4935 103.335 71.431 102.325 70.6379C102.185 70.5282 102.161 70.3258 102.272 70.1864C102.382 70.0462 102.585 70.0225 102.724 70.1323C103.898 71.0543 104.489 72.2873 104.482 73.7978C104.462 78.2799 99.0526 84.0422 97.6718 85.1104C97.5591 85.1978 97.4379 85.2588 97.3119 85.2926Z" fill="#241726"></path><path d="M85.4954 73.2715C85.4954 73.2715 93.7597 98.4714 94.9722 97.0439C96.1843 95.6165 100.144 69.257 102.661 67.4478C105.995 65.0503 106.707 65.0376 108.396 66.0908C110.085 67.144 106.048 103.56 97.5611 105.86C92.0344 107.357 77.9703 78.7046 78.066 75.0023C78.0998 73.696 85.4954 73.2715 85.4954 73.2715Z" fill="#F2C100"></path><path d="M96.962 101.563C96.696 101.634 96.4322 101.617 96.1867 101.509C92.6264 99.9531 85.0556 82.9351 81.966 75.6907C81.8732 75.4739 81.8184 75.345 81.8055 75.3169C81.7331 75.1611 81.7947 74.9735 81.9472 74.8937C82.1005 74.8129 82.2864 74.8643 82.3737 75.0127C82.3798 75.0228 82.4453 75.1703 82.5599 75.4384C88.9317 90.3785 94.1231 99.9043 96.4467 100.92C96.5467 100.964 96.7089 101.007 96.9633 100.876C100.302 99.1527 105.514 77.1971 107.24 68.8828C107.277 68.7087 107.446 68.5971 107.621 68.6328C107.796 68.6688 107.908 68.8388 107.872 69.0129C107.856 69.088 106.286 76.6214 104.222 84.3232C101.43 94.7421 99.0876 100.503 97.2586 101.447C97.1596 101.498 97.0607 101.536 96.962 101.563Z" fill="#FCFDFF"></path><path d="M99.2954 108.953C103.606 107.798 106.167 103.376 105.014 99.0756C103.862 94.7754 99.4335 92.2257 95.1228 93.3808C90.8121 94.5358 88.2516 98.9582 89.4039 103.258C90.5561 107.559 94.9847 110.108 99.2954 108.953Z" fill="#EC7F31"></path><path d="M93.9818 100.144C93.9818 100.144 94.799 96.0142 95.3961 96.0855C95.9929 96.1572 97.9103 99.0914 97.9103 99.0914C97.9103 99.0914 101.8 98.3625 102.164 99.0173C102.528 99.6722 100.071 102.086 100.071 102.086C100.071 102.086 101.611 105.811 101.153 106.122C100.694 106.433 97.6553 104.238 97.6553 104.238C97.6553 104.238 95.0184 107.765 94.6898 107.477C94.3612 107.189 94.5818 103.557 94.5818 103.557C94.5818 103.557 91.0253 102.361 91.1857 101.786C91.346 101.211 93.9818 100.144 93.9818 100.144Z" fill="#F2C100"></path><path d="M145.164 131.873C145.106 131.888 145.043 131.888 144.981 131.867C144.812 131.812 144.72 131.632 144.775 131.463C144.794 131.403 145.23 129.958 143.634 128.956C143.483 128.862 143.438 128.664 143.533 128.513C143.628 128.362 143.826 128.317 143.978 128.412C146.01 129.686 145.394 131.642 145.388 131.662C145.353 131.769 145.266 131.845 145.164 131.873Z" fill="#FCFDFF"></path><path d="M141.556 130.954C141.498 130.97 141.434 130.969 141.372 130.949C141.204 130.894 141.112 130.713 141.166 130.544C141.186 130.48 141.621 129.038 140.026 128.038C139.875 127.944 139.83 127.745 139.925 127.594C140.019 127.444 140.218 127.398 140.369 127.493C142.401 128.768 141.786 130.723 141.779 130.743C141.744 130.85 141.658 130.927 141.556 130.954Z" fill="#FCFDFF"></path><path d="M142.815 126.683C142.756 126.699 142.693 126.698 142.631 126.678C142.462 126.623 142.37 126.442 142.425 126.274C142.445 126.21 142.879 124.767 141.284 123.767C141.133 123.673 141.088 123.474 141.183 123.323C141.278 123.173 141.477 123.127 141.628 123.222C143.66 124.497 143.044 126.453 143.038 126.472C143.003 126.58 142.916 126.656 142.815 126.683Z" fill="#FCFDFF"></path><path d="M139.097 125.151C139.038 125.167 138.975 125.167 138.913 125.146C138.744 125.091 138.652 124.911 138.707 124.742C138.726 124.681 139.163 123.237 137.566 122.235C137.416 122.141 137.37 121.942 137.465 121.792C137.56 121.641 137.759 121.596 137.91 121.69C139.942 122.965 139.326 124.921 139.32 124.941C139.285 125.048 139.198 125.124 139.097 125.151Z" fill="#FCFDFF"></path><path d="M137.93 129.375C137.872 129.39 137.809 129.39 137.747 129.37C137.578 129.315 137.486 129.134 137.541 128.965C137.561 128.901 137.995 127.459 136.4 126.459C136.249 126.364 136.204 126.166 136.299 126.015C136.394 125.865 136.592 125.819 136.744 125.914C138.776 127.188 138.16 129.144 138.154 129.164C138.118 129.272 138.032 129.348 137.93 129.375Z" fill="#FCFDFF"></path><path d="M139.903 120.921C139.845 120.936 139.781 120.936 139.719 120.915C139.551 120.86 139.459 120.68 139.513 120.511C139.534 120.447 139.968 119.005 138.373 118.004C138.222 117.91 138.177 117.712 138.272 117.561C138.366 117.41 138.565 117.365 138.716 117.459C140.748 118.734 140.133 120.69 140.126 120.71C140.091 120.817 140.005 120.893 139.903 120.921Z" fill="#FCFDFF"></path><path d="M136.854 120.217C136.823 120.226 136.791 120.229 136.757 120.228C136.58 120.221 136.442 120.072 136.449 119.895C136.451 119.826 136.464 118.394 134.566 117.802C134.396 117.749 134.301 117.568 134.355 117.398C134.408 117.229 134.588 117.134 134.759 117.187C137.149 117.933 137.094 119.9 137.093 119.92C137.087 120.064 136.987 120.182 136.854 120.217Z" fill="#FCFDFF"></path><path d="M75.5172 144.043C75.3814 144.08 75.2326 144.024 75.1569 143.897C73.9308 141.838 75.3717 140.375 75.3864 140.361C75.5127 140.235 75.717 140.236 75.8425 140.363C75.9675 140.488 75.9667 140.692 75.841 140.817C75.7887 140.87 74.752 141.956 75.7117 143.568C75.8025 143.721 75.7519 143.918 75.5991 144.009C75.5728 144.024 75.5452 144.036 75.5172 144.043Z" fill="#FCFDFF"></path><path d="M78.3076 146.502C78.1717 146.539 78.023 146.483 77.9472 146.356C76.7209 144.297 78.1621 142.834 78.1768 142.82C78.3027 142.694 78.5074 142.696 78.6328 142.822C78.7579 142.947 78.757 143.15 78.6315 143.276C78.5857 143.322 77.539 144.41 78.502 146.027C78.5928 146.18 78.5423 146.377 78.3894 146.468C78.3632 146.484 78.3355 146.495 78.3076 146.502Z" fill="#FCFDFF"></path><path d="M75.2382 149.735C75.1024 149.772 74.9536 149.716 74.8779 149.589C73.6518 147.53 75.0927 146.067 75.1074 146.053C75.2333 145.927 75.438 145.928 75.5635 146.055C75.6885 146.18 75.6876 146.383 75.5622 146.509C75.5166 146.555 74.4699 147.643 75.4326 149.26C75.5235 149.413 75.4729 149.61 75.32 149.701C75.2938 149.716 75.2662 149.728 75.2382 149.735Z" fill="#FCFDFF"></path><path d="M77.8466 152.789C77.7107 152.826 77.562 152.77 77.4863 152.643C76.2602 150.584 77.7011 149.121 77.7158 149.107C77.842 148.981 78.0464 148.983 78.1719 149.109C78.2969 149.235 78.2961 149.438 78.1703 149.563C78.118 149.616 77.0814 150.702 78.041 152.314C78.1318 152.467 78.0813 152.664 77.9284 152.755C77.9022 152.771 77.8746 152.782 77.8466 152.789Z" fill="#FCFDFF"></path><path d="M80.8129 149.557C80.6771 149.593 80.5283 149.537 80.4526 149.411C79.2262 147.352 80.6671 145.889 80.6818 145.875C80.8081 145.749 81.0123 145.75 81.1379 145.876C81.263 146.002 81.2621 146.205 81.1366 146.331C81.091 146.377 80.0443 147.464 81.0074 149.082C81.0982 149.235 81.0477 149.432 80.8948 149.523C80.8686 149.538 80.8409 149.55 80.8129 149.557Z" fill="#FCFDFF"></path><path d="M75.1975 156.192C75.0617 156.228 74.9129 156.172 74.8372 156.045C73.6111 153.986 75.052 152.523 75.0667 152.509C75.1922 152.383 75.3973 152.384 75.5228 152.511C75.6478 152.636 75.647 152.84 75.5217 152.965C75.4765 153.011 74.4289 154.099 75.392 155.716C75.4828 155.869 75.4322 156.066 75.2794 156.158C75.2531 156.173 75.2255 156.184 75.1975 156.192Z" fill="#FCFDFF"></path><path d="M78.5433 158.167C78.4364 158.196 78.318 158.169 78.2338 158.086C76.4473 156.335 77.3948 154.608 77.4047 154.591C77.4919 154.436 77.6886 154.382 77.8441 154.469C77.9985 154.556 78.0532 154.751 77.9665 154.905C77.9354 154.962 77.2642 156.234 78.6855 157.627C78.8125 157.751 78.8142 157.955 78.6894 158.081C78.648 158.124 78.5973 158.153 78.5433 158.167Z" fill="#FCFDFF"></path><path d="M68.0963 63.2521C68.0963 63.2521 74.6935 77.3633 73.2219 78.4625C72.5877 78.9364 65.1693 81.859 56.796 84.9467L50.3184 84.9461L45.8932 88.8514C38.6827 91.3438 32.705 93.1875 32.0535 92.7785C30.3521 91.7106 23.4222 77.2925 24.7148 75.7478C26.0073 74.203 66.4044 59.4695 68.0963 63.2521Z" fill="#EFEBD5"></path><path d="M48.4906 66.6914C48.4906 66.6914 57.1302 84.1753 56.796 84.9466L45.8931 88.851C45.8931 88.851 37.2375 70.9199 38.2153 70.1476C39.1932 69.3749 48.4906 66.6914 48.4906 66.6914Z" fill="#DF4F3E"></path><path d="M50.9051 72.3848C46.7101 80.185 47.7864 73.0934 47.7864 73.0934C47.7864 73.0934 47.825 75.3249 46.4929 76.4731C43.9099 78.6992 43.8868 73.9446 43.8868 73.9446C43.8868 73.9446 44.3685 75.8228 43.3298 76.9099C41.3484 78.9828 39.4291 70.3535 36.3574 70.909C36.3574 70.909 36.3003 65.5221 44.3846 64.871C45.189 64.8068 53.7649 67.0669 50.9051 72.3848Z" fill="#EC7F31"></path><path d="M47.1111 75.5167C47.0366 75.5367 46.9547 75.5304 46.8806 75.4928C46.7223 75.4115 46.6596 75.2178 46.7406 75.0596C48.6432 71.3536 44.495 68.0271 44.4527 67.9937C44.313 67.8839 44.2892 67.6816 44.3997 67.542C44.51 67.4029 44.7128 67.3788 44.8524 67.4886C44.8986 67.525 49.456 71.1812 47.3145 75.3529C47.2713 75.4368 47.1956 75.4941 47.1111 75.5167Z" fill="#241726"></path><path d="M43.7858 75.6451C43.7528 75.6539 43.7175 75.658 43.6811 75.6553C43.5034 75.6438 43.3691 75.4908 43.3812 75.3132C43.6607 71.1324 41.3652 69.2646 41.3421 69.2465C41.2028 69.1366 41.1789 68.9343 41.2889 68.7952C41.3985 68.6559 41.6011 68.6309 41.7409 68.7403C41.8466 68.8229 44.3285 70.8173 44.0244 75.3556C44.0146 75.4964 43.9154 75.6104 43.7858 75.6451Z" fill="#241726"></path><path d="M111.553 56.1433C111.867 54.4541 110.219 52.4107 109.189 52.2698C107.369 52.0213 105.554 51.2263 103.866 51.6905C104.328 50.5372 104.429 49.0963 103.637 47.9661C101.897 45.4811 97.7347 44.1438 98.6544 41.5823C99.5744 39.0206 88.4738 41.6313 88.4738 41.6313C88.4738 41.6313 85.6554 53.5958 90.7522 51.6398C95.849 49.6838 98.1704 52.4301 94.5357 56.5303C90.9008 60.6306 93.8909 64.1824 96.846 64.4457C97.0214 64.4613 97.1855 64.4664 97.3411 64.4647C97.2853 66.2586 98.0105 68.7123 99.8924 69.7416C101.511 70.6269 103.568 69.7349 105.013 68.5147C105.371 69.5947 106.773 70.2251 110.314 68.878C118.553 65.7431 115.606 55.8971 111.553 56.1433Z" fill="#B55339"></path><path d="M83.9185 41.5924C83.2676 41.5954 75.6896 41.6926 75.6896 41.6926C75.6896 41.6926 69.4155 40.1866 69.4714 45.363C69.4894 47.0551 70.0564 47.995 70.7574 48.4583C70.4926 49.1663 70.5518 50.1129 71.234 51.1123C72.5062 52.9764 76.8105 51.0559 78.4788 48.9314C79.0556 49.6065 80.2556 49.8592 82.4903 48.6889C88.6457 45.466 84.5693 41.5891 83.9185 41.5924Z" fill="#B55339"></path><path d="M90.4072 19.7639C88.5527 18.7488 66.7179 31.0282 65.423 32.1772C64.7493 32.7752 70.4317 35.3077 76.0366 37.5998C75.8179 39.8939 75.6896 41.6928 75.6896 41.6928L99.0011 43.8421C99.0011 43.8421 99.4503 39.3523 99.5656 35.3094C103.732 33.2694 107.406 31.3837 107.973 30.8136C109.371 29.4081 92.2617 20.7791 90.4072 19.7639Z" fill="url(#paint1_linear_321_6018)"></path><path d="M87.3546 41.6043C87.2002 41.6457 87.0649 41.6725 86.9515 41.6831C84.9921 41.8673 78.3493 38.1352 77.5981 37.7088C77.4435 37.6208 77.3895 37.4245 77.4775 37.2698C77.5662 37.1156 77.7626 37.0613 77.9175 37.1489C79.9093 38.2792 85.4045 41.1819 86.892 41.0425C88.4027 40.9026 95.0781 37.094 97.522 35.6391C97.6736 35.5473 97.8728 35.5975 97.9639 35.7502C98.055 35.9027 98.0048 36.1003 97.8519 36.1914C97.509 36.3955 89.8781 40.9282 87.3546 41.6043Z" fill="#FCFDFF"></path><path d="M100.108 27.4228C99.9392 27.4682 99.7648 27.3704 99.7155 27.2027C99.6889 27.1161 99.4331 26.3828 98.4069 26.4178C98.229 26.4241 98.0801 26.2848 98.0743 26.1072C98.0679 25.9298 98.2082 25.7792 98.386 25.7749C99.6336 25.7324 100.207 26.5729 100.335 27.0233C100.384 27.1944 100.284 27.3724 100.113 27.4212C100.112 27.4219 100.11 27.4224 100.108 27.4228Z" fill="#FCFDFF"></path><path d="M97.9731 28.1888C97.8039 28.2341 97.6294 28.1363 97.5801 27.9687C97.5535 27.882 97.2977 27.1485 96.272 27.184C96.094 27.19 95.9448 27.0508 95.9388 26.8736C95.9333 26.6959 96.0751 26.5449 96.2503 26.541C97.4981 26.4981 98.0712 27.3389 98.1996 27.7892C98.2485 27.9604 98.1489 28.1383 97.978 28.1871C97.9762 28.1879 97.9743 28.1885 97.9731 28.1888Z" fill="#FCFDFF"></path><path d="M97.1469 25.6077C96.9778 25.6531 96.8033 25.5553 96.754 25.3876C96.7274 25.3009 96.4716 24.5677 95.4455 24.6027C95.2675 24.609 95.1187 24.4697 95.1129 24.2921C95.1067 24.1143 95.2455 23.9634 95.4245 23.9598C96.6721 23.9173 97.2451 24.7578 97.3735 25.2082C97.4224 25.3793 97.3228 25.5572 97.1519 25.6061C97.1504 25.6068 97.1485 25.6073 97.1469 25.6077Z" fill="#FCFDFF"></path><path d="M94.7465 26.1025C94.5773 26.1479 94.4028 26.0501 94.3535 25.8824C94.327 25.7958 94.0712 25.0625 93.045 25.0975C92.8671 25.1038 92.7182 24.9645 92.7124 24.7869C92.7063 24.6094 92.8465 24.4572 93.0241 24.4546C94.2716 24.4122 94.8446 25.2526 94.973 25.703C95.0219 25.8741 94.9223 26.0521 94.7514 26.1009C94.7499 26.1016 94.748 26.1021 94.7465 26.1025Z" fill="#FCFDFF"></path><path d="M95.6029 28.6281C95.4337 28.6735 95.2592 28.5757 95.2099 28.408C95.1833 28.3214 94.9276 27.5881 93.9014 27.6231C93.7235 27.6294 93.5746 27.4901 93.5688 27.3125C93.5626 27.1347 93.7028 26.9838 93.8804 26.9802C95.128 26.9377 95.701 27.7782 95.8294 28.2286C95.8783 28.3997 95.7787 28.5777 95.6078 28.6265C95.606 28.6273 95.6041 28.6278 95.6029 28.6281Z" fill="#FCFDFF"></path><path d="M93.7064 23.6955C93.5372 23.7408 93.3627 23.643 93.3134 23.4754C93.2869 23.3887 93.031 22.6552 92.0055 22.6903C91.8276 22.6966 91.6784 22.5574 91.6727 22.3801C91.6665 22.2023 91.8069 22.0497 91.984 22.0476C93.2318 22.0047 93.8045 22.8456 93.9329 23.2959C93.9818 23.4671 93.8822 23.645 93.7113 23.6938C93.7095 23.6947 93.708 23.6951 93.7064 23.6955Z" fill="#FCFDFF"></path><path d="M91.9264 24.3801C91.7931 24.4158 91.6472 24.3628 91.5704 24.2409C91.5467 24.2055 91.1153 23.5537 90.0465 23.88C89.883 23.9212 89.6961 23.8348 89.6448 23.6646C89.594 23.494 89.6906 23.3149 89.8611 23.2634C91.1178 22.8978 91.8808 23.517 92.1176 23.8999C92.211 24.0511 92.164 24.2492 92.0122 24.343C91.9851 24.36 91.956 24.3722 91.9264 24.3801Z" fill="#FCFDFF"></path><path d="M86.8572 28.0887C86.8063 28.0913 81.7041 28.339 76.5203 28.8473C65.578 29.9209 64.9276 31.0839 64.5782 31.7079C63.6743 33.325 62.1667 37.9744 61.3747 40.5122C58.0683 41.1917 61.1934 44.2387 61.1934 44.2387C61.1934 44.2387 59.107 46.8977 59.0518 47.4302C58.9967 47.9627 63.631 48.236 64.4354 47.9065C65.2401 47.5772 62.7978 44.2976 62.7978 44.2976C63.4404 44.2057 64.1602 41.9384 63.2733 40.9198C64.1366 38.1653 65.4915 34.0688 66.2447 32.6881C67.4395 31.6008 77.8881 30.452 86.948 30.0172C87.1289 30.0084 87.2958 29.9505 87.4366 29.8573C87.7107 29.6756 87.8853 29.3589 87.8691 29.0066C87.8437 28.4742 87.3909 28.0634 86.8572 28.0887Z" fill="#F2C100"></path><path d="M78.2723 49.7242C78.2302 49.7355 78.1881 49.7458 78.1459 49.7554C77.3006 49.9449 76.5821 49.7196 76.1216 49.1216C75.6264 48.4784 75.3565 47.8182 75.2522 47.225C74.6981 47.3529 74.073 47.3742 73.5189 47.2544C72.5094 47.0361 71.83 46.4006 71.6052 45.4651C71.4056 44.6322 71.5144 43.9337 71.9291 43.3903C72.6939 42.3883 74.2143 42.3242 74.2781 42.3219C74.4557 42.3159 74.6048 42.4545 74.6108 42.6317C74.6168 42.809 74.4775 42.9579 74.3004 42.965C74.2877 42.9654 73.0173 43.0231 72.4401 43.7818C72.1499 44.1638 72.0799 44.6797 72.2324 45.3146C72.4421 46.1889 73.1222 46.5099 73.656 46.6254C74.1944 46.742 74.7509 46.696 75.2016 46.5759C75.2111 46.2265 75.2828 45.9208 75.4 45.6841C75.5578 45.3648 75.7999 45.1792 76.0665 45.1807C76.2174 45.1806 76.5014 45.243 76.709 45.6644C76.8443 45.9381 76.8035 46.2459 76.5977 46.5091C76.4372 46.7138 76.182 46.8884 75.8719 47.0239C75.9438 47.5287 76.1686 48.1261 76.6333 48.7297C77.0159 49.2272 77.5907 49.2204 78.005 49.1279C78.9855 48.9072 80.1659 47.9374 80.4376 46.6954C80.6453 45.7463 80.2488 44.8615 79.2914 44.1368C79.1494 44.0296 79.1219 43.8275 79.2296 43.6861C79.3373 43.5436 79.5401 43.5168 79.6813 43.6239C80.8363 44.4984 81.3289 45.6377 81.0675 46.8315C80.7791 48.1496 79.5906 49.371 78.2723 49.7242ZM76.0398 45.8192C76.061 45.8354 75.961 45.9351 75.8959 46.204C75.8885 46.2332 75.8825 46.2634 75.8767 46.2949C75.9693 46.2354 76.0421 46.1736 76.0901 46.1126C76.1646 46.0174 76.1433 45.9743 76.131 45.9484C76.0882 45.863 76.0521 45.8273 76.0398 45.8192Z" fill="#241726"></path><path d="M108.819 66.3361C108.694 66.3696 108.567 66.3944 108.434 66.4101C106.981 66.5839 105.778 65.9527 105.153 64.7109C103.871 65.3936 102.164 65.8624 100.827 65.7713C99.5742 65.6853 98.7565 65.105 98.5254 64.1367C98.3331 63.331 98.3337 62.6316 98.4545 62.0486C97.5378 61.8458 96.6127 61.3726 96.123 60.5864C95.6351 59.8031 95.4256 58.4575 97.1963 56.4952C98.7709 54.7505 99.3526 53.2691 98.8782 52.2106C98.2779 50.8708 95.9107 50.0801 92.546 50.0952C91.0599 50.1018 90.1211 49.7032 89.7553 48.9101C88.9405 47.143 91.4058 44.2113 91.6897 43.8825C91.8054 43.7469 92.0094 43.7326 92.1443 43.8487C92.2795 43.9644 92.2945 44.1675 92.1779 44.3023C91.4824 45.1085 89.7965 47.4592 90.3415 48.6404C90.5924 49.1843 91.3334 49.457 92.5437 49.4517C96.2797 49.435 98.7386 50.3211 99.467 51.9469C100.062 53.2741 99.459 54.949 97.6755 56.9255C96.8458 57.8443 95.9984 59.1666 96.6711 60.2459C97.0603 60.8711 97.8579 61.2632 98.6422 61.4298C98.8393 60.9494 99.1236 60.5828 99.4272 60.3388C99.8648 59.9872 100.351 59.8856 100.726 60.0657C100.925 60.1616 101.258 60.4213 101.254 61.0874C101.251 61.5427 100.916 61.8975 100.336 62.0614C100.007 62.156 99.5624 62.1877 99.0973 62.1473C98.9873 62.6487 98.9804 63.2654 99.153 63.9863C99.318 64.6776 99.8965 65.0621 100.871 65.129C102.14 65.2158 103.757 64.7286 104.911 64.1054C104.608 63.1085 104.746 62.0974 105.266 61.7151C105.479 61.557 105.938 61.3701 106.596 61.898C106.997 62.2187 107.118 62.6482 106.937 63.107C106.766 63.5428 106.317 63.9853 105.711 64.3816C106.012 64.9929 106.752 65.963 108.358 65.7713C110.664 65.4912 111.729 61.5115 111.478 58.7757C111.412 58.0512 111.073 55.6952 109.489 55.7991C108.777 55.846 108.151 56.0552 107.624 56.3474C107.508 57.5446 107.084 58.741 106.348 59.146C105.797 59.4492 105.481 59.3467 105.312 59.2071C105.169 59.0902 104.962 58.7995 105.168 58.1663C105.39 57.4807 106.034 56.605 107.006 55.9731C107.015 55.775 107.015 55.5743 107.005 55.375C106.947 54.2597 106.586 53.4574 106.041 53.2284C105.466 52.9864 104.624 53.332 103.607 54.2255C103.472 54.3425 103.269 54.3298 103.152 54.1965C103.034 54.0629 103.047 53.8597 103.182 53.7424C104.416 52.6598 105.462 52.2869 106.291 52.6352C107.082 52.9669 107.576 53.9529 107.648 55.3407C107.653 55.4302 107.656 55.5216 107.657 55.6135C108.186 55.3687 108.787 55.2008 109.448 55.1577C110.909 55.0617 111.908 56.3925 112.121 58.7167C112.377 61.5105 111.337 65.6611 108.819 66.3361ZM105.71 62.2031C105.688 62.2091 105.667 62.2189 105.648 62.2332C105.434 62.3903 105.302 63.0213 105.484 63.7585C105.918 63.4618 106.227 63.1533 106.337 62.8735C106.413 62.6804 106.371 62.5434 106.193 62.4003C106.072 62.3035 105.863 62.1623 105.71 62.2031ZM99.3126 61.5185C99.6326 61.5342 99.9406 61.5089 100.162 61.4422C100.328 61.395 100.607 61.2865 100.609 61.084C100.611 60.8563 100.551 60.6962 100.446 60.6457C100.329 60.5902 100.094 60.6279 99.8314 60.8399C99.642 60.9922 99.4578 61.22 99.3126 61.5185ZM106.904 56.8427C106.499 57.1837 106.189 57.5646 105.986 57.9161C105.738 58.3461 105.708 58.6297 105.732 58.713C105.746 58.6991 105.845 58.6881 106.037 58.5824C106.423 58.3705 106.745 57.6829 106.904 56.8427Z" fill="#241726"></path><path d="M101.182 51.9815C101.149 51.9902 101.114 51.9942 101.079 51.992C100.901 51.9812 100.766 51.8284 100.777 51.651C101.009 47.9661 95.9568 46.1548 95.9055 46.1369C95.7375 46.0781 95.6492 45.8946 95.7084 45.7269C95.7671 45.5585 95.9513 45.4715 96.1192 45.5294C96.3463 45.6087 101.683 47.5182 101.421 51.6906C101.412 51.8322 101.312 51.9466 101.182 51.9815Z" fill="#241726"></path><path d="M83.482 65.1688C84.9001 64.7889 85.6609 63.0297 85.1813 61.2396C84.7016 59.4496 83.1632 58.3065 81.745 58.6865C80.3269 59.0665 79.5661 60.8256 80.0457 62.6157C80.5254 64.4058 82.0638 65.5488 83.482 65.1688Z" fill="#DF4F3E"></path><path d="M82.4425 63.3919C81.3534 63.6838 79.9965 62.3652 78.1758 59.2474C78.0862 59.0942 78.1382 58.8971 78.2924 58.8074C78.4445 58.7185 78.6434 58.7691 78.7332 58.9232C80.9121 62.6544 81.933 62.8625 82.2785 62.7699C82.282 62.769 82.2851 62.7682 82.2882 62.7673C83.1871 62.5023 83.467 59.5891 83.3784 57.6049C83.3703 57.4276 83.5079 57.2768 83.686 57.2687C83.8637 57.2604 84.0148 57.3978 84.0225 57.5752C84.0624 58.457 84.1735 62.8824 82.4704 63.3841C82.461 63.387 82.4516 63.3895 82.4425 63.3919Z" fill="#241726"></path><path d="M133.57 39.6793C133.401 39.7248 133.226 39.6264 133.177 39.4576C132.435 36.8689 131.294 35.2699 129.786 34.705C127.911 34.0031 126.064 35.1703 126.046 35.1817C125.898 35.2785 125.697 35.2359 125.6 35.0866C125.504 34.9373 125.546 34.7388 125.695 34.642C125.782 34.5865 127.826 33.2872 130.006 34.1C131.72 34.7384 132.995 36.4812 133.797 39.2797C133.847 39.4507 133.747 39.6286 133.576 39.6778C133.574 39.6783 133.572 39.6788 133.57 39.6793Z" fill="#241726"></path><path d="M131.711 161.252C131.711 161.252 111.634 131.429 103.055 114.494C94.4772 97.5588 105.325 164.594 103.221 168.885C103.221 168.885 117.643 168.311 131.711 161.252Z" fill="#EFEBD5"></path><path d="M134.783 31.0538C134.332 30.9269 133.823 30.905 133.297 30.9464C133.291 30.9227 133.289 30.8984 133.278 30.8756C132.927 30.1769 132.684 26.6642 132.606 24.4736C132.6 24.296 132.45 24.1576 132.272 24.164C132.095 24.1708 131.956 24.3198 131.962 24.4973C131.981 25.0494 132.163 29.7586 132.648 31.0291C131.654 31.1978 130.66 31.5439 129.913 31.8506C129.231 30.5044 128.156 25.7949 128.145 25.7461C128.106 25.5728 127.934 25.4646 127.76 25.5042C127.607 25.5335 127.478 25.716 127.517 25.8893C127.562 26.0893 128.597 30.6245 129.32 32.1056C128.958 32.2693 128.722 32.3907 128.686 32.4099C128.528 32.4926 128.467 32.6868 128.549 32.8442C128.632 33.0012 128.827 33.0625 128.984 32.9797C129.02 32.9611 132.601 31.1072 134.608 31.673C134.666 31.6894 134.724 31.6885 134.778 31.674C134.885 31.6455 134.974 31.5638 135.006 31.4504C135.054 31.2798 134.954 31.1024 134.783 31.0538Z" fill="#241726"></path><path d="M60.8327 47.5998C60.8122 47.6053 60.791 47.609 60.7695 47.6104C60.5915 47.6218 60.4385 47.4869 60.4274 47.3097C60.3414 45.9323 61.0885 44.9274 61.1204 44.8856C61.2275 44.7432 61.4286 44.7152 61.5708 44.822C61.7131 44.9281 61.7415 45.1299 61.6353 45.2717C61.6291 45.28 60.9999 46.1364 61.0712 47.2687C61.0808 47.4241 60.9779 47.5609 60.8327 47.5998Z" fill="#241726"></path><path d="M63.2306 48.051C63.1621 48.0693 63.0871 48.0652 63.0173 48.0345C62.2325 47.6891 62.3065 45.9743 62.3478 45.4567C62.362 45.2798 62.5167 45.1476 62.6948 45.161C62.8724 45.1749 63.0049 45.3297 62.9907 45.507C62.9184 46.4232 63.0555 47.3472 63.2783 47.4455C63.4411 47.5172 63.5146 47.7073 63.4429 47.8697C63.4016 47.9624 63.3218 48.0265 63.2306 48.051Z" fill="#241726"></path><path d="M69.9811 68.3982C70.0099 68.536 70.0335 68.6766 70.0512 68.8208C70.7872 74.7521 66.5905 77.2714 66.5477 77.2963C66.3944 77.3858 66.1973 77.3344 66.1073 77.181C66.0186 77.0273 66.0694 76.8308 66.2225 76.7407C66.381 76.6478 70.0931 74.3976 69.4114 68.9005C69.2729 67.7926 68.7562 66.898 67.8737 66.2406C65.4412 64.4287 60.9 64.8199 59.5226 64.989C61.4103 69.5111 63.6196 74.2227 64.3401 74.9333C64.8391 74.328 65.9957 72.1729 66.0997 70.2255C66.1488 69.3108 65.9499 68.6023 65.5089 68.1198C65.0495 67.6176 64.5335 67.3535 63.975 67.3354C63.2536 67.3115 62.6028 67.6963 62.2532 67.9521L65.338 70.752C65.4697 70.8727 65.4793 71.0755 65.3594 71.2065C65.2392 71.3378 65.0353 71.3478 64.9039 71.2283L61.5426 68.1778C61.477 68.1177 61.4385 68.0332 61.4374 67.9448C61.4361 67.8557 61.4715 67.7702 61.5358 67.7083C61.5805 67.665 62.6479 66.6509 63.9914 66.6923C64.7321 66.715 65.4029 67.0489 65.985 67.686C66.5462 68.3 66.8014 69.1658 66.7436 70.2591C66.6242 72.4963 65.2358 75.0201 64.6574 75.5327C64.5518 75.6266 64.4103 75.6618 64.2692 75.6293C63.2363 75.3928 60.0769 68.0125 58.7667 64.8506C58.7281 64.7608 58.7345 64.6576 58.7828 64.5713C58.8306 64.4856 58.9148 64.4261 59.0118 64.4098C59.2615 64.3681 65.1622 63.418 68.2589 65.7236C69.1734 66.405 69.7513 67.303 69.9811 68.3982Z" fill="#241726"></path><path d="M125.12 84.6952C125.112 84.6974 125.104 84.6993 125.095 84.7008C124.92 84.733 124.752 84.6177 124.72 84.4435C123.607 78.4368 115.196 70.5593 115.112 70.4804C114.982 70.3596 114.975 70.1558 115.096 70.0259C115.217 69.8955 115.422 69.8885 115.552 70.0093C115.905 70.337 124.203 78.1099 125.354 84.3257C125.385 84.4922 125.281 84.6521 125.12 84.6952Z" fill="#FCFDFF"></path><path d="M79.3637 103.384C79.3589 103.385 79.3539 103.387 79.3491 103.388C79.175 103.426 79.0033 103.316 78.9653 103.143C78.0263 98.8612 77.6049 86.8286 77.5872 86.3186C77.5814 86.141 77.722 85.9904 77.8983 85.9855C78.0763 85.9795 78.2256 86.118 78.2317 86.2955C78.236 86.4198 78.6687 98.7798 79.5951 103.004C79.6319 103.173 79.529 103.34 79.3637 103.384Z" fill="#FCFDFF"></path><path d="M126.308 49.3543C126.172 49.3907 126.023 49.3348 125.947 49.2078C125.856 49.0553 125.907 48.8576 126.06 48.7668C126.621 48.4343 139.852 40.6461 144.491 42.847C144.652 42.9232 144.72 43.1151 144.643 43.2755C144.567 43.4361 144.374 43.5043 144.214 43.4279C139.882 41.3741 126.523 49.2403 126.389 49.32C126.363 49.3355 126.336 49.3468 126.308 49.3543Z" fill="#FCFDFF"></path><path d="M135.822 74.1118C135.666 74.1536 135.5 74.0731 135.439 73.9195C134.217 70.8344 129.049 65.7547 128.997 65.7038C128.87 65.5795 128.868 65.3757 128.993 65.2488C129.119 65.1226 129.322 65.1198 129.449 65.2439C129.665 65.4558 134.767 70.4702 136.039 73.6822C136.104 73.8476 136.023 74.0344 135.858 74.0999C135.846 74.1047 135.834 74.1086 135.822 74.1118Z" fill="#FCFDFF"></path><path d="M63.7533 101.97C63.6382 102.001 63.5108 101.967 63.427 101.871C61.3426 99.4963 62.533 93.9621 62.5847 93.7277C62.6233 93.5547 62.7941 93.444 62.9688 93.4823C63.1428 93.5204 63.2524 93.6917 63.2143 93.8653C63.2026 93.9195 62.042 99.3159 63.9128 101.447C64.0298 101.581 64.0165 101.784 63.8821 101.901C63.8437 101.935 63.7995 101.958 63.7533 101.97Z" fill="#FCFDFF"></path></g><defs><linearGradient id="paint0_linear_321_6018" x1="138.919" y1="47.2113" x2="66.8194" y2="141.556" gradientUnits="userSpaceOnUse"><stop stop-color="#B5B5FF"></stop><stop offset="1" stop-color="#4F4789"></stop></linearGradient><linearGradient id="paint1_linear_321_6018" x1="83.9825" y1="21.256" x2="90.6351" y2="46.0838" gradientUnits="userSpaceOnUse"><stop stop-color="#B5B5FF"></stop><stop offset="1" stop-color="#4F4789"></stop></linearGradient><clipPath id="clip0_321_6018"><rect width="166.656" height="166.25" fill="white" transform="translate(0 43.7588) rotate(-15)"></rect></clipPath></defs></svg> 