<?xml version="1.0" encoding="UTF-8"?> <svg xmlns="http://www.w3.org/2000/svg" width="48" height="27" viewBox="0 0 48 27" fill="none"><path d="M1.875 24.6071C11.0241 24.9201 29.6342 21.1641 38.6794 10.5201M38.6794 10.5201C47.8447 -0.265372 46.7888 -0.4356 42.1103 14.2766M38.6794 10.5201C41.6944 6.76359 53.9625 -3.25314 33.377 5.82474" stroke="url(#paint0_linear_321_4966)" stroke-width="3.125" stroke-linecap="round" stroke-dasharray="6.25 6.25"></path><g clip-path="url(#clip0_321_4966)"><path d="M1.875 24.568C11.0417 24.8805 29.6875 21.1311 38.75 10.5055M38.75 10.5055C47.933 -0.261221 46.875 -0.431152 42.1875 14.2555M38.75 10.5055C41.7708 6.75553 54.0625 -3.2438 33.4375 5.81831" stroke="url(#paint1_linear_321_4966)" stroke-width="3.125" stroke-linecap="round"></path></g><defs><linearGradient id="paint0_linear_321_4966" x1="16.8587" y1="18.1051" x2="16.8587" y2="22.7074" gradientUnits="userSpaceOnUse"><stop stop-color="#8693E9"></stop><stop offset="1" stop-color="#56B7DF"></stop></linearGradient><linearGradient id="paint1_linear_321_4966" x1="16.8875" y1="18.0774" x2="16.8875" y2="22.6716" gradientUnits="userSpaceOnUse"><stop stop-color="#8693E9"></stop><stop offset="1" stop-color="#56B7DF"></stop></linearGradient><clipPath id="clip0_321_4966"><rect width="21.875" height="24.375" fill="white" transform="translate(25.625 0.25)"></rect></clipPath></defs></svg> 