<?xml version="1.0" encoding="UTF-8"?> <svg xmlns="http://www.w3.org/2000/svg" width="60" height="60" viewBox="0 0 60 60" fill="none"><path d="M59.957 42.6507C59.9886 44.9117 59.1213 47.0929 57.5452 48.7159C55.9691 50.3389 53.8129 51.2712 51.5497 51.3082H40.1954C35.5409 51.3082 31.095 55.1641 31.095 59.9375H29.6299C29.6299 55.1697 25.0487 51.2857 20.4112 51.2857H9.01743C6.75572 51.2545 4.59897 50.3274 3.02136 48.7082C1.44374 47.0889 0.574421 44.9101 0.604516 42.6507V0.5625H59.9795L59.957 42.6507Z" fill="#FBBA00"></path><path d="M39.7672 39.9658H43.52C43.1594 41.3393 41.9704 41.8853 40.7026 41.8853C39.9016 41.8869 39.1242 41.6148 38.4993 41.1142L37.5921 42.9154C38.5078 43.5971 39.6289 43.9466 40.7702 43.9062C43.8299 43.9062 45.7627 42.0767 45.7627 39.0764C45.7627 36.1662 43.7567 34.2467 41.0463 34.2467C39.8266 34.1944 38.628 34.5775 37.6653 35.3275L38.4824 36.9262C39.0686 36.4889 39.7794 36.2503 40.511 36.245C41.9253 36.245 43.0072 36.8474 43.4242 37.9788H39.7672V39.9658ZM24.9305 43.7429H35.8847V34.3987H33.7435V41.7165H31.4895V34.3987H29.3426V41.7165H27.0886V34.3987H24.9305V43.7429ZM19.1998 36.3464C19.7182 36.3464 20.231 36.6278 20.231 37.1851C20.231 37.8662 19.7914 38.0914 19.2448 38.0914H18.5574V36.4027C18.7702 36.3708 18.9847 36.352 19.1998 36.3464ZM19.3857 39.9658C20.0788 39.9658 20.5127 40.2191 20.5127 40.8046C20.5127 41.39 20.1013 41.7896 19.273 41.7896C19.03 41.7996 18.7869 41.773 18.5517 41.7108V39.9658H19.3857ZM16.4218 43.7148C16.9852 43.7654 18.2137 43.7936 19.104 43.7936C21.1325 43.7936 22.654 42.876 22.654 40.9115C22.6865 40.4604 22.5746 40.0107 22.3346 39.6272C22.0945 39.2437 21.7387 38.9464 21.3185 38.7781C21.6679 38.5592 21.9518 38.2502 22.1402 37.8837C22.3287 37.5171 22.4146 37.1066 22.3891 36.6954C22.3891 35.4007 21.4819 34.3762 19.2505 34.3762C18.2362 34.3762 16.9402 34.4269 16.433 34.455L16.4218 43.7148Z" fill="#1D1D1B"></path><path d="M45.8921 21.8903H43.7395L41.8462 26.4555L39.2147 21.8903H36.7973L40.815 28.572L40.6967 28.8534C40.6358 28.9809 40.5357 29.0857 40.411 29.1525C40.2864 29.2194 40.1437 29.2447 40.0036 29.2249C39.7656 29.2317 39.5332 29.1516 39.35 28.9998L38.6005 30.8123C39.0231 31.0818 39.5135 31.2263 40.0149 31.2289C41.3109 31.2289 42.1111 30.4408 42.7534 29.011L45.8921 21.8903ZM28.9197 31.2289L33.0614 25.4253V31.2289H35.197V21.8903H33.3262L29.1846 27.6938V21.8903H27.049V31.2289H28.9197ZM22.2424 31.2289H24.378V21.8903H22.2367V25.4648H18.8558V21.8903H16.6976V31.2289H18.8333V27.4687H22.2142L22.2424 31.2289Z" fill="#1D1D1B"></path><path d="M47.8084 6.97974C47.8084 8.26315 48.834 9.11314 50.6259 9.11314C52.3164 9.11314 53.4434 8.27441 53.4039 6.97974H51.4148C51.4148 7.54264 51.1499 7.64396 50.6428 7.64396C50.1357 7.64396 49.8145 7.48635 49.8145 6.97974H47.8084ZM48.2085 18.7219L52.3502 12.9184V18.7163H54.4858V9.3777H52.615L48.5015 15.1981V9.3777H46.3377V18.7163L48.2085 18.7219ZM38.3925 18.7219H44.0725V16.718H40.5281V15.0292H43.5316V13.0197H40.5281V11.3816H43.9091V9.3777H38.3925V18.7219ZM27.906 18.7219H34.6678V20.3205H36.6682V16.718H35.3891V9.40022H33.2535V16.718H30.0472V9.40022H27.9116L27.906 18.7219ZM18.9577 18.7219L23.0994 12.9184V18.7163H25.235V9.3777H23.3699L19.2 15.1981V9.3777H17.0926V18.7163L18.9577 18.7219ZM12.2804 18.7219H14.416V9.3777H8.2176L8.088 11.2578C7.71609 16.4365 6.9103 16.7292 6.13832 16.5941L6.09888 18.7275C8.29086 19.0878 9.47982 18.0746 10.0433 13.1492L10.2462 11.3873H12.3029L12.2804 18.7219Z" fill="#1D1D1B"></path></svg> 