<?xml version="1.0" encoding="UTF-8"?> <svg xmlns="http://www.w3.org/2000/svg" width="29" height="9" viewBox="0 0 29 9" fill="none"><g clip-path="url(#clip0_321_5956)"><path d="M1.17188 0.640869H3.75C3.98438 0.640869 4.6875 0.562744 5 1.65649C5.23438 2.35962 5.54688 3.45337 6.01562 5.09399H6.17188C6.64062 3.37524 7.03125 2.20337 7.1875 1.65649C7.5 0.562744 8.28125 0.640869 8.59375 0.640869H11.0156V8.14087H8.51562V3.68774H8.35938L7.03125 8.14087H5.15625L3.82812 3.68774H3.59375V8.14087H1.17188M12.0312 0.640869H14.5312V5.09399H14.7656L16.4062 1.42212C16.7188 0.718994 17.4219 0.640869 17.4219 0.640869H19.7656V8.14087H17.2656V3.68774H17.1094L15.4688 7.35962C15.1562 8.06274 14.375 8.14087 14.375 8.14087H12.0312M23.125 5.87524V8.14087H20.7812V4.23462H28.4375C28.125 5.17212 27.0312 5.87524 25.7812 5.87524" fill="#0F754E"></path><path d="M28.5938 3.76562C28.9062 2.35938 27.9688 0.640625 25.9375 0.640625H20.625C20.7812 2.28125 22.1875 3.76562 23.6719 3.76562" fill="url(#paint0_linear_321_5956)"></path></g><defs><linearGradient id="paint0_linear_321_5956" x1="27.6563" y1="-0.375" x2="21.4063" y2="-0.375" gradientUnits="userSpaceOnUse"><stop stop-color="#1F5CD7"></stop><stop offset="1" stop-color="#02AEFF"></stop></linearGradient><clipPath id="clip0_321_5956"><rect width="28.125" height="8.125" fill="white" transform="translate(0.625 0.5625)"></rect></clipPath></defs></svg> 