<?xml version="1.0" encoding="UTF-8"?> <svg xmlns="http://www.w3.org/2000/svg" width="11" height="11" viewBox="0 0 11 11" fill="none"><path d="M5.01206 0.49838C5.09728 0.0663397 5.71522 0.0663408 5.80044 0.498381L6.51256 4.10851C6.5441 4.2684 6.6691 4.3934 6.82899 4.42494L10.4391 5.13706C10.8712 5.22228 10.8712 5.84022 10.4391 5.92544L6.82899 6.63756C6.6691 6.6691 6.5441 6.7941 6.51256 6.95399L5.80044 10.5641C5.71522 10.9962 5.09728 10.9962 5.01206 10.5641L4.29994 6.95399C4.2684 6.7941 4.1434 6.6691 3.98351 6.63756L0.37338 5.92544C-0.0586603 5.84022 -0.0586592 5.22228 0.373381 5.13706L3.98351 4.42494C4.1434 4.3934 4.2684 4.2684 4.29994 4.10851L5.01206 0.49838Z" fill="url(#paint0_linear_321_4138)"></path><defs><linearGradient id="paint0_linear_321_4138" x1="7.68107" y1="-0.776194" x2="1.06342" y2="12.5625" gradientUnits="userSpaceOnUse"><stop offset="0.201703" stop-color="#FFAC45"></stop><stop offset="1" stop-color="#FFDA55"></stop></linearGradient></defs></svg> 