<?xml version="1.0" encoding="UTF-8"?> <svg xmlns="http://www.w3.org/2000/svg" width="44" height="44" viewBox="0 0 44 44" fill="none"><path d="M20.5482 2.11852C20.8891 0.390359 23.3609 0.390363 23.7018 2.11852L26.5502 16.559C26.6764 17.1986 27.1764 17.6986 27.816 17.8248L42.2565 20.6732C43.9846 21.0141 43.9846 23.4859 42.2565 23.8268L27.816 26.6752C27.1764 26.8014 26.6764 27.3014 26.5502 27.941L23.7018 42.3815C23.3609 44.1096 20.8891 44.1096 20.5482 42.3815L17.6998 27.941C17.5736 27.3014 17.0736 26.8014 16.434 26.6752L1.99352 23.8268C0.265359 23.4859 0.265363 21.0141 1.99352 20.6732L16.434 17.8248C17.0736 17.6986 17.5736 17.1986 17.6998 16.559L20.5482 2.11852Z" fill="url(#paint0_linear_321_4136)"></path><defs><linearGradient id="paint0_linear_321_4136" x1="31.2243" y1="-2.97978" x2="4.75367" y2="50.375" gradientUnits="userSpaceOnUse"><stop offset="0.201703" stop-color="#FFAC45"></stop><stop offset="1" stop-color="#FFDA55"></stop></linearGradient></defs></svg> 