<?xml version="1.0" encoding="UTF-8"?> <svg xmlns="http://www.w3.org/2000/svg" width="23" height="22" viewBox="0 0 23 22" fill="none"><path d="M10.5241 0.996759C10.6946 0.132679 11.9304 0.132682 12.1009 0.996761L13.5251 8.21702C13.5882 8.53681 13.8382 8.78681 14.158 8.84989L21.3782 10.2741C22.2423 10.4446 22.2423 11.6804 21.3782 11.8509L14.158 13.2751C13.8382 13.3382 13.5882 13.5882 13.5251 13.908L12.1009 21.1282C11.9304 21.9923 10.6946 21.9923 10.5241 21.1282L9.09989 13.908C9.03681 13.5882 8.78681 13.3382 8.46702 13.2751L1.24676 11.8509C0.382679 11.6804 0.382682 10.4446 1.24676 10.2741L8.46702 8.84989C8.78681 8.78681 9.03681 8.53681 9.09989 8.21702L10.5241 0.996759Z" fill="url(#paint0_linear_321_4137)"></path><defs><linearGradient id="paint0_linear_321_4137" x1="15.8621" y1="-1.55239" x2="2.62684" y2="25.125" gradientUnits="userSpaceOnUse"><stop offset="0.201703" stop-color="#FFAC45"></stop><stop offset="1" stop-color="#FFDA55"></stop></linearGradient></defs></svg> 