<?xml version="1.0" encoding="UTF-8"?> <svg xmlns="http://www.w3.org/2000/svg" width="17" height="18" viewBox="0 0 17 18" fill="none"><path d="M7.82432 1.10859C7.95688 0.436531 8.91812 0.43653 9.05068 1.10859L10.1584 6.72435C10.2075 6.97307 10.4019 7.16752 10.6507 7.21658L16.2664 8.32432C16.9385 8.45688 16.9385 9.41812 16.2664 9.55068L10.6506 10.6584C10.4019 10.7075 10.2075 10.9019 10.1584 11.1507L9.05068 16.7664C8.91812 17.4385 7.95688 17.4385 7.82432 16.7664L6.71658 11.1506C6.66752 10.9019 6.47307 10.7075 6.22435 10.6584L0.608593 9.55068C-0.0634693 9.41812 -0.0634698 8.45688 0.608592 8.32432L6.22435 7.21658C6.47307 7.16752 6.66752 6.97307 6.71658 6.72435L7.82432 1.10859Z" fill="url(#paint0_linear_321_4015)"></path><defs><linearGradient id="paint0_linear_321_4015" x1="11.9761" y1="-0.87408" x2="1.68198" y2="19.875" gradientUnits="userSpaceOnUse"><stop offset="0.201703" stop-color="#4F4789"></stop><stop offset="1" stop-color="#B5B5FF"></stop></linearGradient></defs></svg> 