<?xml version="1.0" encoding="UTF-8"?> <svg xmlns="http://www.w3.org/2000/svg" width="32" height="11" viewBox="0 0 32 11" fill="none"><g clip-path="url(#clip0_321_5984)"><path d="M12.0834 10.1141L13.6707 1.18555H16.1508L14.6131 10.1141H12.0834Z" fill="#3C58BF"></path><path d="M12.0834 10.1141L14.1171 1.18555H16.1508L14.6131 10.1141H12.0834Z" fill="#293688"></path><path d="M23.5912 1.28501C23.0952 1.0866 22.3016 0.888184 21.3095 0.888184C18.8293 0.888184 17.0436 2.12826 17.0436 3.91398C17.0436 5.25326 18.2837 5.94771 19.2758 6.39413C20.2678 6.84056 20.5654 7.13818 20.5654 7.53501C20.5654 8.13025 19.7718 8.42787 19.0774 8.42787C18.0853 8.42787 17.5397 8.27906 16.6964 7.93183L16.3492 7.78302L16.002 9.81675C16.5972 10.0648 17.6885 10.3128 18.8293 10.3128C21.4583 10.3128 23.1944 9.07271 23.1944 7.18779C23.1944 6.14612 22.5496 5.35247 21.0615 4.70763C20.1686 4.2612 19.623 4.01318 19.623 3.56675C19.623 3.16993 20.0694 2.7731 21.0615 2.7731C21.9047 2.7731 22.5 2.92191 22.9464 3.12033L23.1944 3.21953L23.5912 1.28501Z" fill="#3C58BF"></path><path d="M23.5912 1.28501C23.0952 1.0866 22.3016 0.888184 21.3095 0.888184C18.8293 0.888184 17.49 2.12826 17.49 3.91398C17.49 5.25326 18.2837 5.94771 19.2758 6.39413C20.2678 6.84056 20.5654 7.13818 20.5654 7.53501C20.5654 8.13025 19.7718 8.42787 19.0774 8.42787C18.0853 8.42787 17.5397 8.27906 16.6964 7.93183L16.3492 7.78302L16.002 9.81675C16.5972 10.0648 17.6885 10.3128 18.8293 10.3128C21.4583 10.3128 23.1944 9.07271 23.1944 7.18779C23.1944 6.14612 22.5496 5.35247 21.0615 4.70763C20.1686 4.2612 19.623 4.01318 19.623 3.56675C19.623 3.16993 20.0694 2.7731 21.0615 2.7731C21.9047 2.7731 22.5 2.92191 22.9464 3.12033L23.1944 3.21953L23.5912 1.28501Z" fill="#293688"></path><path d="M27.8571 1.18555C27.2619 1.18555 26.8154 1.23515 26.5674 1.83039L22.8472 10.1141H25.5257L26.0218 8.62602H29.1964L29.494 10.1141H31.8749L29.7916 1.18555H27.8571ZM26.7162 7.13793C26.865 6.6915 27.7083 4.50896 27.7083 4.50896C27.7083 4.50896 27.9067 3.96333 28.0555 3.6161L28.2043 4.45936C28.2043 4.45936 28.7003 6.6915 28.7995 7.18753H26.7162V7.13793Z" fill="#3C58BF"></path><path d="M28.4523 1.18555C27.8571 1.18555 27.4107 1.23515 27.1626 1.83039L22.8472 10.1141H25.5257L26.0218 8.62602H29.1964L29.494 10.1141H31.8749L29.7916 1.18555H28.4523ZM26.7162 7.13793C26.9146 6.6419 27.7083 4.50896 27.7083 4.50896C27.7083 4.50896 27.9067 3.96333 28.0555 3.6161L28.2043 4.45936C28.2043 4.45936 28.7003 6.6915 28.7995 7.18753H26.7162V7.13793Z" fill="#293688"></path><path d="M7.5198 7.43575L7.27178 6.14607C6.82535 4.65797 5.38686 3.02107 3.79956 2.22742L6.0317 10.1639H8.71027L12.7281 1.23535H10.0496L7.5198 7.43575Z" fill="#3C58BF"></path><path d="M7.5198 7.43575L7.27178 6.14607C6.82535 4.65797 5.38686 3.02107 3.79956 2.22742L6.0317 10.1639H8.71027L12.7281 1.23535H10.5456L7.5198 7.43575Z" fill="#293688"></path><path d="M0.625 1.18555L1.07143 1.28475C4.24603 2.0288 6.42857 3.91372 7.27182 6.14586L6.37897 1.92959C6.23016 1.33436 5.78373 1.18555 5.2381 1.18555H0.625Z" fill="#FFBC00"></path><path d="M0.625 1.18555C3.7996 1.92959 6.42857 3.86412 7.27182 6.09626L6.42857 2.57444C6.27976 1.9792 5.78373 1.63198 5.2381 1.63198L0.625 1.18555Z" fill="#F7981D"></path><path d="M0.625 1.18555C3.7996 1.92959 6.42857 3.86412 7.27182 6.09626L6.67659 4.16174C6.52778 3.5665 6.32937 2.97126 5.63492 2.72325L0.625 1.18555Z" fill="#ED7C00"></path><path d="M9.99991 7.13805L8.31341 5.45154L7.51976 7.33647L7.32134 6.09639C6.87491 4.60829 5.43642 2.97139 3.84912 2.17773L6.08126 10.1142H8.75984L9.99991 7.13805Z" fill="#051244"></path><path d="M14.613 10.1142L12.4801 7.93164L12.0833 10.1142H14.613Z" fill="#051244"></path><path d="M20.3174 7.03857C20.5158 7.23699 20.615 7.3858 20.5654 7.58421C20.5654 8.17945 19.7718 8.47707 19.0774 8.47707C18.0853 8.47707 17.5397 8.32826 16.6964 7.98104L16.3492 7.83223L16.002 9.86596C16.5972 10.114 17.6885 10.362 18.8293 10.362C20.4166 10.362 21.7063 9.91556 22.4504 9.12191L20.3174 7.03857Z" fill="#051244"></path><path d="M23.1943 10.1142H25.5257L26.0217 8.62613H29.1963L29.4939 10.1142H31.8749L31.0316 6.49319L28.0554 3.61621L28.2043 4.40986C28.2043 4.40986 28.7003 6.642 28.7995 7.13804H26.7162C26.9146 6.642 27.7082 4.50907 27.7082 4.50907C27.7082 4.50907 27.9066 3.96343 28.0554 3.61621" fill="#051244"></path></g><defs><clipPath id="clip0_321_5984"><rect width="31.25" height="10" fill="white" transform="translate(0.625 0.625)"></rect></clipPath></defs></svg> 